<svg width="24" height="24" viewBox="0 0 24 24" fill="none" xmlns="http://www.w3.org/2000/svg">
<path d="M20.2143 10.2143H14.1429C14.0481 10.2143 13.9573 10.1767 13.8903 10.1097C13.8233 10.0427 13.7857 9.95186 13.7857 9.85714V3.78571C13.7857 2.79955 12.9862 2 12 2C11.0138 2 10.2143 2.79955 10.2143 3.78571V9.85714C10.2143 9.95186 10.1767 10.0427 10.1097 10.1097C10.0427 10.1767 9.95186 10.2143 9.85714 10.2143H3.78571C2.79955 10.2143 2 11.0138 2 12C2 12.9862 2.79955 13.7857 3.78571 13.7857H9.85714C9.95186 13.7857 10.0427 13.8233 10.1097 13.8903C10.1767 13.9573 10.2143 14.0481 10.2143 14.1429V20.2143C10.2143 21.2004 11.0138 22 12 22C12.9862 22 13.7857 21.2004 13.7857 20.2143V14.1429C13.7857 14.0481 13.8233 13.9573 13.8903 13.8903C13.9573 13.8233 14.0481 13.7857 14.1429 13.7857H20.2143C21.2004 13.7857 22 12.9862 22 12C22 11.0138 21.2004 10.2143 20.2143 10.2143Z" fill="#505050"/>
</svg>
