<svg width="48" height="49" viewBox="0 0 48 49" fill="none" xmlns="http://www.w3.org/2000/svg">
<g opacity="0.8">
<path d="M42.4 8.92499V44.125C42.4 44.9737 42.0629 45.7876 41.4627 46.3877C40.8626 46.9878 40.0487 47.325 39.2 47.325H13.6C12.7513 47.325 11.9374 46.9878 11.3373 46.3877C10.7371 45.7876 10.4 44.9737 10.4 44.125V8.92499H42.4Z" fill="#3BB54A"/>
<path d="M42.4 44.125C42.4 44.9737 42.0629 45.7876 41.4628 46.3877C40.8626 46.9878 40.0487 47.325 39.2 47.325H44C44.8487 47.325 45.6626 46.9878 46.2628 46.3877C46.8629 45.7876 47.2 44.9737 47.2 44.125V8.92499H42.4V44.125Z" fill="#3BB54A"/>
<path d="M20 37.725V36.125H0.799988V37.725C0.799988 38.5737 1.13713 39.3876 1.73725 39.9877C2.33736 40.5879 3.15129 40.925 3.99999 40.925H23.2C22.3513 40.925 21.5374 40.5879 20.9372 39.9877C20.3371 39.3876 20 38.5737 20 37.725Z" fill="#F7F7F7"/>
<path d="M29.6 0.924988C28.7513 0.924988 27.9374 1.26213 27.3373 1.86225C26.7371 2.46236 26.4 3.27629 26.4 4.12499V37.725C26.4 38.5737 26.0629 39.3876 25.4627 39.9877C24.8626 40.5878 24.0487 40.925 23.2 40.925C22.3513 40.925 21.5374 40.5878 20.9373 39.9877C20.3371 39.3876 20 38.5737 20 37.725V36.125H2.39999V4.12499C2.39999 3.27629 2.73714 2.46236 3.33725 1.86225C3.93737 1.26213 4.7513 0.924988 5.59999 0.924988H29.6Z" fill="white"/>
<path d="M26.4 4.12499V8.92499H32.8V4.12499C32.8 3.27629 32.4629 2.46236 31.8627 1.86225C31.2626 1.26213 30.4487 0.924988 29.6 0.924988C28.7513 0.924988 27.9374 1.26213 27.3373 1.86225C26.7371 2.46236 26.4 3.27629 26.4 4.12499Z" fill="#F7F7F7"/>
<path d="M13.6 47.325H39.2C40.0487 47.325 40.8626 46.9879 41.4627 46.3877C42.0629 45.7876 42.4 44.9737 42.4 44.125V18.525C42.4 26.1632 39.3657 33.4886 33.9647 38.8897C28.5636 44.2907 21.2382 47.325 13.6 47.325Z" fill="#DC002D"/>
<path d="M34.4 16.925C35.2836 16.925 36 16.2087 36 15.325C36 14.4414 35.2836 13.725 34.4 13.725C33.5163 13.725 32.8 14.4414 32.8 15.325C32.8 16.2087 33.5163 16.925 34.4 16.925Z" fill="#F1F2F2"/>
<path d="M18.4 12.125L20 7.32501H10.4V12.125H18.4Z" fill="#EC801C"/>
<path d="M12 16.925C12.4418 16.925 12.8 16.5668 12.8 16.125C12.8 15.6832 12.4418 15.325 12 15.325C11.5582 15.325 11.2 15.6832 11.2 16.125C11.2 16.5668 11.5582 16.925 12 16.925Z" fill="#9BC9FF"/>
<path d="M16.8 16.925C17.2418 16.925 17.6 16.5668 17.6 16.125C17.6 15.6832 17.2418 15.325 16.8 15.325C16.3582 15.325 16 15.6832 16 16.125C16 16.5668 16.3582 16.925 16.8 16.925Z" fill="#9BC9FF"/>
<path d="M47.2 8.125H33.6V4.125C33.6 3.06413 33.1786 2.04672 32.4284 1.29657C31.6783 0.546427 30.6609 0.125 29.6 0.125H5.6C4.53913 0.125 3.52172 0.546427 2.77157 1.29657C2.02143 2.04672 1.6 3.06413 1.6 4.125V35.325H0.8C0.587827 35.325 0.384344 35.4093 0.234315 35.5593C0.0842854 35.7093 0 35.9128 0 36.125V37.725C0 38.7859 0.421427 39.8033 1.17157 40.5534C1.92172 41.3036 2.93913 41.725 4 41.725H9.6V44.125C9.6 45.1859 10.0214 46.2033 10.7716 46.9534C11.5217 47.7036 12.5391 48.125 13.6 48.125H44C45.0609 48.125 46.0783 47.7036 46.8284 46.9534C47.5786 46.2033 48 45.1859 48 44.125V8.925C48 8.71283 47.9157 8.50934 47.7657 8.35931C47.6157 8.20929 47.4122 8.125 47.2 8.125ZM27.2 4.125C27.2 3.48848 27.4529 2.87803 27.9029 2.42794C28.353 1.97786 28.9635 1.725 29.6 1.725C30.2365 1.725 30.847 1.97786 31.2971 2.42794C31.7471 2.87803 32 3.48848 32 4.125V8.125H27.2V4.125ZM3.2 4.125C3.2019 3.48906 3.45537 2.87972 3.90504 2.43004C4.35472 1.98037 4.96406 1.7269 5.6 1.725H26.424C25.8921 2.41221 25.6024 3.25601 25.6 4.125V37.725C25.6 38.3615 25.3471 38.972 24.8971 39.4221C24.447 39.8721 23.8365 40.125 23.2 40.125C22.5635 40.125 21.953 39.8721 21.5029 39.4221C21.0529 38.972 20.8 38.3615 20.8 37.725V36.125C20.8 35.9128 20.7157 35.7093 20.5657 35.5593C20.4157 35.4093 20.2122 35.325 20 35.325H3.2V4.125ZM4 40.125C3.36406 40.1231 2.75472 39.8696 2.30504 39.42C1.85537 38.9703 1.6019 38.3609 1.6 37.725V36.925H19.2V37.725C19.1991 38.5906 19.4799 39.433 20 40.125H4ZM41.6 44.125C41.5981 44.7609 41.3446 45.3703 40.895 45.82C40.4453 46.2696 39.8359 46.5231 39.2 46.525H13.6C12.9641 46.5231 12.3547 46.2696 11.905 45.82C11.4554 45.3703 11.2019 44.7609 11.2 44.125V41.725H23.2C24.2609 41.725 25.2783 41.3036 26.0284 40.5534C26.7786 39.8033 27.2 38.7859 27.2 37.725V32.085C29.3868 31.8883 31.4208 30.8801 32.9014 29.2588C34.382 27.6375 35.202 25.5206 35.2 23.325V17.581C35.7338 17.3923 36.1836 17.0209 36.4701 16.5326C36.7566 16.0443 36.8612 15.4704 36.7654 14.9124C36.6697 14.3544 36.3798 13.8482 35.9469 13.4833C35.5141 13.1184 34.9661 12.9183 34.4 12.9183C33.8339 12.9183 33.2859 13.1184 32.8531 13.4833C32.4202 13.8482 32.1303 14.3544 32.0346 14.9124C31.9388 15.4704 32.0434 16.0443 32.3299 16.5326C32.6164 17.0209 33.0662 17.3923 33.6 17.581V23.325C33.5978 25.0951 32.9441 26.8024 31.7638 28.1214C30.5835 29.4404 28.9589 30.2789 27.2 30.477V9.725H41.6V44.125ZM33.6 15.325C33.6 15.1668 33.6469 15.0121 33.7348 14.8805C33.8227 14.749 33.9477 14.6464 34.0939 14.5859C34.24 14.5253 34.4009 14.5095 34.5561 14.5404C34.7113 14.5712 34.8538 14.6474 34.9657 14.7593C35.0776 14.8712 35.1538 15.0137 35.1846 15.1689C35.2155 15.3241 35.1997 15.485 35.1391 15.6311C35.0786 15.7773 34.976 15.9023 34.8445 15.9902C34.7129 16.0781 34.5582 16.125 34.4 16.125C34.1878 16.125 33.9843 16.0407 33.8343 15.8907C33.6843 15.7407 33.6 15.5372 33.6 15.325ZM46.4 44.125C46.3981 44.7609 46.1446 45.3703 45.695 45.82C45.2453 46.2696 44.6359 46.5231 44 46.525H42.376C42.9079 45.8378 43.1976 44.994 43.2 44.125V9.725H46.4V44.125Z" fill="#231F20" fill-opacity="0.8"/>
<path d="M11.2 21.725C11.2 21.9372 11.2843 22.1407 11.4343 22.2907C11.5843 22.4407 11.7878 22.525 12 22.525H21.6C21.8122 22.525 22.0157 22.4407 22.1657 22.2907C22.3157 22.1407 22.4 21.9372 22.4 21.725C22.4 21.5128 22.3157 21.3093 22.1657 21.1593C22.0157 21.0093 21.8122 20.925 21.6 20.925H12C11.7878 20.925 11.5843 21.0093 11.4343 21.1593C11.2843 21.3093 11.2 21.5128 11.2 21.725ZM21.6 24.125H12C11.7878 24.125 11.5843 24.2093 11.4343 24.3593C11.2843 24.5093 11.2 24.7128 11.2 24.925C11.2 25.1372 11.2843 25.3407 11.4343 25.4907C11.5843 25.6407 11.7878 25.725 12 25.725H21.6C21.8122 25.725 22.0157 25.6407 22.1657 25.4907C22.3157 25.3407 22.4 25.1372 22.4 24.925C22.4 24.7128 22.3157 24.5093 22.1657 24.3593C22.0157 24.2093 21.8122 24.125 21.6 24.125ZM8.79999 20.925H7.19999C6.98782 20.925 6.78434 21.0093 6.63431 21.1593C6.48428 21.3093 6.39999 21.5128 6.39999 21.725C6.39999 21.9372 6.48428 22.1407 6.63431 22.2907C6.78434 22.4407 6.98782 22.525 7.19999 22.525H8.79999C9.01217 22.525 9.21565 22.4407 9.36568 22.2907C9.51571 22.1407 9.59999 21.9372 9.59999 21.725C9.59999 21.5128 9.51571 21.3093 9.36568 21.1593C9.21565 21.0093 9.01217 20.925 8.79999 20.925ZM8.79999 24.125H7.19999C6.98782 24.125 6.78434 24.2093 6.63431 24.3593C6.48428 24.5093 6.39999 24.7128 6.39999 24.925C6.39999 25.1372 6.48428 25.3407 6.63431 25.4907C6.78434 25.6407 6.98782 25.725 7.19999 25.725H8.79999C9.01217 25.725 9.21565 25.6407 9.36568 25.4907C9.51571 25.3407 9.59999 25.1372 9.59999 24.925C9.59999 24.7128 9.51571 24.5093 9.36568 24.3593C9.21565 24.2093 9.01217 24.125 8.79999 24.125ZM21.6 27.325H12C11.7878 27.325 11.5843 27.4093 11.4343 27.5593C11.2843 27.7093 11.2 27.9128 11.2 28.125C11.2 28.3372 11.2843 28.5407 11.4343 28.6907C11.5843 28.8407 11.7878 28.925 12 28.925H21.6C21.8122 28.925 22.0157 28.8407 22.1657 28.6907C22.3157 28.5407 22.4 28.3372 22.4 28.125C22.4 27.9128 22.3157 27.7093 22.1657 27.5593C22.0157 27.4093 21.8122 27.325 21.6 27.325ZM22.4 31.325C22.4 31.1128 22.3157 30.9093 22.1657 30.7593C22.0157 30.6093 21.8122 30.525 21.6 30.525H12C11.7878 30.525 11.5843 30.6093 11.4343 30.7593C11.2843 30.9093 11.2 31.1128 11.2 31.325C11.2 31.5372 11.2843 31.7407 11.4343 31.8907C11.5843 32.0407 11.7878 32.125 12 32.125H21.6C21.8122 32.125 22.0157 32.0407 22.1657 31.8907C22.3157 31.7407 22.4 31.5372 22.4 31.325ZM8.79999 27.325H7.19999C6.98782 27.325 6.78434 27.4093 6.63431 27.5593C6.48428 27.7093 6.39999 27.9128 6.39999 28.125C6.39999 28.3372 6.48428 28.5407 6.63431 28.6907C6.78434 28.8407 6.98782 28.925 7.19999 28.925H8.79999C9.01217 28.925 9.21565 28.8407 9.36568 28.6907C9.51571 28.5407 9.59999 28.3372 9.59999 28.125C9.59999 27.9128 9.51571 27.7093 9.36568 27.5593C9.21565 27.4093 9.01217 27.325 8.79999 27.325ZM8.79999 30.525H7.19999C6.98782 30.525 6.78434 30.6093 6.63431 30.7593C6.48428 30.9093 6.39999 31.1128 6.39999 31.325C6.39999 31.5372 6.48428 31.7407 6.63431 31.8907C6.78434 32.0407 6.98782 32.125 7.19999 32.125H8.79999C9.01217 32.125 9.21565 32.0407 9.36568 31.8907C9.51571 31.7407 9.59999 31.5372 9.59999 31.325C9.59999 31.1128 9.51571 30.9093 9.36568 30.7593C9.21565 30.6093 9.01217 30.525 8.79999 30.525ZM13.6 16.125C13.5984 15.8433 13.5216 15.5671 13.3776 15.325H15.4224C15.2784 15.5671 15.2016 15.8433 15.2 16.125C15.2 16.5493 15.3686 16.9563 15.6686 17.2564C15.9687 17.5564 16.3756 17.725 16.8 17.725C17.2243 17.725 17.6313 17.5564 17.9314 17.2564C18.2314 16.9563 18.4 16.5493 18.4 16.125C18.3984 15.8433 18.3216 15.5671 18.1776 15.325H19.2C19.4122 15.325 19.6157 15.2407 19.7657 15.0907C19.9157 14.9407 20 14.7372 20 14.525C20 14.3128 19.9157 14.1093 19.7657 13.9593C19.6157 13.8093 19.4122 13.725 19.2 13.725H11.2V12.925H18.4C18.568 12.925 18.7317 12.8722 18.868 12.774C19.0042 12.6758 19.1061 12.5372 19.1592 12.3778L20.7592 7.5778C20.7993 7.45753 20.8102 7.32947 20.791 7.20416C20.7719 7.07886 20.7232 6.95989 20.6491 6.85708C20.5749 6.75426 20.4774 6.67053 20.3646 6.6128C20.2517 6.55506 20.1268 6.52497 20 6.525H11.2V4.925C11.2 4.71283 11.1157 4.50934 10.9657 4.35931C10.8156 4.20929 10.6122 4.125 10.4 4.125H7.99999C7.78782 4.125 7.58434 4.20929 7.43431 4.35931C7.28428 4.50934 7.19999 4.71283 7.19999 4.925C7.19999 5.13717 7.28428 5.34066 7.43431 5.49069C7.58434 5.64071 7.78782 5.725 7.99999 5.725H9.59999V14.525C9.59999 14.7372 9.68428 14.9407 9.83431 15.0907C9.98434 15.2407 10.1878 15.325 10.4 15.325H10.6224C10.4784 15.5671 10.4016 15.8433 10.4 16.125C10.4 16.5493 10.5686 16.9563 10.8686 17.2564C11.1687 17.5564 11.5756 17.725 12 17.725C12.4243 17.725 12.8313 17.5564 13.1314 17.2564C13.4314 16.9563 13.6 16.5493 13.6 16.125ZM17.8232 11.325H11.2V8.125H18.8904L17.8232 11.325Z" fill="#EC801C"/>
</g>
</svg>
