<svg width="72" height="75" viewBox="0 0 72 75" fill="none" xmlns="http://www.w3.org/2000/svg">
<path d="M21.7398 17.2625C19.3848 22.3437 18.2933 32.1316 19.0463 40.1299L26.8843 34.1722C26.9525 31.1721 25.4812 21.4342 23.4975 17.2548C23.1375 16.4964 22.0931 16.5005 21.7398 17.2625Z" fill="#D3D3D3"/>
<path d="M28.8664 37.5459V17.5536C28.8664 17.0912 28.289 16.9343 28.0838 17.341C24.0982 25.2407 21.4415 32.8253 19.9658 40.1298L28.8664 37.5459Z" fill="#EAEAEA"/>
<path d="M18.4688 40.13C21.3049 36.3068 25.4055 32.6028 30.1873 28.9629C30.4839 28.7371 30.8844 28.9749 30.8844 29.3777V40.13L24.6765 41.712L18.4688 40.13Z" fill="#EDEDED"/>
<path d="M39.8086 1.61233V8.12159H45.6528V1.61233C45.6528 1.36452 45.5653 1.12687 45.4096 0.951642C45.2538 0.776418 45.0426 0.677979 44.8223 0.677979H40.6391C40.4189 0.677979 40.2076 0.776418 40.0519 0.951642C39.8961 1.12687 39.8086 1.36452 39.8086 1.61233Z" fill="#8D8D8D"/>
<path d="M44.8226 0.677979H42.209C42.4293 0.677979 42.6405 0.776413 42.7963 0.951633C42.9521 1.12685 43.0396 1.36451 43.0397 1.61233V8.12159H45.6532V1.61233C45.6531 1.36453 45.5656 1.1269 45.4099 0.951689C45.2541 0.776474 45.0429 0.67802 44.8226 0.677979Z" fill="#939393"/>
<path d="M35.7638 20.865C36.0733 18.9133 37.0388 17.1706 38.46 15.9985L39.3333 15.2803C39.4807 15.1588 39.6006 15 39.6832 14.8166C39.7658 14.6333 39.8089 14.4306 39.8089 14.2251V8.12158H45.6531V14.2251C45.6531 14.6411 45.8302 15.0335 46.1283 15.2803L47.0016 15.9985C48.4231 17.1705 49.3889 18.9132 49.6988 20.865L42.7311 22.4469L35.7638 20.865ZM49.8055 33.991V44.6902C49.8055 45.168 49.4625 45.554 49.0378 45.554L42.7315 47.1361L36.4238 45.554C36.323 45.554 36.2232 45.5316 36.1302 45.4882C36.0371 45.4447 35.9526 45.3811 35.8814 45.3008C35.8102 45.2206 35.7537 45.1254 35.7153 45.0206C35.6768 44.9159 35.6571 44.8036 35.6572 44.6902V33.991H49.8055Z" fill="#E4E4E4"/>
<path d="M46.8223 20.865C46.3683 19.372 45.5182 18.0716 44.3867 17.1392L43.5148 16.4209C43.3673 16.2996 43.2473 16.1408 43.1646 15.9574C43.0819 15.774 43.0389 15.5713 43.0391 15.3657V8.12158H45.6526V14.2251C45.6526 14.6411 45.8296 15.0335 46.1277 15.2803L47.001 15.9985C48.4225 17.1705 49.3884 18.9132 49.6982 20.865H46.8223ZM49.8048 33.991V44.6902C49.8048 45.168 49.4618 45.554 49.0371 45.554H46.4243C46.8476 45.554 47.1907 45.168 47.1907 44.6902V33.991H49.8048Z" fill="#E0E0E0"/>
<path d="M35.6572 22.2184V33.9909L42.2787 36.6208C42.561 36.7329 42.8689 36.7331 43.1513 36.6214L49.8056 33.9909V22.2184C49.8056 21.7606 49.7691 21.308 49.6989 20.865H35.764C35.6936 21.308 35.6572 21.7606 35.6572 22.2184Z" fill="#EEEEEE"/>
<path d="M49.75 21.2572C49.7356 21.126 49.7183 20.9952 49.6979 20.865H46.8193C47.0645 21.6677 47.1901 22.5105 47.1909 23.3592V35.024L49.8048 33.9908V22.2183C49.803 21.897 49.7847 21.5761 49.75 21.2572Z" fill="#F3F3F3"/>
<path d="M9.4075 40.1301H39.0158C39.5894 40.1301 39.8337 40.9507 39.3758 41.3394L34.8907 45.146C34.5789 45.4106 34.1989 45.5538 33.8083 45.5538L24.2117 47.1358L14.615 45.5538C14.2243 45.5538 13.8444 45.4106 13.5326 45.146L9.0475 41.3394C8.58963 40.9507 8.83389 40.1301 9.4075 40.1301Z" fill="#929292"/>
<path d="M58.7046 43.3316C58.4165 43.3316 58.1401 43.2029 57.9364 42.9736C57.7326 42.7444 57.6182 42.4335 57.6182 42.1093V31.1095C57.6182 30.7853 57.7326 30.4744 57.9364 30.2452C58.1401 30.016 58.4165 29.8872 58.7046 29.8872C58.9928 29.8872 59.2691 30.016 59.4729 30.2452C59.6766 30.4744 59.7911 30.7853 59.7911 31.1095V42.1093C59.7911 42.4335 59.6766 42.7444 59.4729 42.9736C59.2691 43.2029 58.9928 43.3316 58.7046 43.3316Z" fill="#B7B7B7"/>
<path d="M55.5006 21.8962L54.3247 30.5411C53.9809 33.0693 55.72 35.3479 57.9934 35.3479H59.4154C61.6888 35.3479 63.4279 33.0693 63.084 30.5411L61.9081 21.8962C61.8801 21.6911 61.7878 21.5039 61.6478 21.3687C61.5078 21.2335 61.3294 21.1592 61.1449 21.1592H56.2637C56.0792 21.1591 55.9007 21.2334 55.7607 21.3686C55.6208 21.5039 55.5285 21.6911 55.5006 21.8962ZM58.7044 40.8379C56.5317 40.8379 54.7451 42.6974 54.5336 45.079C54.5111 45.3323 54.6847 45.5536 54.911 45.5536L58.8205 47.1357L62.4977 45.5536C62.724 45.5536 62.8976 45.3323 62.8751 45.079C62.6635 42.6974 60.877 40.8379 58.7044 40.8379Z" fill="#C3C3C3"/>
<path d="M71.3381 67.446C67.5797 70.157 62.5317 71.0872 58.076 69.7493C52.1215 74.5321 42.7795 75.8521 36.0001 72.3229C29.2208 75.8521 19.8787 74.5321 13.9241 69.7493C9.46842 71.0871 4.42055 70.157 0.662062 67.446C0.440177 67.2857 0.261672 67.0599 0.145996 66.7932C0.0303206 66.5266 -0.0180876 66.2294 0.00604628 65.9339L1.30444 49.9723C1.50806 47.4694 3.37387 45.5537 5.60798 45.5537H66.3922C68.6263 45.5537 70.4921 47.4694 70.6957 49.9723L71.9941 65.9339C72.0183 66.2294 71.9699 66.5266 71.8542 66.7932C71.7385 67.0599 71.56 67.2857 71.3381 67.446Z" fill="#EDEDED"/>
<path d="M71.9936 65.9338L70.7551 50.709C70.6887 50.4587 70.8791 47.8384 68.6814 46.2916C67.995 45.8082 67.2014 45.5524 66.3916 45.5535H5.60759C3.37348 45.5535 1.50767 47.4692 1.30405 49.9721L1.24414 50.709C2.06398 49.5823 3.30852 48.8704 4.69044 48.8704H66.3387C66.7492 48.8704 67.0987 49.197 67.1836 49.6489C67.227 49.8802 67.2577 50.1144 67.2753 50.35L68.5737 67.6761C68.6209 68.3059 68.3861 68.9144 67.9644 69.2751C69.1588 68.8089 70.295 68.1976 71.3325 67.4497C71.5556 67.2894 71.7352 67.0633 71.8518 66.796C71.9684 66.5286 72.0174 66.2304 71.9936 65.9338Z" fill="#D3D3D3"/>
<path d="M35.9993 58.7153C35.7111 58.7153 35.4348 58.8441 35.231 59.0733C35.0273 59.3026 34.9128 59.6134 34.9128 59.9376V72.8343C35.28 72.6777 35.6423 72.5071 35.9993 72.3229C36.3562 72.5072 36.7186 72.6779 37.0859 72.8345V59.9378C37.0859 59.7772 37.0578 59.6183 37.0032 59.4699C36.9486 59.3216 36.8686 59.1868 36.7676 59.0733C36.6667 58.9598 36.5469 58.8698 36.4151 58.8083C36.2833 58.7469 36.142 58.7153 35.9993 58.7153ZM58.0753 60.0034C57.7871 60.0034 57.5108 60.1322 57.307 60.3614C57.1033 60.5906 56.9888 60.9015 56.9888 61.2257V70.5564C57.3592 70.3016 57.7216 70.0323 58.0753 69.749C58.4339 69.8568 58.7965 69.9481 59.1619 70.0267V61.2257C59.1618 60.9015 59.0473 60.5907 58.8435 60.3615C58.6398 60.1322 58.3634 60.0035 58.0753 60.0034ZM13.9234 60.0034C13.6352 60.0034 13.3589 60.1322 13.1551 60.3614C12.9514 60.5906 12.8369 60.9015 12.8369 61.2257V70.0267C13.2019 69.9489 13.5643 69.8563 13.9234 69.749C14.2771 70.0323 14.6395 70.3016 15.0099 70.5564V61.2257C15.0098 60.9015 14.8953 60.5907 14.6916 60.3615C14.4878 60.1323 14.2115 60.0035 13.9234 60.0034Z" fill="#D3D3D3"/>
</svg>
