<svg id="Layer_1" height="512" viewBox="0 0 512 512" width="512" xmlns="http://www.w3.org/2000/svg"><g><g><g><g><circle cx="416" cy="96" fill="#faa019" r="48"/></g></g><g><path d="m416 56c-22.091 0-40 17.909-40 40h24c8.837 0 16-7.163 16-16z" fill="#ffd205"/></g><g><g><path d="m416 40c-4.418 0-8-3.582-8-8v-8c0-4.418 3.582-8 8-8s8 3.582 8 8v8c0 4.418-3.582 8-8 8z" fill="#faa019"/></g><g><path d="m416 176c-4.418 0-8-3.582-8-8v-8c0-4.418 3.582-8 8-8s8 3.582 8 8v8c0 4.418-3.582 8-8 8z" fill="#faa019"/></g></g><g><g><path d="m370.745 58.745c-2.048 0-4.095-.781-5.656-2.343l-5.657-5.657c-3.125-3.124-3.125-8.189-.001-11.313 3.125-3.125 8.19-3.125 11.313 0l5.657 5.657c3.125 3.124 3.125 8.189.001 11.313-1.562 1.562-3.609 2.343-5.657 2.343z" fill="#faa019"/></g><g><path d="m466.912 154.912c-2.048 0-4.095-.781-5.656-2.343l-5.657-5.657c-3.125-3.124-3.125-8.189-.001-11.313 3.125-3.125 8.19-3.125 11.313 0l5.657 5.657c3.125 3.124 3.125 8.189.001 11.313-1.562 1.561-3.609 2.343-5.657 2.343z" fill="#faa019"/></g></g><g><g><path d="m352 104h-8c-4.418 0-8-3.582-8-8s3.582-8 8-8h8c4.418 0 8 3.582 8 8s-3.582 8-8 8z" fill="#faa019"/></g><g><path d="m488 104h-8c-4.418 0-8-3.582-8-8s3.582-8 8-8h8c4.418 0 8 3.582 8 8s-3.582 8-8 8z" fill="#faa019"/></g></g><g><g><path d="m365.088 154.912c-2.048 0-4.095-.781-5.657-2.344-3.124-3.124-3.124-8.189.001-11.313l5.657-5.657c3.125-3.125 8.19-3.124 11.313 0 3.124 3.124 3.124 8.189-.001 11.313l-5.657 5.657c-1.561 1.563-3.609 2.344-5.656 2.344z" fill="#faa019"/></g><g><path d="m461.255 58.745c-2.048 0-4.095-.781-5.657-2.344-3.124-3.124-3.124-8.189.001-11.313l5.657-5.657c3.124-3.125 8.189-3.124 11.313 0s3.124 8.189-.001 11.313l-5.657 5.657c-1.561 1.563-3.609 2.344-5.656 2.344z" fill="#faa019"/></g></g></g><path d="m423.155 252.422-41.889-83.777c-15.001-30.005-45.161-48.645-78.708-48.645h-198.558c-4.418 0-8 3.582-8 8s3.582 8 8 8h108.686l-48 48h-124.686c-4.418 0-8 3.582-8 8s3.582 8 8 8h120v88c0 4.418 3.582 8 8 8s8-3.582 8-8v-92.686l48-48v140.686c0 4.418 3.582 8 8 8s8-3.582 8-8v-152h62.558c27.448 0 52.124 15.251 64.398 39.801l41.889 83.777c1.976 3.952 6.782 5.553 10.733 3.578 3.951-1.977 5.554-6.782 3.577-10.734z" fill="#463c4b"/><g><path d="m352 296c-22.056 0-40-17.944-40-40s17.944-40 40-40 40 17.944 40 40-17.944 40-40 40zm0-64c-13.233 0-24 10.766-24 24s10.767 24 24 24 24-10.766 24-24-10.767-24-24-24z" fill="#463c4b"/></g><g><g><path d="m210.667 304h82.667v-64c0-8.837-7.163-16-16-16h-50.667c-8.837 0-16 7.163-16 16z" fill="#faa019"/></g><g><path d="m210.667 304h32v-64c0-8.837-7.163-16-16-16-8.837 0-16 7.163-16 16z" fill="#ffd205"/></g></g><g><g><path d="m128 304h82.667v-64c0-8.837-7.163-16-16-16h-50.667c-8.837 0-16 7.163-16 16z" fill="#faa019"/></g><g><path d="m128 304h32v-64c0-8.837-7.163-16-16-16-8.837 0-16 7.163-16 16z" fill="#ffd205"/></g></g><path d="m295.155 252.422-41.889-83.777c-15.001-30.005-45.161-48.645-78.708-48.645h-70.558c-2.122 0-4.156.843-5.657 2.343l-64 64c-1.5 1.5-2.343 3.535-2.343 5.657v64c0 4.418 3.582 8 8 8s8-3.582 8-8v-60.686l48-48v140.686c0 4.418 3.582 8 8 8s8-3.582 8-8v-152h62.558c27.448 0 52.124 15.251 64.398 39.801l41.889 83.777c1.401 2.803 4.227 4.424 7.161 4.424 1.202 0 2.424-.272 3.572-.846 3.951-1.977 5.554-6.782 3.577-10.734z" fill="#555a6e"/><g><path d="m448 400h-32c-26.51 0-48-21.49-48-48 0-26.51 21.49-48 48-48h32c26.51 0 48 21.49 48 48 0 26.51-21.49 48-48 48z" fill="#463c4b"/></g><g><circle cx="416" cy="352" fill="#555a6e" r="48"/></g><g><circle cx="416" cy="352" fill="#463c4b" r="32"/></g><g><path d="m80 368h336c8.837 0 16-7.163 16-16v-64h-368v64c0 8.837 7.163 16 16 16z" fill="#463c4b"/></g><g><path d="m96 400h-32c-26.51 0-48-21.49-48-48 0-26.51 21.49-48 48-48h32c26.51 0 48 21.49 48 48 0 26.51-21.49 48-48 48z" fill="#463c4b"/></g><g><circle cx="64" cy="352" fill="#555a6e" r="48"/></g><g><circle cx="64" cy="352" fill="#463c4b" r="32"/></g><g><circle cx="64" cy="352" fill="#8caac8" r="16"/></g><g><path d="m458.667 288h-186.667v-32h178.667c8.837 0 16 7.163 16 16v8c0 4.418-3.582 8-8 8z" fill="#4b8c41"/></g><g><path d="m368 256h-96c-35.533 0-66.555 19.306-83.154 48h-41.692c-16.599-28.694-47.621-48-83.154-48h-32c-8.837 0-16 7.164-16 16v8c0 4.418 3.582 8 8 8h40c35.346 0 64 28.654 64 64h80c0-35.346 28.654-64 64-64h104c4.418 0 8-3.582 8-8v-8c0-8.836-7.164-16-16-16z" fill="#91c83c"/></g><g><path d="m401.012 368h-49.012l21.458-25.749c11.981-14.377 18.542-32.5 18.542-51.215v-3.036h64v3.036c0 18.715-6.561 36.838-18.542 51.215l-11.863 14.235c-6.08 7.296-15.086 11.514-24.583 11.514z" fill="#555a6e"/></g><g><path d="m304 400h-32c-26.51 0-48-21.49-48-48 0-26.51 21.49-48 48-48h32c26.51 0 48 21.49 48 48 0 26.51-21.49 48-48 48z" fill="#463c4b"/></g><g><circle cx="272" cy="352" fill="#555a6e" r="48"/></g><g><circle cx="272" cy="352" fill="#463c4b" r="32"/></g><g><circle cx="272" cy="352" fill="#8caac8" r="16"/></g><g><path d="m480 496h-448c-8.837 0-16-7.163-16-16v-64c0-8.837 7.163-16 16-16h448c8.837 0 16 7.163 16 16v64c0 8.837-7.163 16-16 16z" fill="#ffd205"/></g><g><g><circle cx="432" cy="472" fill="#faa019" r="8"/></g><g><circle cx="416" cy="440" fill="#faa019" r="8"/></g><g><circle cx="484" cy="452" fill="#faa019" r="4"/></g><g><circle cx="396" cy="484" fill="#faa019" r="4"/></g><g><circle cx="380" cy="412" fill="#faa019" r="4"/></g><g><circle cx="352" cy="464" fill="#faa019" r="8"/></g><g><circle cx="468" cy="420" fill="#faa019" r="4"/></g></g><g><g><circle cx="272" cy="472" fill="#faa019" r="8"/></g><g><circle cx="256" cy="440" fill="#faa019" r="8"/></g><g><circle cx="324" cy="452" fill="#faa019" r="4"/></g><g><circle cx="236" cy="484" fill="#faa019" r="4"/></g><g><circle cx="220" cy="412" fill="#faa019" r="4"/></g><g><circle cx="192" cy="464" fill="#faa019" r="8"/></g></g><g><g><circle cx="120" cy="472" fill="#faa019" r="8"/></g><g><circle cx="104" cy="440" fill="#faa019" r="8"/></g><g><circle cx="172" cy="452" fill="#faa019" r="4"/></g><g><circle cx="84" cy="484" fill="#faa019" r="4"/></g><g><circle cx="68" cy="412" fill="#faa019" r="4"/></g><g><circle cx="40" cy="464" fill="#faa019" r="8"/></g></g></g></svg>