<svg height="512" viewBox="0 0 128 128" width="512" xmlns="http://www.w3.org/2000/svg"><g><g><g><g><path d="m89.565 70.586a1.752 1.752 0 0 0 1.635-1.135l16.567-44.114a1.75 1.75 0 1 0 -3.276-1.23l-16.564 44.113a1.751 1.751 0 0 0 1.638 2.366z" fill="#68b4f2"/><path d="m121.051 26.269a5.23 5.23 0 0 0 -4.643-5.758l-10.166-1.089-3.8 10.113 12.85 1.377a5.23 5.23 0 0 0 5.759-4.643z" fill="#327fcc"/></g><g><path d="m93.873 81.37a1.752 1.752 0 0 0 1.639-1.136l13.5-35.934a1.75 1.75 0 1 0 -3.276-1.231l-13.5 35.931a1.753 1.753 0 0 0 1.637 2.366z" fill="#68b4f2"/><path d="m122.168 45.582a5.23 5.23 0 0 0 -4.643-5.757l-10.166-1.09-3.8 10.113 12.85 1.377a5.229 5.229 0 0 0 5.759-4.643z" fill="#327fcc"/></g></g><g><path d="m88.758 117.441 16.809-45.2a5 5 0 0 0 -2.944-6.43l-13.066-4.858a5 5 0 0 0 -6.429 2.947l-21.123 56.8h22.067a5 5 0 0 0 4.686-3.259z" fill="#feac00"/><path d="m88.247 63.091h7v23.94h-7z" fill="#fff031" transform="matrix(.349 -.937 .937 .349 -10.585 134.892)"/></g></g><g><path d="m43.323 76.23c31.421 11.591 37.512-19.554 37.512-19.554-23.635 14.805-24.847-20.707-24.847-20.707h-25.338s-1.215 35.512-24.838 20.707c0 0 6.082 31.145 37.511 19.554z" fill="#505f6f"/><g><path d="m74.492 83.42-6.36-2.5-8.5-3.33-16.31-6.41-31.171 12.24a9.993 9.993 0 0 0 -6.351 9.31v27.97h75.031v-27.97a9.983 9.983 0 0 0 -6.339-9.31z" fill="#3e93d7"/><path d="m45.073 105v-22.683a1.75 1.75 0 0 0 -3.5 0v22.683a1.75 1.75 0 0 0 3.5 0z" fill="#327fcc"/><g fill="#68b4f2"><path d="m33.687 74.962-6.673 2.621 5.764 17.597 10.545-12.863z"/><path d="m52.96 74.962-9.637 7.355 10.546 12.863 5.764-17.597z"/></g><path d="m21.5 103.25a1.752 1.752 0 0 0 -1.75 1.75v15.7h3.5v-15.7a1.746 1.746 0 0 0 -1.75-1.75z" fill="#327fcc"/><path d="m68.135 80.918-8.5-3.329 5.6 43.109h8.07z" fill="#feac00"/></g><path d="m52.96 65.089h-19.273v9.873l9.636 7.355 9.637-7.355z" fill="#fac49a"/><g><g fill="#fac49a"><circle cx="22.733" cy="41.79" r="5.822" transform="matrix(.383 -.924 .924 .383 -24.576 46.8)"/><circle cx="63.914" cy="41.79" r="5.822" transform="matrix(.707 -.707 .707 .707 -10.83 57.434)"/></g><g><path d="m43.324 68.517a18.682 18.682 0 0 0 18.681-18.682v-17.143h-37.363v17.143a18.682 18.682 0 0 0 18.681 18.682z" fill="#f8cfa9"/><g fill="#8c745f"><path d="m47.456 60.333a1.75 1.75 0 1 0 -2.265-2.669 2.466 2.466 0 0 1 -3.735 0 1.75 1.75 0 0 0 -2.265 2.669 5.885 5.885 0 0 0 8.265 0z"/><g><path d="m38.017 48.908v-2.591a1.75 1.75 0 0 0 -3.5 0v2.591a1.75 1.75 0 0 0 3.5 0z"/><path d="m52.13 48.908v-2.591a1.75 1.75 0 0 0 -3.5 0v2.591a1.75 1.75 0 0 0 3.5 0z"/></g></g></g><g><ellipse cx="43.324" cy="30.857" fill="#68b4f2" rx="23.147" ry="9.992"/><path d="m43.322 7.3c-6.5 5.97-9.63 13.56-9.63 23.15h19.269c0-9.59-3.139-17.18-9.639-23.15z" fill="#5ba2db"/><g fill="#327fcc"><path d="m43.322 7.3a23.142 23.142 0 0 0 -23.14 23.15h13.51c0-9.59 3.13-17.18 9.63-23.15z"/><path d="m66.471 30.45a23.143 23.143 0 0 0 -23.149-23.15c6.5 5.97 9.639 13.56 9.639 23.15z"/></g></g></g></g></g></svg>