<svg height="464pt" viewBox="0 0 464 464" width="464pt" xmlns="http://www.w3.org/2000/svg"><path d="m224 216h16v24h-16zm0 0" fill="#f28e22"/><g fill="#4398d1"><path d="m136 88c0 17.671875-14.328125 32-32 32s-32-14.328125-32-32 14.328125-32 32-32 32 14.328125 32 32zm0 0"/><path d="m32 184v120h32v160h80v-160h32v-120c0-17.671875-14.328125-32-32-32h-80c-17.671875 0-32 14.328125-32 32zm0 0"/><path d="m32 184v120h32v160h80v-160h32v-120c0-17.671875-14.328125-32-32-32h-80c-17.671875 0-32 14.328125-32 32zm0 0"/></g><path d="m56 192h16v112h-16zm0 0" fill="#2e7db3"/><path d="m136 192h16v112h-16zm0 0" fill="#2e7db3"/><path d="m0 264h464v200h-464zm0 0" fill="#dbdbd9"/><path d="m392 88c0 17.671875-14.328125 32-32 32s-32-14.328125-32-32 14.328125-32 32-32 32 14.328125 32 32zm0 0" fill="#87ced9"/><path d="m288 184v120h32v136l-16 24h96v-160h32v-120c0-17.671875-14.328125-32-32-32h-80c-17.671875 0-32 14.328125-32 32zm0 0" fill="#87ced9"/><path d="m420.9375 160c-25.761719 54.667969-59.808594 105.027344-100.9375 149.304688v130.695312l-16 24h96v-160h32v-120c-.03125-9.226562-4.066406-17.984375-11.0625-24zm0 0" fill="#71c4d1"/><path d="m352 328h16v136h-16zm0 0" fill="#5eb3d1"/><path d="m312 192h16v112h-16zm0 0" fill="#5eb3d1"/><path d="m392 192h16v112h-16zm0 0" fill="#5eb3d1"/><path d="m272 328h-16v-32c0-4.417969-3.582031-8-8-8h-40c-4.417969 0-8 3.582031-8 8v32h-16c-8.835938 0-16 7.164062-16 16v88c-6.757812-.050781-12.820312 4.148438-15.148438 10.496094-2.324218 6.34375-.410156 13.46875 4.78125 17.792968 5.191407 4.328126 12.542969 4.925782 18.367188 1.496094 2.421875 1.433594 5.183594 2.199219 8 2.214844h88c8.835938 0 16-7.164062 16-16v-104c0-8.835938-7.164062-16-16-16zm-56-24h24v24h-24zm0 0" fill="#cfcfcd"/><path d="m296 64c0 35.347656-28.652344 64-64 64s-64-28.652344-64-64 28.652344-64 64-64 64 28.652344 64 64zm0 0" fill="#f05d46"/><path d="m280 64c0 26.507812-21.492188 48-48 48s-48-21.492188-48-48 21.492188-48 48-48 48 21.492188 48 48zm0 0" fill="#bdc0c2"/><path d="m272 64c0 22.089844-17.910156 40-40 40s-40-17.910156-40-40 17.910156-40 40-40 40 17.910156 40 40zm0 0" fill="#cfcfcd"/><path d="m232 72c-4.417969 0-8-3.582031-8-8v-40h16v29.753906l22.0625-5.515625 3.875 15.523438-32 8c-.632812.15625-1.285156.238281-1.9375.238281zm0 0" fill="#8a4234"/><path d="m232 232c13.253906 0 24 10.746094 24 24v8h-48v-8c0-13.253906 10.746094-24 24-24zm0 0" fill="#ffc14d"/><path d="m232 232c-2.730469.027344-5.4375.523438-8 1.472656 9.570312 3.355469 15.980469 12.386719 16 22.527344v8h16v-8c0-13.253906-10.746094-24-24-24zm0 0" fill="#ffb730"/><path d="m24 320h16v48h-16zm0 0" fill="#f0f0ed"/><path d="m24 288h16v16h-16zm0 0" fill="#f0f0ed"/><path d="m432 264v40h-32v160h16v-144h32v-56zm0 0" fill="#cfcfcd"/><path d="m168 328h88c8.835938 0 16 7.164062 16 16v104c0 8.835938-7.164062 16-16 16h-88c-8.835938 0-16-7.164062-16-16v-104c0-8.835938 7.164062-16 16-16zm0 0" fill="#f05d46"/><path d="m240 328h-16v-24h-24v24h-16v-32c0-4.417969 3.582031-8 8-8h40c4.417969 0 8 3.582031 8 8zm0 0" fill="#8a4234"/><path d="m152 440.335938v7.664062c0 8.835938 7.164062 16 16 16h88c8.835938 0 16-7.164062 16-16v-104c-.007812-2-.394531-3.976562-1.136719-5.832031-27.214843 46.28125-69.019531 82.214843-118.863281 102.167969zm0 0" fill="#e3523b"/><path d="m184 352h16v88h-16zm0 0" fill="#d64d37"/><path d="m224 352h16v88h-16zm0 0" fill="#d64d37"/><path d="m168 448c0 8.835938-7.164062 16-16 16s-16-7.164062-16-16 7.164062-16 16-16 16 7.164062 16 16zm0 0" fill="#8a4234"/><path d="m72 242.9375v21.0625h64v-71.695312c-19.898438 18.613281-41.304688 35.550781-64 50.632812zm0 0" fill="#388bc2"/><path d="m136.320312 192h15.679688v72h24v-80c-.007812-8.945312-3.78125-17.46875-10.398438-23.488281-9.054687 11.128906-18.835937 21.648437-29.28125 31.488281zm0 0" fill="#388bc2"/></svg>