<svg id="Capa_1" enable-background="new 0 0 512 512" height="512" viewBox="0 0 512 512" width="512" xmlns="http://www.w3.org/2000/svg"><g><path d="m285.166 306.619c-4.268 0-7.726-3.459-7.726-7.726v-153.962c0-4.267 3.459-7.726 7.726-7.726s7.726 3.459 7.726 7.726v153.961c0 4.268-3.458 7.727-7.726 7.727z" fill="#655e67"/><path d="m342.583 257.353v-77.169c0-3.865 3.133-6.997 6.997-6.997h111.572c3.865 0 6.997 3.133 6.997 6.997v77.169z" fill="#655e67"/><path d="m461.153 173.186h-27.469c3.865 0 6.998 3.133 6.998 6.997v49.583c0 4.983-4.04 9.023-9.023 9.023h-89.076v18.564h125.567v-77.169c.001-3.865-3.132-6.998-6.997-6.998z" fill="#544f56"/><path d="m322.336 262.057v36.836h166.062v-36.836c0-2.598-2.106-4.704-4.704-4.704h-156.654c-2.598 0-4.704 2.106-4.704 4.704z" fill="#655e67"/><path d="m483.694 257.353h-27.468c2.598 0 4.704 2.106 4.704 4.704v36.836h27.469v-36.836c-.001-2.598-2.107-4.704-4.705-4.704z" fill="#544f56"/><path d="m303.962 100.457h-37.593c-14.392 0-26.101 11.708-26.101 26.1s11.708 26.101 26.101 26.101h37.593c14.392 0 26.101-11.709 26.101-26.101-.001-14.392-11.709-26.1-26.101-26.1z" fill="#80b6fc"/><path d="m32.085 336.02v134.695c0 5.403 4.38 9.783 9.783 9.783h428.265c5.403 0 9.783-4.38 9.783-9.783v-134.695z" fill="#eec06b"/><path d="m32.085 336.02v28.187h402.437c10.337 0 18.717 8.38 18.717 18.717v97.573h16.894c5.403 0 9.783-4.38 9.783-9.783v-134.694z" fill="#e9a761"/><g fill="#655e67"><path d="m158.999 206.952c-3.125 0-6.065-1.909-7.231-5.006l-21.119-56.087c-1.504-3.993.514-8.45 4.508-9.954 3.993-1.504 8.449.515 9.953 4.508l21.119 56.087c1.504 3.993-.514 8.45-4.508 9.954-.897.338-1.818.498-2.722.498z"/><path d="m77.653 206.952c-.905 0-1.825-.16-2.721-.497-3.994-1.504-6.012-5.96-4.508-9.954l21.12-56.087c1.503-3.994 5.962-6.01 9.953-4.508 3.994 1.504 6.012 5.96 4.508 9.954l-21.12 56.087c-1.167 3.096-4.108 5.005-7.232 5.005z"/></g><path d="m198.422 205.48h-160.192l19.942 82.782c1.502 6.236 7.081 10.63 13.495 10.63h93.317c6.414 0 11.993-4.394 13.495-10.63z" fill="#94d4a2"/><path d="m45.836 237.052h144.98l7.606-31.572h-160.192z" fill="#6dc17d"/><path d="m195.43 216.844h-154.208c-9.731 0-17.62-7.889-17.62-17.62s7.889-17.62 17.62-17.62h154.208c9.731 0 17.62 7.889 17.62 17.62s-7.889 17.62-17.62 17.62z" fill="#94d4a2"/><g fill="#6dc17d"><path d="m98.048 266.233c-4.268 0-7.726-3.459-7.726-7.726v-6.32c0-4.267 3.459-7.726 7.726-7.726 4.268 0 7.726 3.459 7.726 7.726v6.32c.001 4.267-3.458 7.726-7.726 7.726z"/><path d="m138.604 266.233c-4.268 0-7.726-3.459-7.726-7.726v-6.32c0-4.267 3.459-7.726 7.726-7.726s7.726 3.459 7.726 7.726v6.32c0 4.267-3.459 7.726-7.726 7.726z"/></g><path d="m0 304.348v26.217c0 3.013 2.442 5.455 5.455 5.455h501.089c3.013 0 5.455-2.442 5.455-5.455v-26.217c0-3.013-2.442-5.455-5.455-5.455h-501.089c-3.013 0-5.455 2.442-5.455 5.455z" fill="#80b6fc"/><g fill="#655e67"><path d="m183.804 61.917-26.625-28.011c-2.941-3.093-7.83-3.217-10.924-.277-3.093 2.94-3.217 7.83-.278 10.923l19.103 20.098h-111.935c-4.268 0-7.726 3.459-7.726 7.726s3.459 7.726 7.726 7.726h111.931l-19.098 20.092c-2.94 3.093-2.815 7.983.278 10.923 1.495 1.421 3.409 2.126 5.322 2.126 2.043 0 4.082-.805 5.602-2.403l26.624-28.01c5.574-5.864 5.574-15.05 0-20.913z"/><path d="m279.561 422.353c0-12.031-9.789-21.819-21.82-21.819h-3.483c-3.511 0-6.367-2.856-6.367-6.367s2.856-6.367 6.367-6.367h15.045c4.268 0 7.726-3.459 7.726-7.726s-3.459-7.726-7.726-7.726h-5.581v-3.743c0-4.267-3.459-7.726-7.726-7.726s-7.726 3.459-7.726 7.726v4.598c-9.126 2.611-15.832 11.011-15.832 20.964 0 12.031 9.789 21.819 21.82 21.819h3.483c3.511 0 6.367 2.856 6.367 6.367s-2.856 6.367-6.367 6.367h-1.695c-.017 0-.033-.003-.05-.003s-.033.003-.05.003h-13.251c-4.268 0-7.726 3.459-7.726 7.726s3.459 7.726 7.726 7.726h5.574v3.74c0 4.267 3.459 7.726 7.726 7.726s7.726-3.459 7.726-7.726v-4.594c9.131-2.609 15.84-11.01 15.84-20.965z"/></g></g></svg>