<svg className="svg-icon" style="width: 1em;height: 1em;vertical-align: middle;fill: currentColor;overflow: hidden;" viewBox="0 0 1024 1024" version="1.1" xmlns="http://www.w3.org/2000/svg"><path d="M512 0C229.2 0 0 229.2 0 512s229.2 512 512 512 512-229.2 512-512S794.8 0 512 0z m197.7 424.4L492 642c-11.7 11.7-30.7 11.7-42.4 0-0.2-0.2-0.3-0.3-0.4-0.5-0.2-0.1-0.3-0.3-0.5-0.4L314.3 506.8c-11.7-11.7-11.7-30.7 0-42.4s30.7-11.7 42.4 0l114 114L667.2 382c11.7-11.7 30.7-11.7 42.4 0 11.8 11.7 11.8 30.7 0.1 42.4z" fill="#448BFB" /></svg>
