<svg className="svg-icon" style="width: 1em; height: 1em;vertical-align: middle;fill: currentColor;overflow: hidden;" viewBox="0 0 1024 1024" version="1.1" xmlns="http://www.w3.org/2000/svg"><path d="M256 192a32 32 0 0 1 0-64h512a32 32 0 0 1 0 64H256z" fill="#2B82D8" /><path d="M352 192v128a160 160 0 0 0 320 0V192H352zM288 128h448v192a224 224 0 1 1-448 0V128z" fill="#2B82D8" /><path d="M384 896h352v-144a176 176 0 1 0-352 0V896z" fill="#CAE705" /><path d="M256 832a32 32 0 0 0 0 64h512a32 32 0 0 0 0-64H256z" fill="#2B82D8" /><path d="M352 832v-128a160 160 0 0 1 320 0v128H352z m-64 64h448v-192a224 224 0 1 0-448 0v192z" fill="#2B82D8" /><path d="M576 864a32 32 0 0 0 64 0v-128a32 32 0 0 0-64 0v128z" fill="#2B82D8" /></svg>
