<svg width="56" height="56" viewBox="0 0 56 56" fill="none" xmlns="http://www.w3.org/2000/svg">
<circle cx="28" cy="28" r="28" fill="#F1F1F1"/>
<path d="M37.9925 32.1283C38.489 31.7433 38.8913 31.2502 39.1687 30.6865C39.4462 30.1228 39.5915 29.5033 39.5938 28.875C39.5924 27.7731 39.154 26.7168 38.3749 25.9376C37.5957 25.1585 36.5394 24.7201 35.4375 24.7188C34.6133 24.7188 33.8468 24.9672 33.1992 25.3837C32.5298 24.4751 31.614 23.7773 30.5603 23.373C31.0552 22.9881 31.4561 22.4957 31.7326 21.9329C32.0091 21.3702 32.154 20.752 32.1562 20.125C32.1562 17.8325 30.2925 15.9688 28 15.9688C25.7075 15.9688 23.8438 17.8325 23.8438 20.125C23.8438 21.4462 24.4738 22.6118 25.4398 23.373C24.386 23.7773 23.4702 24.4751 22.8007 25.3837C22.1343 24.951 21.3571 24.7201 20.5625 24.7188C19.4606 24.7201 18.4043 25.1585 17.6251 25.9376C16.846 26.7168 16.4076 27.7731 16.4062 28.875C16.4062 30.198 17.0398 31.367 18.0075 32.1283C16.895 32.555 15.9376 33.3085 15.2614 34.2896C14.5852 35.2706 14.2217 36.4334 14.2188 37.625V39.375C14.2188 39.549 14.2879 39.716 14.411 39.839C14.534 39.9621 14.701 40.0312 14.875 40.0312C15.049 40.0312 15.216 39.9621 15.339 39.839C15.4621 39.716 15.5312 39.549 15.5312 39.375V37.625C15.5326 36.4071 16.0171 35.2395 16.8783 34.3783C17.7395 33.5171 18.9071 33.0326 20.125 33.0312H21C22.2179 33.0326 23.3855 33.5171 24.2467 34.3783C25.1079 35.2395 25.5924 36.4071 25.5938 37.625V39.375C25.5938 39.549 25.6629 39.716 25.786 39.839C25.909 39.9621 26.076 40.0312 26.25 40.0312C26.424 40.0312 26.591 39.9621 26.714 39.839C26.8371 39.716 26.9062 39.549 26.9062 39.375V37.625C26.9033 36.4334 26.5398 35.2706 25.8636 34.2896C25.1874 33.3085 24.23 32.555 23.1175 32.1283C23.614 31.7433 24.0163 31.2502 24.2937 30.6865C24.5712 30.1228 24.7165 29.5033 24.7188 28.875C24.7188 27.8985 24.367 27.0113 23.8 26.3025C24.2152 25.6847 24.7749 25.1777 25.4307 24.8254C26.0864 24.4732 26.8182 24.2864 27.5625 24.2812H28.4375C29.96 24.2812 31.3477 25.06 32.2 26.3007C31.6093 27.0291 31.2852 27.9373 31.2812 28.875C31.2812 30.198 31.9147 31.367 32.8825 32.1283C31.77 32.555 30.8126 33.3085 30.1364 34.2896C29.4602 35.2706 29.0967 36.4334 29.0938 37.625V39.375C29.0938 39.549 29.1629 39.716 29.286 39.839C29.409 39.9621 29.576 40.0312 29.75 40.0312C29.924 40.0312 30.091 39.9621 30.214 39.839C30.3371 39.716 30.4062 39.549 30.4062 39.375V37.625C30.4076 36.4071 30.8921 35.2395 31.7533 34.3783C32.6145 33.5171 33.7821 33.0326 35 33.0312H35.875C37.0929 33.0326 38.2605 33.5171 39.1217 34.3783C39.9829 35.2395 40.4674 36.4071 40.4688 37.625V39.375C40.4688 39.549 40.5379 39.716 40.661 39.839C40.784 39.9621 40.951 40.0312 41.125 40.0312C41.299 40.0312 41.466 39.9621 41.589 39.839C41.7121 39.716 41.7812 39.549 41.7812 39.375V37.625C41.7783 36.4334 41.4148 35.2706 40.7386 34.2896C40.0624 33.3085 39.105 32.555 37.9925 32.1283ZM20.5625 31.7188C18.9945 31.7188 17.7188 30.443 17.7188 28.875C17.7188 27.307 18.9945 26.0312 20.5625 26.0312C22.1305 26.0312 23.4062 27.307 23.4062 28.875C23.4062 30.443 22.1305 31.7188 20.5625 31.7188ZM28 17.2812C29.568 17.2812 30.8438 18.557 30.8438 20.125C30.8438 21.693 29.568 22.9688 28 22.9688C26.432 22.9688 25.1562 21.693 25.1562 20.125C25.1562 18.557 26.432 17.2812 28 17.2812ZM35.4375 26.0312C37.0055 26.0312 38.2812 27.307 38.2812 28.875C38.2812 30.443 37.0055 31.7188 35.4375 31.7188C33.8695 31.7188 32.5938 30.443 32.5938 28.875C32.5938 27.307 33.8695 26.0312 35.4375 26.0312Z" fill="#45494E"/>
</svg>
