<svg width="127" height="117" viewBox="0 0 127 117" fill="none" xmlns="http://www.w3.org/2000/svg">
<g opacity="0.5" clip-path="url(#clip0_164_24754)">
<path d="M94.4346 0H66.0096L98.5919 19.1853H127L94.4346 0Z" fill="#636363"/>
<path d="M99.4538 19.1853H0V117H99.4538V19.1853Z" fill="#636363"/>
<path d="M64.4886 4.16699H36.0636L0 19.1853H28.425L64.4886 4.16699Z" fill="#8A8A8A"/>
<path d="M127.017 19.1853H28.425V117H127.017V19.1853Z" fill="#ABABAB"/>
<path d="M90.9364 19.1853H64.4886V44.3576H90.9364V19.1853Z" fill="#D0D0D0"/>
<path d="M90.9364 91.8447H64.4886V117.017H90.9364V91.8447Z" fill="#D0D0D0"/>
<path d="M58.709 96.9473H33.14V112.493H58.709V96.9473Z" fill="#E2E2E2"/>
<path d="M37.0269 99.1243H34.3061V110.316H37.0269V99.1243Z" fill="#444248"/>
<path d="M39.6125 99.1243H38.6661V110.316H39.6125V99.1243Z" fill="#444248"/>
<path d="M45.747 99.1243H43.5163V110.316H45.747V99.1243Z" fill="#444248"/>
<path d="M42.063 99.1243H40.711V110.316H42.063V99.1243Z" fill="#444248"/>
<path d="M48.3327 99.1243H47.4201V110.316H48.3327V99.1243Z" fill="#444248"/>
<path d="M53.6053 99.1243H51.7633V110.316H53.6053V99.1243Z" fill="#444248"/>
<path d="M55.1432 99.1243H54.2306V110.316H55.1432V99.1243Z" fill="#444248"/>
<path d="M50.9352 99.1243H49.6677V110.316H50.9352V99.1243Z" fill="#444248"/>
<path d="M57.4753 99.1243H56.1234V110.316H57.4753V99.1243Z" fill="#444248"/>
</g>
<defs>
<clipPath id="clip0_164_24754">
<rect width="127" height="117" fill="white"/>
</clipPath>
</defs>
</svg>
