<svg version="1.1" id="Capa_1" xmlns="http://www.w3.org/2000/svg" xmlns:xlink="http://www.w3.org/1999/xlink" x="0px" y="0px" viewBox="0 0 512 512" style="enable-background:new 0 0 512 512;" xml:space="preserve">
<g>
	<g>
		<g>
			<path style="fill:none;stroke:#000000;stroke-width:15;stroke-linecap:round;stroke-linejoin:round;stroke-miterlimit:10;" d="&#10;&#9;&#9;&#9;&#9;M131.979,185.4c-0.434-14.984-12.709-27-27.798-27H81.819c-15.089,0-27.364,12.016-27.798,27H131.979z"/>
			<path style="fill:none;stroke:#000000;stroke-width:15;stroke-linecap:round;stroke-linejoin:round;stroke-miterlimit:10;" d="&#10;&#9;&#9;&#9;&#9;M457.979,185.4c-0.434-14.984-12.709-27-27.798-27h-22.363c-15.089,0-27.364,12.016-27.798,27H457.979z"/>
		</g>
		
			<line style="fill:none;stroke:#000000;stroke-width:15;stroke-linejoin:round;stroke-miterlimit:10;" x1="410" y1="385" x2="102" y2="385"/>
		
			<line style="fill:none;stroke:#000000;stroke-width:15;stroke-linecap:round;stroke-linejoin:round;stroke-miterlimit:10;" x1="410" y1="445.4" x2="410" y2="263"/>
		
			<line style="fill:none;stroke:#000000;stroke-width:15;stroke-linecap:round;stroke-linejoin:round;stroke-miterlimit:10;" x1="410" y1="228" x2="410" y2="185.4"/>
		<path style="fill:none;stroke:#000000;stroke-width:15;stroke-linecap:round;stroke-linejoin:round;stroke-miterlimit:10;" d="&#10;&#9;&#9;&#9;M64.25,254.4h-19c-2.761,0-5-2.239-5-5v-19c0-2.761,2.239-5,5-5h19c2.761,0,5,2.239,5,5v19&#10;&#9;&#9;&#9;C69.25,252.161,67.011,254.4,64.25,254.4z"/>
		<path style="fill:none;stroke:#000000;stroke-width:15;stroke-linecap:round;stroke-linejoin:round;stroke-miterlimit:10;" d="&#10;&#9;&#9;&#9;M64.25,320.4h-19c-2.761,0-5-2.239-5-5v-19c0-2.761,2.239-5,5-5h19c2.761,0,5,2.239,5,5v19&#10;&#9;&#9;&#9;C69.25,318.161,67.011,320.4,64.25,320.4z"/>
		
			<line style="fill:none;stroke:#000000;stroke-width:15;stroke-linecap:round;stroke-linejoin:round;stroke-miterlimit:10;" x1="69.25" y1="405.4" x2="40.25" y2="405.4"/>
		
			<line style="fill:none;stroke:#000000;stroke-width:15;stroke-linecap:round;stroke-linejoin:round;stroke-miterlimit:10;" x1="444.75" y1="225.4" x2="442.75" y2="225.4"/>
		
			<line style="fill:none;stroke:#000000;stroke-width:15;stroke-linecap:round;stroke-linejoin:round;stroke-miterlimit:10;" x1="471.75" y1="225.4" x2="469.75" y2="225.4"/>
		
			<line style="fill:none;stroke:#000000;stroke-width:15;stroke-linecap:round;stroke-linejoin:round;stroke-miterlimit:10;" x1="444.75" y1="252.4" x2="442.75" y2="252.4"/>
		
			<line style="fill:none;stroke:#000000;stroke-width:15;stroke-linecap:round;stroke-linejoin:round;stroke-miterlimit:10;" x1="471.75" y1="252.4" x2="469.75" y2="252.4"/>
		<path style="fill:none;stroke:#000000;stroke-width:15;stroke-linecap:round;stroke-linejoin:round;stroke-miterlimit:10;" d="&#10;&#9;&#9;&#9;M466.75,339.4h-19c-2.761,0-5-2.239-5-5v-19c0-2.761,2.239-5,5-5h19c2.761,0,5,2.239,5,5v19&#10;&#9;&#9;&#9;C471.75,337.161,469.511,339.4,466.75,339.4z"/>
		<path style="fill:none;stroke:#000000;stroke-width:15;stroke-linecap:round;stroke-linejoin:round;stroke-miterlimit:10;" d="&#10;&#9;&#9;&#9;M466.75,405.4h-19c-2.761,0-5-2.239-5-5v-19c0-2.761,2.239-5,5-5h19c2.761,0,5,2.239,5,5v19&#10;&#9;&#9;&#9;C471.75,403.161,469.511,405.4,466.75,405.4z"/>
		<path style="fill:none;stroke:#000000;stroke-width:15;stroke-linecap:round;stroke-linejoin:round;stroke-miterlimit:10;" d="&#10;&#9;&#9;&#9;M143.286,309.6c7.504,18.136,25.365,30.9,46.214,30.9c27.614,0,50-22.386,50-50c0-27.614-22.386-50-50-50&#10;&#9;&#9;&#9;c-22.053,0-40.759,14.284-47.403,34.1"/>
		
			<line style="fill:none;stroke:#000000;stroke-width:15;stroke-linecap:round;stroke-linejoin:round;stroke-miterlimit:10;" x1="189.5" y1="297" x2="189.5" y2="385"/>
		
			<circle style="fill:none;stroke:#000000;stroke-width:15;stroke-linecap:round;stroke-linejoin:round;stroke-miterlimit:10;" cx="348" cy="245.4" r="23"/>
		<g>
			<path style="fill:none;stroke:#000000;stroke-width:15;stroke-linecap:round;stroke-linejoin:round;stroke-miterlimit:10;" d="&#10;&#9;&#9;&#9;&#9;M284.779,339.146c-1.989-2.861-6.221-2.861-8.21,0l-32.041,46.079h72.292L284.779,339.146z"/>
			<path style="fill:none;stroke:#000000;stroke-width:15;stroke-linecap:round;stroke-linejoin:round;stroke-miterlimit:10;" d="&#10;&#9;&#9;&#9;&#9;M354.901,349.129c-1.989-2.861-6.221-2.861-8.21,0l-25.099,36.096H380L354.901,349.129z"/>
		</g>
		<g>
			<path style="fill:none;stroke:#000000;stroke-width:15;stroke-linecap:round;stroke-linejoin:round;stroke-miterlimit:10;" d="&#10;&#9;&#9;&#9;&#9;M184.168,138.432c0-39.609,32.224-71.832,71.832-71.832s71.832,32.224,71.832,71.832"/>
			<path style="fill:none;stroke:#000000;stroke-width:15;stroke-linecap:round;stroke-linejoin:round;stroke-miterlimit:10;" d="&#10;&#9;&#9;&#9;&#9;M229.467,138.432c0-14.654,11.879-26.533,26.533-26.533c14.654,0,26.533,11.879,26.533,26.533"/>
		</g>
		<path style="fill:none;stroke:#000000;stroke-width:15;stroke-linecap:round;stroke-linejoin:round;stroke-miterlimit:10;" d="&#10;&#9;&#9;&#9;M170,185.4H37.5c-16.569,0-30,13.432-30,30v200c0,16.569,13.431,30,30,30h437c16.569,0,30-13.431,30-30v-200&#10;&#9;&#9;&#9;c0-16.568-13.431-30-30-30H205"/>
		
			<line style="fill:none;stroke:#000000;stroke-width:15;stroke-linecap:round;stroke-linejoin:round;stroke-miterlimit:10;" x1="102" y1="185.4" x2="102" y2="445.4"/>
	</g>
</g>
<g>
</g>
<g>
</g>
<g>
</g>
<g>
</g>
<g>
</g>
<g>
</g>
<g>
</g>
<g>
</g>
<g>
</g>
<g>
</g>
<g>
</g>
<g>
</g>
<g>
</g>
<g>
</g>
<g>
</g>
</svg>