<svg width="24" height="22" viewBox="0 0 24 22" fill="none" xmlns="http://www.w3.org/2000/svg">
<path d="M12 21.4773C18.6274 21.4773 24 19.2327 24 16.4639C24 13.695 18.6274 11.4504 12 11.4504C5.37258 11.4504 0 13.695 0 16.4639C0 19.2327 5.37258 21.4773 12 21.4773Z" fill="#99D980"/>
<path d="M24.0001 16.4639C24.0001 19.2323 18.6274 21.4774 12.0001 21.4774C11.6795 21.4774 11.3613 21.472 11.0469 21.4619C17.2284 21.2586 22.0936 19.0981 22.0936 16.4639C22.0936 13.8292 17.2284 11.6692 11.0469 11.4659C11.3612 11.4558 11.6795 11.4504 12.0001 11.4504C18.6274 11.4505 24.0001 13.695 24.0001 16.4639Z" fill="#83D167"/>
<path d="M8.37416 18.259C10.0435 18.259 11.3967 17.7163 11.3967 17.0468C11.3967 16.3772 10.0435 15.8345 8.37416 15.8345C6.70482 15.8345 5.35156 16.3772 5.35156 17.0468C5.35156 17.7163 6.70482 18.259 8.37416 18.259Z" fill="#54C032"/>
<path d="M10.9618 17.6732C10.4321 18.0242 9.47159 18.2589 8.37396 18.2589C7.27634 18.2589 6.31535 18.0242 5.78613 17.6732C6.3154 17.3221 7.27634 17.0874 8.37396 17.0874C9.47159 17.0874 10.4321 17.3221 10.9618 17.6732Z" fill="#4BA72D"/>
<path d="M7.52416 0.884617V18.1574C7.52416 18.1752 7.52271 18.1926 7.5198 18.2095C7.26387 18.1796 7.02241 18.1366 6.7998 18.0816V0.884617C6.79978 0.837051 6.80913 0.789947 6.82732 0.745997C6.84551 0.702047 6.87219 0.662113 6.90582 0.628479C6.93946 0.594845 6.97939 0.56817 7.02334 0.549978C7.06729 0.531787 7.11439 0.522436 7.16196 0.522461C7.20953 0.52243 7.25664 0.531776 7.3006 0.549965C7.34455 0.568153 7.38449 0.594828 7.41813 0.628463C7.45177 0.662097 7.47845 0.702033 7.49664 0.745986C7.51484 0.789939 7.52419 0.837047 7.52416 0.884617Z" fill="#EFF5F6"/>
<path d="M7.52416 2.53853V6.69676L6.99827 6.87784C6.93463 6.9001 6.86696 6.90849 6.7998 6.90245V2.33284C6.86695 2.32703 6.93458 2.33542 6.99827 2.35745L7.52416 2.53853Z" fill="#CBE5E7"/>
<path d="M15.7816 18.7933C15.6939 18.7932 15.6091 18.7612 15.5432 18.7033C15.4772 18.6454 15.4345 18.5655 15.423 18.4785L15.3776 18.134C15.3662 18.0394 15.3927 17.9441 15.4511 17.8688C15.5096 17.7935 15.5953 17.7443 15.6898 17.7319C15.7843 17.7194 15.8799 17.7447 15.9559 17.8022C16.0318 17.8597 16.0821 17.9449 16.0957 18.0392L16.1412 18.3837C16.1479 18.4349 16.1437 18.4869 16.1287 18.5363C16.1137 18.5856 16.0883 18.6313 16.0543 18.67C16.0203 18.7088 15.9783 18.7399 15.9313 18.7611C15.8843 18.7824 15.8332 18.7934 15.7816 18.7933ZM16.852 18.7933C16.8004 18.7934 16.7494 18.7824 16.7024 18.7611C16.6553 18.7399 16.6134 18.7088 16.5794 18.67C16.5453 18.6312 16.52 18.5856 16.505 18.5363C16.49 18.4869 16.4857 18.4349 16.4925 18.3837L16.538 18.0392C16.5516 17.9449 16.6018 17.8597 16.6778 17.8022C16.7538 17.7447 16.8494 17.7194 16.9438 17.7319C17.0383 17.7443 17.1241 17.7935 17.1825 17.8688C17.241 17.9441 17.2674 18.0394 17.2561 18.134L17.2106 18.4785C17.1991 18.5655 17.1564 18.6454 17.0905 18.7033C17.0245 18.7612 16.9398 18.7932 16.852 18.7933Z" fill="#83D167"/>
<path d="M2.92383 16.7804C2.83607 16.7803 2.75134 16.7483 2.68539 16.6904C2.61943 16.6325 2.57674 16.5526 2.56524 16.4656L2.51972 16.1212C2.50714 16.0259 2.53291 15.9296 2.59135 15.8534C2.64979 15.7771 2.73612 15.7272 2.83135 15.7147C3.02935 15.6881 3.21164 15.828 3.23785 16.0263L3.28336 16.3708C3.29012 16.4219 3.28587 16.4739 3.27089 16.5233C3.25591 16.5727 3.23055 16.6183 3.1965 16.6571C3.16246 16.6959 3.12052 16.727 3.07349 16.7482C3.02647 16.7695 2.97544 16.7805 2.92383 16.7804ZM3.99417 16.7804C3.94257 16.7805 3.89154 16.7695 3.84452 16.7482C3.7975 16.727 3.75556 16.6959 3.72152 16.6571C3.68748 16.6183 3.66212 16.5727 3.64713 16.5233C3.63215 16.4739 3.62789 16.4219 3.63464 16.3708L3.68016 16.0263C3.70636 15.828 3.88852 15.6889 4.08666 15.7147C4.18188 15.7273 4.2682 15.7772 4.32664 15.8534C4.38507 15.9296 4.41085 16.0259 4.39828 16.1212L4.35277 16.4656C4.34125 16.5526 4.29856 16.6325 4.2326 16.6904C4.16665 16.7483 4.08193 16.7803 3.99417 16.7804Z" fill="#54C032"/>
<path d="M18.2422 16.3689C18.1544 16.3688 18.0697 16.3368 18.0037 16.2789C17.9378 16.221 17.8951 16.1412 17.8836 16.0542L17.8381 15.7097C17.8255 15.6145 17.8513 15.5181 17.9097 15.4419C17.9682 15.3657 18.0545 15.3158 18.1497 15.3032C18.3478 15.2771 18.53 15.4165 18.5562 15.6148L18.6017 15.9593C18.6085 16.0105 18.6042 16.0625 18.5892 16.1119C18.5742 16.1612 18.5489 16.2069 18.5148 16.2456C18.4808 16.2844 18.4389 16.3155 18.3918 16.3368C18.3448 16.358 18.2938 16.369 18.2422 16.3689ZM19.3125 16.3689C19.2609 16.369 19.2099 16.358 19.1629 16.3368C19.1159 16.3155 19.0739 16.2844 19.0399 16.2456C19.0058 16.2069 18.9805 16.1612 18.9655 16.1119C18.9505 16.0625 18.9462 16.0105 18.953 15.9593L18.9985 15.6148C19.0248 15.4165 19.2068 15.2773 19.405 15.3032C19.5002 15.3158 19.5866 15.3657 19.645 15.4419C19.7034 15.5181 19.7292 15.6145 19.7166 15.7097L19.6711 16.0542C19.6596 16.1412 19.6169 16.221 19.551 16.2789C19.485 16.3368 19.4003 16.3688 19.3125 16.3689Z" fill="#4BA72D"/>
<path d="M11.7914 14.9776C11.7036 14.9775 11.6189 14.9455 11.5529 14.8876C11.487 14.8297 11.4443 14.7498 11.4328 14.6628L11.3873 14.3183C11.376 14.2237 11.4024 14.1284 11.4609 14.0531C11.5193 13.9779 11.6051 13.9287 11.6996 13.9162C11.7941 13.9037 11.8896 13.929 11.9656 13.9865C12.0416 14.0441 12.0918 14.1292 12.1055 14.2235L12.1509 14.568C12.1577 14.6192 12.1534 14.6712 12.1384 14.7206C12.1235 14.77 12.0981 14.8156 12.064 14.8544C12.03 14.8931 11.9881 14.9242 11.941 14.9455C11.894 14.9667 11.843 14.9777 11.7914 14.9776ZM12.8618 14.9776C12.8102 14.9777 12.7592 14.9667 12.7121 14.9455C12.6651 14.9242 12.6232 14.8931 12.5891 14.8544C12.5551 14.8156 12.5297 14.77 12.5147 14.7206C12.4998 14.6712 12.4955 14.6192 12.5023 14.568L12.5477 14.2235C12.5613 14.1292 12.6116 14.0441 12.6876 13.9865C12.7635 13.929 12.8591 13.9037 12.9536 13.9162C13.0481 13.9287 13.1338 13.9779 13.1923 14.0531C13.2507 14.1284 13.2772 14.2237 13.2658 14.3183L13.2204 14.6628C13.2089 14.7498 13.1662 14.8297 13.1002 14.8876C13.0343 14.9455 12.9495 14.9775 12.8618 14.9776Z" fill="#54C032"/>
<path d="M16.3164 14.452C17.6755 14.452 18.7773 14.1854 18.7773 13.8565C18.7773 13.5276 17.6755 13.261 16.3164 13.261C14.9573 13.261 13.8555 13.5276 13.8555 13.8565C13.8555 14.1854 14.9573 14.452 16.3164 14.452Z" fill="#83D167"/>
<path d="M16.2322 13.6543C17.1824 13.6543 17.9526 12.884 17.9526 11.9338C17.9526 10.9837 17.1824 10.2134 16.2322 10.2134C15.282 10.2134 14.5117 10.9837 14.5117 11.9338C14.5117 12.884 15.282 13.6543 16.2322 13.6543Z" fill="#EFF5F6"/>
<path d="M17.9527 11.9342C17.9527 12.8838 17.1827 13.6545 16.2324 13.6545C15.9625 13.6545 15.7074 13.5921 15.4805 13.4818C16.0535 13.2025 16.4488 12.6145 16.4488 11.9343C16.4488 11.254 16.0535 10.6654 15.4805 10.3861C15.7148 10.2721 15.9719 10.2131 16.2324 10.2134C17.1827 10.2133 17.9527 10.984 17.9527 11.9342Z" fill="#CBE5E7"/>
<path d="M6.3584 2.22643V5.83369C6.3584 6.16524 6.68488 6.39821 6.99843 6.2903L11.8441 4.62287C12.408 4.4288 12.408 3.63127 11.8441 3.43726L6.99843 1.76982C6.68488 1.66196 6.3584 1.89488 6.3584 2.22643Z" fill="#FB6A3B"/>
<path d="M11.844 4.62307L6.99843 6.29046C6.68488 6.39836 6.3584 6.16539 6.3584 5.83385V5.38099C9.29179 4.49641 10.155 3.57293 10.335 2.91846L11.844 3.43755C12.4082 3.63124 12.4082 4.42868 11.844 4.62307Z" fill="#FB5532"/>
</svg>
