<svg width="22" height="22" viewBox="0 0 22 22" fill="none" xmlns="http://www.w3.org/2000/svg">
<path d="M5.375 3.125H16.625V21.875H5.375V3.125Z" fill="#E9F1F2"/>
<path d="M16.625 19.625V21.875H5.375V3.125H9.125V15.5C9.1247 16.0418 9.2312 16.5783 9.43839 17.0789C9.64559 17.5795 9.94942 18.0344 10.3325 18.4175C10.7156 18.8006 11.1705 19.1044 11.6711 19.3116C12.1717 19.5188 12.7082 19.6253 13.25 19.625H16.625Z" fill="#D0D8DA"/>
<path d="M8.75 16.625H11V21.875H8.75V16.625ZM11 16.625H13.25V21.875H11V16.625Z" fill="#84D2F4"/>
<path d="M11 18.9575V21.875H8.75V16.625H9.2825C9.5535 17.5849 10.1638 18.4138 11 18.9575ZM13.25 19.625V21.875H11V18.9575C11.6684 19.3956 12.4508 19.6277 13.25 19.625ZM6.875 12.875H8.375V14.375H6.875V12.875Z" fill="#57B7EB"/>
<path d="M10.3057 12.875H11.8057V14.375H10.3057V12.875ZM13.6252 12.875H15.1252V14.375H13.6252V12.875Z" fill="#84D2F4"/>
<path d="M6.875 9.875H8.375V11.375H6.875V9.875Z" fill="#57B7EB"/>
<path d="M10.3057 9.875H11.8057V11.375H10.3057V9.875ZM13.6252 9.875H15.1252V11.375H13.6252V9.875ZM10.3057 6.875H11.8057V8.375H10.3057V6.875Z" fill="#84D2F4"/>
<path d="M6.875 6.875H8.375V8.375H6.875V6.875Z" fill="#57B7EB"/>
<path d="M13.625 6.875H15.125V8.375H13.625V6.875Z" fill="#84D2F4"/>
<path d="M15.125 8.375H13.625V6.875L15.125 8.375ZM11.75 8.375H10.25V6.875L11.75 8.375Z" fill="#57B7EB"/>
<path d="M8.375 8.375H6.875V6.875L8.375 8.375Z" fill="#4891D3"/>
<path d="M15.125 11.375H13.625V9.875L15.125 11.375ZM11.75 11.375H10.25V9.875L11.75 11.375Z" fill="#57B7EB"/>
<path d="M8.375 11.375H6.875V9.875L8.375 11.375Z" fill="#4891D3"/>
<path d="M15.125 14.375H13.625V12.875L15.125 14.375ZM11.75 14.375H10.25V12.875L11.75 14.375ZM11 16.625V21.875H13.25L11 16.625Z" fill="#57B7EB"/>
<path d="M8.75 16.625V21.875H11L8.75 16.625ZM13.25 21.875H11V18.9575C11.3773 19.2044 11.7929 19.3869 12.23 19.4975L13.25 21.875Z" fill="#4891D3"/>
<path d="M10.8125 16.625H11.1875V21.875H10.8125V16.625Z" fill="#E9F1F2"/>
<path d="M11 0.125L11.6952 1.53387L13.25 1.75963L12.125 2.8565L12.3905 4.40487L11 3.67362L9.6095 4.40487L9.875 2.8565L8.75 1.75963L10.3048 1.53387L11 0.125ZM15.875 1.625L16.4544 2.79912L17.75 2.98738L16.8125 3.90125L17.0338 5.19162L15.875 4.58225L14.7162 5.19162L14.9375 3.90125L14 2.98738L15.2956 2.79912L15.875 1.625ZM20 4.25L20.4635 5.18937L21.5 5.33975L20.75 6.071L20.927 7.103L20 6.61588L19.073 7.103L19.25 6.071L18.5 5.33975L19.5365 5.18937L20 4.25ZM2 4.25L2.4635 5.18937L3.5 5.33975L2.75 6.071L2.927 7.103L2 6.61588L1.073 7.103L1.25 6.071L0.5 5.33975L1.5365 5.18937L2 4.25ZM6.125 1.625L6.70438 2.79912L8 2.98738L7.0625 3.90125L7.28375 5.19162L6.125 4.58225L4.96625 5.19162L5.1875 3.90125L4.25 2.98738L5.54562 2.79912L6.125 1.625Z" fill="#F9E109"/>
<path d="M11 0.125L10.9696 1.53575C10.967 1.65908 10.9948 1.78116 11.0507 1.89116C11.1065 2.00116 11.1886 2.09569 11.2897 2.16638C11.3908 2.23707 11.5078 2.28173 11.6302 2.2964C11.7527 2.31107 11.8769 2.29531 11.9919 2.2505L13.25 1.75963L12.125 2.8565L12.3905 4.40487L11 3.67362L9.6095 4.40487L9.875 2.8565L8.75 1.75963L10.3047 1.53462L11 0.125ZM15.875 1.625L15.8 2.47362C15.7893 2.59419 15.808 2.71555 15.8544 2.82734C15.9008 2.93913 15.9736 3.03803 16.0665 3.11558C16.1594 3.19314 16.2697 3.24706 16.388 3.27273C16.5063 3.2984 16.629 3.29506 16.7457 3.263L17.75 2.98738L16.8125 3.90125L17.0338 5.19162L15.875 4.58225L14.7162 5.19162L14.9375 3.90125L14 2.98738L15.2956 2.79988L15.875 1.625ZM20 4.25L19.9183 4.83988C19.8995 4.9773 19.9192 5.11723 19.9752 5.24411C20.0312 5.371 20.1213 5.47988 20.2354 5.55864C20.3496 5.6374 20.4834 5.68296 20.6219 5.69027C20.7604 5.69757 20.8982 5.66632 21.02 5.6L21.5 5.3375L20.75 6.06875L20.927 7.10075L20 6.61588L19.073 7.10337L19.25 6.071L18.5 5.33975L19.5365 5.18975L20 4.25Z" fill="#FCBC04"/>
<path d="M2 4.25L2.4635 5.18937L3.5 5.33975L2.75 6.071L2.927 7.103L2 6.61587L1.073 7.103L1.25 6.071L0.5 5.33975L1.5365 5.18937L2 4.25ZM6.125 1.625L6.70438 2.79912L8 2.98738L7.0625 3.90125L7.28375 5.19162L6.125 4.58225L4.96625 5.19162L5.1875 3.90125L4.25 2.98738L5.54562 2.79912L6.125 1.625Z" fill="#F9E109"/>
<path d="M6.125 1.625L6.05 2.47362C6.03932 2.59419 6.05798 2.71555 6.10439 2.82734C6.15079 2.93913 6.22356 3.03803 6.31649 3.11558C6.40941 3.19314 6.51973 3.24706 6.63801 3.27273C6.7563 3.2984 6.87904 3.29506 6.99575 3.263L8 2.98738L7.0625 3.90125L7.28375 5.19162L6.125 4.58225L4.96625 5.19162L5.1875 3.90125L4.25 2.98738L5.54562 2.79988L6.125 1.625ZM2 4.25L1.91825 4.83987C1.89949 4.97729 1.91921 5.11723 1.9752 5.24411C2.0312 5.371 2.12129 5.47988 2.23545 5.55864C2.34961 5.6374 2.48337 5.68296 2.62187 5.69027C2.76038 5.69757 2.89819 5.66632 3.02 5.6L3.5 5.3375L2.75 6.06875L2.927 7.10075L2 6.61587L1.073 7.10337L1.25 6.071L0.5 5.33975L1.5365 5.18975L2 4.25Z" fill="#FCBC04"/>
<path d="M0.125 9.125H5.375V21.875H0.125V9.125Z" fill="#D0D8DA"/>
<path d="M5.375 9.125V21.875H0.125V19.925C0.971473 19.751 1.73206 19.2904 2.27855 18.621C2.82503 17.9516 3.12398 17.1142 3.125 16.25V9.125H5.375Z" fill="#93999A"/>
<path d="M3.875 10.625H5.375V12.125H3.875V10.625Z" fill="#57B7EB"/>
<path d="M0.125 10.625H1.625V12.125H0.125V10.625Z" fill="#84D2F4"/>
<path d="M3.875 13.625H5.375V15.125H3.875V13.625Z" fill="#57B7EB"/>
<path d="M0.125 13.625H1.625V15.125H0.125V13.625Z" fill="#84D2F4"/>
<path d="M3.875 16.625H5.375V18.125H3.875V16.625Z" fill="#57B7EB"/>
<path d="M0.125 16.625H1.625V18.125H0.125V16.625Z" fill="#84D2F4"/>
<path d="M5.375 18.125H3.875V16.625L5.375 18.125Z" fill="#4891D3"/>
<path d="M1.625 18.125H0.125V16.625L1.625 18.125ZM1.625 15.125H0.125V13.625L1.625 15.125ZM1.625 12.125H0.125V10.625L1.625 12.125Z" fill="#57B7EB"/>
<path d="M5.375 15.125H3.875V13.625L5.375 15.125ZM5.375 12.125H3.875V10.625L5.375 12.125Z" fill="#4891D3"/>
<path d="M16.625 9.125H21.875V21.875H16.625V9.125Z" fill="#E9F1F2"/>
<path d="M16.625 9.125V21.875H21.875V19.925C21.0285 19.751 20.2679 19.2904 19.7215 18.621C19.175 17.9516 18.876 17.1142 18.875 16.25V9.125H16.625Z" fill="#D0D8DA"/>
<path d="M18.125 10.625H20.375V12.125H18.125V10.625ZM18.125 13.625H20.375V15.125H18.125V13.625ZM18.125 16.625H20.375V18.125H18.125V16.625Z" fill="#84D2F4"/>
<path d="M20.375 18.125H18.125V16.625L20.375 18.125ZM20.375 15.125H18.125V13.625L20.375 15.125ZM20.375 12.125H18.125V10.625L20.375 12.125Z" fill="#57B7EB"/>
<path d="M18.125 10.625H18.875V12.125H18.125V10.625ZM18.125 13.625H18.875V15.125H18.125V13.625ZM19.3775 18.125H18.125V16.625H18.8937C18.946 17.1538 19.111 17.6653 19.3775 18.125Z" fill="#57B7EB"/>
<path d="M18.125 10.625H18.875V12.125H18.125V10.625ZM18.125 13.625H18.875V15.125H18.125V13.625ZM19.3775 18.125H18.125V16.625H18.8937C18.946 17.1538 19.111 17.6653 19.3775 18.125Z" fill="#57B7EB"/>
<path d="M18.875 12.125H18.125V10.625L18.875 11.1238V12.125ZM18.875 15.125H18.125V13.625L18.875 14.1238V15.125ZM19.3775 18.125H18.125V16.625L18.9988 17.21C19.0842 17.5303 19.2116 17.838 19.3775 18.125Z" fill="#4891D3"/>
<path d="M11.1875 19.0738V21.8751H10.8125V18.8301C10.9332 18.9178 11.0583 18.9992 11.1875 19.0738Z" fill="#D0D8DA"/>
</svg>
