<svg width="24" height="24" viewBox="0 0 24 24" fill="none" xmlns="http://www.w3.org/2000/svg">
<path fill-rule="evenodd" clip-rule="evenodd" d="M12.0055 21.4868C11.8349 21.4889 11.6668 21.4458 11.5183 21.3619C10.2492 20.6236 0.84679 14.7289 0.49203 14.549C0.359088 14.4869 0.244476 14.3914 0.15933 14.2719C0.0741842 14.1524 0.0214009 14.0129 0.00610909 13.867V5.59881C0.0025193 5.44702 0.0376842 5.29683 0.108282 5.16241C0.17888 5.02799 0.28258 4.91378 0.409586 4.83058L0.47704 4.79186C1.38642 4.22724 4.43186 2.37475 4.91279 2.10243C5.02318 2.03665 5.14904 2.00131 5.27754 2C5.39736 2.0015 5.5151 2.03147 5.62106 2.08744C5.62106 2.08744 9.88442 4.86556 10.5365 5.11289C10.9926 5.32239 11.4899 5.42697 11.9917 5.41894C12.5619 5.43128 13.1252 5.29388 13.6256 5.02045C14.2627 4.68443 18.3337 2.10243 18.3724 2.10243C18.4752 2.04033 18.5934 2.00831 18.7134 2.00999C18.845 2.00877 18.9744 2.04424 19.0869 2.11242C19.6416 2.41847 23.4153 4.73565 23.5764 4.83058C23.7071 4.90924 23.8149 5.02072 23.8892 5.15396C23.9635 5.28719 24.0017 5.43754 23.9999 5.59007V13.8582C23.9853 14.0044 23.9327 14.1442 23.8472 14.2637C23.7617 14.3831 23.6464 14.4781 23.5127 14.539C23.1579 14.7339 13.7855 20.6286 12.4914 21.3494C12.3442 21.4369 12.1767 21.4843 12.0055 21.4868Z" fill="url(#paint0_linear_1_2756)"/>
<path fill-rule="evenodd" clip-rule="evenodd" d="M11.9145 21.3684H11.8671C11.6985 21.37 11.5326 21.3269 11.3861 21.2435C10.1295 20.5165 0.832038 14.6842 0.481026 14.5068C0.349243 14.4461 0.235572 14.352 0.151234 14.2339C0.0668956 14.1159 0.0148043 13.9778 0.000101467 13.8335V5.65277C-0.00202274 5.51254 0.0292333 5.37382 0.0912897 5.24805L11.9145 11.7436V21.3684Z" fill="url(#paint1_linear_1_2756)"/>
<defs>
<linearGradient id="paint0_linear_1_2756" x1="0.0660685" y1="11.8096" x2="23.84" y2="11.6247" gradientUnits="userSpaceOnUse">
<stop stop-color="#F8B500"/>
<stop offset="0.33" stop-color="#EF7C00"/>
<stop offset="0.56" stop-color="#E7336F"/>
<stop offset="0.78" stop-color="#D14492"/>
<stop offset="0.93" stop-color="#B64F98"/>
<stop offset="1" stop-color="#AD529B"/>
</linearGradient>
<linearGradient id="paint1_linear_1_2756" x1="9.61234" y1="11.9822" x2="0.20871" y2="15.4436" gradientUnits="userSpaceOnUse">
<stop stop-color="#EA5705"/>
<stop offset="0.15" stop-color="#EB5E02"/>
<stop offset="0.5" stop-color="#F18700"/>
<stop offset="1" stop-color="#F49E00"/>
</linearGradient>
</defs>
</svg>
