<svg id="Layer_1" enable-background="new 0 0 256 256" height="512" viewBox="0 0 256 256" width="512" xmlns="http://www.w3.org/2000/svg"><g><g><path d="m62.231 240.42h175.769c5.523 0 10-4.477 10-10v-204.84c0-5.523-4.477-10-10-10h-175.769c-5.523 0-10 4.477-10 10v204.84c0 5.523 4.477 10 10 10z" fill="#377de2"/><path d="m101.173 15.58h48.942v224.841h-48.942z" fill="#478cf7"/><path d="m62.231 240.42h38.942v-224.84h-38.942c-5.523 0-10 4.477-10 10v204.84c0 5.523 4.477 10 10 10z" fill="#377de2"/><path d="m199.057 240.42h38.943c5.523 0 10-4.477 10-10v-204.84c0-5.523-4.477-10-10-10h-38.943z" fill="#2266d3"/><path d="m187 23.58h-107c-1.104 0-2-.896-2-2s.896-2 2-2h107c1.104 0 2 .896 2 2s-.896 2-2 2zm-115 0h-.5c-1.104 0-2-.896-2-2s.896-2 2-2h.5c1.104 0 2 .896 2 2s-.896 2-2 2z" fill="#5e9cf7"/></g><g><path d="m157.78 224.353h75.288c1.105 0 2-.895 2-2v-188.706c0-1.105-.895-2-2-2h-75.288c-1.105 0-2 .895-2 2v188.705c0 1.105.895 2.001 2 2.001z" fill="#5e9cf7"/><path d="m233.067 31.647h-8v185.705c0 1.105-.895 2-2 2h-67.287v3c0 1.105.895 2 2 2h75.288c1.105 0 2-.895 2-2v-188.705c-.001-1.104-.896-2-2.001-2z" fill="#478cf7"/><path d="m65.163 224.353h77.288c1.105 0 2-.895 2-2v-188.706c0-1.105-.895-2-2-2h-77.288z" fill="#414042"/><path d="m65.163 31.647h14.17v192.705h-14.17z" fill="#58595b" transform="matrix(-1 0 0 -1 144.497 256)"/><path d="m65.163 81.237h79.288v8.632h-79.288z" fill="#5e9cf7" transform="matrix(-1 0 0 -1 209.615 171.107)"/><path d="m10.279 232.077 54.885-7.725v-192.705l-54.885-7.725c-1.204-.168-2.279.766-2.279 1.981v204.193c0 1.216 1.075 2.151 2.279 1.981z" fill="#5e9cf7"/><path d="m55.163 30.24v189.113l-47.163 6.637v4.106c0 1.215 1.075 2.15 2.279 1.98l54.885-7.724v-192.705z" fill="#478cf7"/></g><path d="m167.286 133.177c-1.657 0-3-1.343-3-3v-23.966c0-1.657 1.343-3 3-3s3 1.343 3 3v23.966c0 1.657-1.343 3-3 3z" fill="#d1d3d4"/><g fill="#2266d3"><g><path d="m216.291 51.56h-41.735c-1.104 0-2-.896-2-2s.896-2 2-2h41.735c1.104 0 2 .896 2 2s-.895 2-2 2z"/><path d="m216.291 59.604h-41.735c-1.104 0-2-.896-2-2s.896-2 2-2h41.735c1.104 0 2 .896 2 2s-.895 2-2 2z"/><path d="m216.291 67.65h-41.735c-1.104 0-2-.896-2-2s.896-2 2-2h41.735c1.104 0 2 .896 2 2s-.895 2-2 2z"/><path d="m216.291 75.695h-41.735c-1.104 0-2-.896-2-2s.896-2 2-2h41.735c1.104 0 2 .896 2 2s-.895 2-2 2z"/><path d="m216.291 83.74h-41.735c-1.104 0-2-.896-2-2s.896-2 2-2h41.735c1.104 0 2 .896 2 2s-.895 2-2 2z"/><path d="m216.291 91.786h-41.735c-1.104 0-2-.896-2-2s.896-2 2-2h41.735c1.104 0 2 .896 2 2s-.895 2-2 2z"/></g><g><path d="m53.377 51.56c-.079 0-.159-.004-.24-.014l-33.689-4.023c-1.097-.131-1.879-1.126-1.749-2.223s1.128-1.879 2.223-1.749l33.689 4.023c1.097.131 1.879 1.126 1.749 2.223-.12 1.016-.984 1.763-1.983 1.763z"/><path d="m53.377 59.604c-.079 0-.159-.004-.24-.014l-33.689-4.022c-1.097-.131-1.879-1.126-1.749-2.223s1.128-1.883 2.223-1.749l33.689 4.022c1.097.131 1.879 1.126 1.749 2.223-.12 1.017-.984 1.763-1.983 1.763z"/><path d="m53.377 67.65c-.079 0-.159-.004-.24-.014l-33.689-4.022c-1.097-.131-1.879-1.126-1.749-2.223s1.128-1.879 2.223-1.749l33.689 4.022c1.097.131 1.879 1.126 1.749 2.223-.12 1.016-.984 1.763-1.983 1.763z"/><path d="m53.377 75.695c-.079 0-.159-.004-.24-.014l-33.689-4.023c-1.097-.131-1.879-1.126-1.749-2.223s1.128-1.881 2.223-1.749l33.689 4.023c1.097.131 1.879 1.126 1.749 2.223-.12 1.017-.984 1.763-1.983 1.763z"/><path d="m53.377 83.74c-.079 0-.159-.004-.24-.014l-33.689-4.022c-1.097-.131-1.879-1.126-1.749-2.223.13-1.096 1.128-1.878 2.223-1.749l33.689 4.022c1.097.131 1.879 1.126 1.749 2.223-.12 1.017-.984 1.763-1.983 1.763z"/><path d="m53.377 91.786c-.079 0-.159-.004-.24-.014l-33.689-4.022c-1.097-.131-1.879-1.126-1.749-2.223s1.128-1.881 2.223-1.749l33.69 4.022c1.097.131 1.879 1.126 1.749 2.223-.121 1.016-.985 1.763-1.984 1.763z"/></g><g><circle cx="22.417" cy="108.222" r="4.358"/><circle cx="22.417" cy="126.155" r="4.358"/></g></g><g><path d="m135.217 224.353h-60.819c-2.761 0-5-2.239-5-5v-60.818c0-2.761 2.239-5 5-5h60.818c2.761 0 5 2.239 5 5v60.818c.001 2.761-2.238 5-4.999 5z" fill="#ffa91a"/><path d="m135.216 153.534v60.818c0 2.761-2.239 5-5 5h-60.818c0 2.761 2.239 5 5 5h60.818c2.761 0 5-2.239 5-5v-60.818c0-2.761-2.238-5-5-5z" fill="#f79219"/><path d="m108.712 176.627h-7.809c-2.209 0-4-1.791-4-4v-19.093h15.809v19.093c0 2.209-1.791 4-4 4z" fill="#8c3f0a"/><path d="m108.712 176.627c2.209 0 4-1.791 4-4v-19.093h-7.904v23.093z" fill="#7c3108"/><g fill="#6d2e03"><path d="m115.438 214.913h1.999c.335 0 .606-.271.606-.606v-8.297h1.756c.493 0 .78-.557.493-.958l-3.362-4.709c-.242-.339-.745-.339-.987 0l-3.362 4.709c-.286.401 0 .958.493.958h1.756v8.297c.002.335.273.606.608.606z"/><path d="m127.561 214.913h1.999c.335 0 .606-.271.606-.606v-8.297h1.756c.493 0 .78-.557.493-.958l-3.362-4.709c-.242-.339-.745-.339-.987 0l-3.362 4.709c-.286.401 0 .958.493.958h1.756v8.297c.002.335.273.606.608.606z"/><path d="m131.586 219.655h-18.172c-.837 0-1.515-.678-1.515-1.515 0-.837.678-1.515 1.515-1.515h18.172c.837 0 1.515.678 1.515 1.515 0 .836-.679 1.515-1.515 1.515z"/></g></g></g></svg>