<svg viewBox="0 0 1000 1000" xmlns="http://www.w3.org/2000/svg"><rect fill="#cfe0ff" height="948.21" rx="474.11" width="948.21" x="25.9" y="25.94"/><path d="m700.76 138c184.32-40.08 228.18 20.25 237.5 33.55a201.39 201.39 0 0 1 36.16 108.45c.44 13.52-.55 27.29-5.29 39.95-12.32 32.91-46 54.6-80.15 62.9-82.44 20-101.74 23.28-149.27 31.06-3.71.6-7.9-.72-10.89 1.55-2.7 2-3.66 5.6-4.62 8.84-15.91 54-48.5 48.61-72.3 58 14.3-18.74 18.48-33.32 16.21-56.78-51.55.6-80.66-14.87-104.89-46.57s-22.14-92.85-15.34-132.16c3.57-20.62 11.12-41.39 26.12-56.05 11.07-10.82 25.4-17.59 39.67-23.6a601.23 601.23 0 0 1 87.09-29.14" fill="#ff983b"/><path d="m701.89 142.12c34.58-7.5 69.83-12.91 105.27-13.36a298 298 0 0 1 38.72 1.85c3 .35 4.31.53 7.38 1 2.67.41 5.34.87 8 1.38 4.76.92 9.49 2 14.16 3.29 4.17 1.14 8.3 2.44 12.36 3.91q2.81 1 5.55 2.15c.26.11 1.59.67.47.19l1.33.58c.86.37 1.72.76 2.58 1.16a112.1 112.1 0 0 1 16.75 9.53c1.16.8 2.29 1.63 3.42 2.47.53.41.49.4-.07-.05l.78.62c.51.4 1 .8 1.5 1.22 1.77 1.46 3.48 3 5.12 4.6a89.65 89.65 0 0 1 7.13 8c.51.63-.73-1-.27-.35l.32.42.59.79c.34.46.68.93 1 1.4a193.39 193.39 0 0 1 10.65 16.75 198.29 198.29 0 0 1 20.74 53.51c4.29 18.72 6.45 38.82 4 57.95a79.17 79.17 0 0 1 -22.06 45.1c-11.32 11.7-25.53 20.58-40.62 26.57a188.94 188.94 0 0 1 -25.32 7.57q-14 3.39-28.06 6.71c-24.84 5.86-49.74 11.45-74.84 16-10.59 1.93-21.2 3.69-31.81 5.44a72 72 0 0 1 -8.94 1.34c-5 .16-9.67-.18-13.26 3.93-3 3.44-3.9 8.06-5.24 12.29a102.2 102.2 0 0 1 -4.67 12.2c-5.34 11.49-12.86 21.05-23.57 27a60.31 60.31 0 0 1 -13.33 5.43c-4.62 1.39-9.33 2.47-14 3.65a104.87 104.87 0 0 0 -12.87 3.91l4.82 6.26c6.36-8.36 11.85-17.47 14.75-27.63s3-20.85 2-31.3a4.36 4.36 0 0 0 -4.27-4.27c-26.31.27-53-3.69-75-18.81-9.58-6.59-18-15.25-25.35-24.52-7.66-9.7-12.27-21.21-15.23-33.13-6.67-26.86-6-55.61-2.62-82.9 1.72-14.1 4.34-28.42 9.76-41.71 6-14.61 15.63-27 28.89-35.65 14.4-9.39 31-15.57 47-21.62q26.07-9.87 53-17.3 6.66-1.85 13.37-3.53c5.32-1.34 3.07-9.58-2.27-8.23q-28 7.06-55.25 16.76c-17.26 6.15-34.82 12.63-51 21.23-15.12 8-27.82 19.13-36.24 34.17-7.83 14-11.86 29.62-14.27 45.38-4.34 28.41-5.63 57.92-.5 86.31 2.38 13.23 6.41 26.53 13.52 38a117.18 117.18 0 0 0 25.11 28.22 106.86 106.86 0 0 0 32.8 18.39c13.48 4.68 27.81 6.69 42 7.29 4.09.17 8.17.22 12.26.18l-4.26-4.27c.91 9.72 1 19.57-1.75 29s-8 17.82-13.89 25.6c-2.18 2.88 1.48 7.58 4.82 6.27 9-3.53 18.6-5 27.78-7.84 10.89-3.38 21-8.8 28.78-17.28a73 73 0 0 0 11.93-17.95 117.43 117.43 0 0 0 5-12.33c.78-2.27 1.45-4.55 2.15-6.84.5-1.67 1-3.6 2.22-4.89s3.15-1 4.78-1a38.4 38.4 0 0 0 6.59-.55l9.08-1.49q8.22-1.37 16.43-2.76c23.17-4 46.17-8.71 69.09-13.94 18.19-4.12 36.19-8.34 54.19-12.84a138.43 138.43 0 0 0 46.55-21.11c13.68-9.77 25.59-22.41 32.79-37.73 8.63-18.38 9.41-39 7.64-59a205.32 205.32 0 0 0 -36.74-100.5 86.65 86.65 0 0 0 -15.38-16.62c-10.61-8.73-22.86-15.13-35.86-19.79-20.06-7.29-41.55-10.39-62.8-11.41-32.71-1.58-65.57 1.91-97.77 7.48-10 1.73-19.94 3.7-29.85 5.85-5.36 1.16-3.09 9.39 2.27 8.23z" fill="#ff983b"/><path d="m362 35.31c127.52-27.72 157.87 14 164.32 23.21a139.42 139.42 0 0 1 25 75c.3 9.35-.39 18.88-3.67 27.64-8.51 22.84-31.82 37.84-55.44 43.55-57 13.87-70.39 16.1-103.27 21.49-2.57.42-5.46-.5-7.53 1.07-1.87 1.42-2.54 3.87-3.2 6.12-11 37.35-33.55 33.63-50 40.15 9.9-13 12.79-23.06 11.22-39.29-35.67.42-55.8-10.29-72.57-32.21s-15.32-64.24-10.61-91.44c2.47-14.29 7.69-28.66 18.06-38.8 7.66-7.49 17.58-12.17 27.45-16.33a417.34 417.34 0 0 1 60.24-20.16" fill="#f96632"/><path d="m363.13 39.43c24.15-5.24 47.71-8.88 72.48-9.2a206.74 206.74 0 0 1 26.79 1.28l1.2.15c.3 0 1.94.25.65.08 1 .13 1.94.27 2.9.42q2.78.42 5.53 1c3.29.64 6.56 1.39 9.79 2.28 2.89.79 5.75 1.68 8.56 2.71 1.29.46 2.57 1 3.84 1.48.33.14 1.31.65 0 0 .29.15.61.26.92.4l1.78.8a78.33 78.33 0 0 1 11.59 6.59c.8.56 1.58 1.13 2.36 1.72.62.46 0 0-.31-.24.17.15.37.28.54.42l1 .84c1.22 1 2.41 2.08 3.54 3.19a58.45 58.45 0 0 1 4.93 5.5c.43.53-.78-1-.39-.51l.22.29c.14.18.28.36.41.55s.47.64.7 1a134.81 134.81 0 0 1 21.58 48.29 125.47 125.47 0 0 1 2.93 19 100.75 100.75 0 0 1 -.21 20.69 58.85 58.85 0 0 1 -2.09 9.39c-.26.85-.56 1.7-.87 2.54-.1.28-.21.55-.31.82 0 0-.54 1.31-.24.59-.56 1.32-1.19 2.63-1.86 3.9a58.48 58.48 0 0 1 -4.33 6.95 63.36 63.36 0 0 1 -5.18 6.09 68.43 68.43 0 0 1 -12.73 10.38 83.25 83.25 0 0 1 -7.5 4.32c-1.26.65-2.53 1.26-3.81 1.85q-.91.42-1.83.81c-.77.34.91-.36-.42.18l-1.23.5a130.15 130.15 0 0 1 -17.52 5.23q-9.69 2.35-19.41 4.65c-17.19 4-34.41 7.92-51.78 11.08-7.32 1.33-14.66 2.55-22 3.76l-3 .49-1.62.26-.65.11c.94-.14-.5 0-.58 0-3.79.12-7.36 0-10.1 3.11-2.25 2.55-3 5.92-4 9.07a68.37 68.37 0 0 1 -3.09 8.13 55.5 55.5 0 0 1 -3.64 6.64c-.65 1-1.33 2-2.06 2.94.54-.71-.2.23-.4.47-.42.51-.85 1-1.3 1.49a41.83 41.83 0 0 1 -4.3 4c.93-.77-.3.22-.54.39-.4.28-.79.55-1.19.81-.79.52-1.59 1-2.41 1.46s-1.46.77-2.2 1.13c-.41.2-.82.38-1.24.57l-.49.21c1.16-.5.16-.07-.1 0-1.6.64-3.23 1.19-4.88 1.68-3.2 1-6.45 1.72-9.69 2.53a72.43 72.43 0 0 0 -8.9 2.7l4.82 6.27c4.46-5.88 8.29-12.29 10.33-19.44s2.16-14.65 1.47-22c-.22-2.28-1.78-4.29-4.27-4.27a143 143 0 0 1 -16.16-.67l-1.73-.19-.85-.1c-.11 0-1-.13-.49-.07l-.69-.1-.83-.13c-.62-.09-1.23-.19-1.84-.3q-3.45-.61-6.84-1.48-3.14-.81-6.2-1.86c-.93-.33-1.85-.67-2.77-1l-1.35-.55c.84.35-.71-.32-1-.44a68.75 68.75 0 0 1 -10.48-5.91c-.82-.57-1.63-1.15-2.43-1.75-.1-.08-.69-.53-.27-.2s-.16-.13-.26-.21l-1.13-.99c-1.6-1.33-3.15-2.73-4.65-4.18a99 99 0 0 1 -8.42-9.42c-.12-.15-.64-.82-.17-.2l-.45-.59c-.28-.39-.57-.77-.84-1.16-.63-.9-1.22-1.81-1.78-2.74a53.56 53.56 0 0 1 -2.94-5.62c-.21-.46-.42-.92-.62-1.39.31.74-.2-.52-.3-.77-.42-1.09-.82-2.19-1.2-3.31-.72-2.15-1.35-4.35-1.9-6.55s-1.05-4.58-1.46-6.89c-.2-1.18-.39-2.36-.57-3.55l-.12-.84c-.1-.72.08.59 0-.13s-.18-1.42-.26-2.13c-.54-4.88-.83-9.78-.92-14.69a206.63 206.63 0 0 1 1.6-28.79c.06-.52.13-1 .2-1.56 0-.26.06-.52.1-.77-.11.82 0 .15 0 0 .16-1.12.32-2.24.49-3.37.37-2.38.77-4.76 1.26-7.13a90 90 0 0 1 4.66-15.66 61.93 61.93 0 0 1 7.5-13.13 49.39 49.39 0 0 1 11.88-10.75c9.91-6.5 21.13-10.68 32.15-14.84q18-6.83 36.64-12c3.07-.85 6.16-1.66 9.25-2.44a4.27 4.27 0 0 0 -2.27-8.23q-19.38 4.89-38.23 11.59-9.27 3.32-18.39 7.05c-5.82 2.39-11.66 4.82-17.22 7.78-10.65 5.65-19.62 13.51-25.55 24.11-5.47 9.78-8.32 20.69-10 31.7-3 19.91-3.95 40.52-.35 60.42 1.67 9.25 4.51 18.57 9.49 26.62a82.1 82.1 0 0 0 17.63 19.78 75.6 75.6 0 0 0 23.28 13.05c9.42 3.28 19.47 4.67 29.41 5.1 2.82.12 5.65.15 8.48.12l-4.27-4.27a73 73 0 0 1 .31 11.06c-.05.84-.12 1.67-.21 2.51 0 .17-.17 1.36-.05.49l-.15 1a43.26 43.26 0 0 1 -1.04 4.72 41.18 41.18 0 0 1 -1.5 4.34c.31-.77-.19.44-.21.47-.16.38-.34.75-.52 1.12-.36.76-.74 1.5-1.15 2.24a72.5 72.5 0 0 1 -6.09 9.23c-2.19 2.88 1.47 7.58 4.82 6.27 6.21-2.44 12.86-3.44 19.22-5.42 7.74-2.41 14.95-6.26 20.48-12.29a51.49 51.49 0 0 0 8.46-12.69 82.82 82.82 0 0 0 3.6-8.85c.54-1.56 1-3.14 1.49-4.73a6.89 6.89 0 0 1 1.2-2.8c.49-.56.3-.27 0-.13s.75-.19.73-.19c-.64.1.11 0 .21 0h1.39a27.92 27.92 0 0 0 4.91-.43l6.29-1q5.68-.94 11.36-1.91c16-2.75 32-6 47.8-9.65 12.51-2.85 25-5.78 37.47-8.89a96.52 96.52 0 0 0 32.53-14.74c9.64-6.88 18.08-15.77 23.15-26.57 6.08-12.94 6.72-27.41 5.47-41.45a143.38 143.38 0 0 0 -25.6-70.19 61.22 61.22 0 0 0 -10.83-11.74 85.25 85.25 0 0 0 -25.38-14.13c-14-5.08-29-7.23-43.8-7.94-22.74-1.1-45.6 1.35-68 5.22q-10.35 1.85-20.64 4.05a4.27 4.27 0 1 0 2.27 8.23z" fill="#f96632"/><g fill="#fffefd" stroke="#fffefd" stroke-miterlimit="10" stroke-width="2.84"><ellipse cx="454.39" cy="120.51" rx="5.72" ry="6.93" transform="matrix(.644 -.765 .765 .644 69.43 390.31)"/><ellipse cx="398.9" cy="129.53" rx="5.72" ry="6.93" transform="matrix(.644 -.765 .765 .644 42.79 351.09)"/><ellipse cx="343.41" cy="138.56" rx="5.72" ry="6.93" transform="matrix(.644 -.765 .765 .644 16.15 311.87)"/></g><path d="m567.5 766.45c-5.19-19.92-10.35-41.25-3.65-60.71 3.17-9.18 8.81-17.31 15-24.81a6.55 6.55 0 0 1 2-1.83c1.8-.9 4.08 0 5.34 1.6a13.44 13.44 0 0 1 2.19 5.56l2.62 11.61c3.14-18.29 10.9-35.46 19.61-51.84 1.92-3.63 4.06-7.4 7.6-9.49s8.87-1.68 10.88 1.9c1.41 2.52.78 5.64.11 8.45l-8.2 34.74c2.87-3.17 8.44-2.71 11.5.28s3.88 7.73 3.1 12c4.25-2.91 10.14-5.79 14.12-2.53 3.27 2.68 2.86 7.7 2.15 11.87 2-4.85 10-5.34 12.56-.77a14.12 14.12 0 0 1 1.27 6.12c.41 7.58.79 15.38-1.66 22.57s-8.42 13.7-16 14.44a75.31 75.31 0 0 1 -36.64 58.34" fill="#f96632"/><path d="m571.61 765.31c-1.94-7.46-3.84-14.94-5.15-22.54-.16-.91-.31-1.83-.45-2.74-.07-.45-.13-.91-.2-1.37a5.21 5.21 0 0 1 -.09-.69c-.22-1.82-.42-3.64-.55-5.46a80.7 80.7 0 0 1 -.08-11.32 50.05 50.05 0 0 1 1.69-10.4q.63-2.4 1.48-4.74c.29-.81.6-1.62.94-2.42-.31.73.27-.58.26-.57.24-.53.49-1 .74-1.57a89.63 89.63 0 0 1 11.37-17.21c.26-.31.51-.63.78-.93a5.8 5.8 0 0 1 .55-.56c-.37.26-.34.26.08 0-.11 0-1.39.51-.49.23-.56-.1-.59-.09-.1 0s.45.15 0 0l.32.18c-.37-.32-.38-.32 0 0s.33.34.05 0a5.87 5.87 0 0 1 .43.67c.05.08.54 1.24.24.43.18.5.34 1 .48 1.54 1.16 4.35 2 8.8 3 13.18a4.31 4.31 0 0 0 4.12 3.14c1.75-.08 3.78-1.26 4.11-3.14 2.82-16.24 8.9-30.78 16.23-45.15a101.53 101.53 0 0 1 5.38-9.88l.77-1.11c-.4.57.13-.15.28-.34a18.54 18.54 0 0 1 1.89-1.87c-.53.46.16-.09.37-.22s.7-.37 1-.57-.23.11-.28.12c.15 0 .3-.11.46-.15.41-.11.83-.19 1.25-.3s-.35.06-.34.05a1.54 1.54 0 0 1 .48 0 7.73 7.73 0 0 0 1 0c.57-.06-.74-.21-.19 0 .14.05.31.06.46.1s1.19.39.65.17.38.24.57.35c.66.38-.47-.46.07.09s-.29-.59.09.09a4.82 4.82 0 0 1 .35.63c-.17-.42-.09-.17 0 .11.19.78.07-.34.09.46a13.84 13.84 0 0 1 0 1.44 6.2 6.2 0 0 1 -.06.62c0-.1.12-.57 0-.09s-.21 1.1-.34 1.65c-.47 2.05-1 4.1-1.46 6.15l-6.92 29.2c-1 4 4.08 7.34 7.13 4.15a5.1 5.1 0 0 1 .47-.46c-.46.32-.49.35-.1.08s1.42-.55.41-.27c.41-.11.81-.23 1.24-.32-1.14.24.19 0 .48 0h.66q-.88-.13-.15 0c.42.12.85.23 1.27.36-1-.3.24.13.48.28a6.65 6.65 0 0 1 .56.36c-.38-.31-.45-.36-.21-.16a10.33 10.33 0 0 0 .88.87c.32.38.32.39 0 0 .14.2.27.41.4.63s.75 1.53.39.65a11.8 11.8 0 0 1 .47 1.42 12.68 12.68 0 0 1 .3 1.49c-.14-1 0 .58 0 .76a13 13 0 0 1 0 1.53c0 .26 0 .51-.07.76.07-.5.06-.51 0 0a4.38 4.38 0 0 0 1.53 4.49 4.22 4.22 0 0 0 4.74.33c.92-.62 1.86-1.21 2.83-1.75.46-.25.94-.5 1.42-.72.14-.07 1-.38.25-.12.24-.09.48-.19.73-.27a12.74 12.74 0 0 1 1.46-.42l.73-.14c-.92.15-.09 0 .12 0s.48 0 .71 0c.55 0-.62-.19-.11 0a5.54 5.54 0 0 0 .67.18c.47.08-.69-.45.1.06a6.33 6.33 0 0 1 .61.39c-.3-.23-.33-.27 0 0s.16.2 0-.09c.12.18.25.37.36.56s.38 1 .21.39 0 .19.06.29.12.44.16.66.14.86.07.3 0 .48 0 .49v.72 1.46l-.06.73c0 .12-.11 1.13-.05.52s0 .24 0 .34c0 .29-.09.58-.14.88a4.34 4.34 0 0 0 2.47 5c1.76.74 4.49.2 5.33-1.75.15-.33.32-.63.5-1 .37-.68-.11.26-.19.23l.36-.38a4 4 0 0 0 .4-.35c-.05.38-.72.46-.22.21l.46-.27c.63-.39-.64.18-.17 0s.69-.21 1-.3c1-.27-.83 0 .2 0h1.09c.56 0-.87-.19-.33-.06.22.06.44.09.66.14l.51.16c.58.15-.21.14-.28-.14 0 0 .92.52.92.52s-.78-.73-.25-.18a4.4 4.4 0 0 0 .38.37c.47.44-.32-.1-.17-.24l.38.65c.33.6-.15-.51 0 .14a7.32 7.32 0 0 1 .23.8c.07.27.11.55.17.82.14.68 0-.58 0 .12 0 1.24.16 2.48.23 3.72.12 2.52.22 5 .2 7.56 0 1.14-.06 2.28-.13 3.41 0 .61-.09 1.21-.15 1.81 0 .3-.07.61-.11.91.1-.71-.1.66-.1.65a32.23 32.23 0 0 1 -1.82 6.63c.33-.83-.2.4-.32.65-.22.43-.45.87-.69 1.29s-.5.84-.77 1.25c-.13.21-.27.41-.41.61s-.79 1-.2.31a22 22 0 0 1 -2.21 2.41l-.54.49c-.08.07-.83.71-.4.35s-.18.13-.28.2l-.74.5c-.49.32-1 .61-1.53.88l-.48.23c-.44.24.64-.22-.12 0-.56.19-1.11.38-1.69.52l-.69.16c-.23 0-1.3.17-.29 0a4.42 4.42 0 0 0 -4.27 4.27c-.09 1.13-.2 2.25-.34 3.38 0 .17-.13.83 0 0 0 .25-.07.5-.11.75-.09.62-.19 1.24-.31 1.85q-.62 3.43-1.56 6.79c-.62 2.17-1.33 4.32-2.14 6.43-.2.53-.41 1-.62 1.57-.06.15-.32.76 0 0q-.13.35-.3.69c-.47 1.09-1 2.17-1.51 3.24a76.8 76.8 0 0 1 -7.3 12.02c-.16.21-1 1.27-.47.63-.35.45-.71.89-1.06 1.33-.76.92-1.54 1.82-2.34 2.71q-2.26 2.52-4.76 4.82-1.38 1.29-2.82 2.49l-1.46 1.19c-.64.51-.16.13 0 0l-.9.68a70.38 70.38 0 0 1 -6.61 4.35 4.27 4.27 0 1 0 4.31 7.37 80 80 0 0 0 35.65-45.38 77.79 77.79 0 0 0 3.11-16.64l-4.27 4.27c11.53-1.27 19.25-11.29 21.29-22.18 1.14-6.1 1-12.26.65-18.42-.16-3.11-.32-6.46-2-9.19a10.75 10.75 0 0 0 -6.1-4.56c-5-1.49-11.52.54-13.7 5.57l7.8 3.28c1-6.17 1.22-13.29-4.7-17.12-5.69-3.67-12.87-.39-17.84 3l6.22 4.8c1.08-6.19-.15-13-5.37-17.08-4.74-3.65-12.09-3.77-16.36.7l7.13 4.16 6.64-28c.55-2.32 1.11-4.64 1.65-7a21.64 21.64 0 0 0 .79-6.69 10.59 10.59 0 0 0 -8-9.73 13.86 13.86 0 0 0 -11.76 2.65c-3.26 2.52-5.43 6.06-7.35 9.65a270.08 270.08 0 0 0 -11.64 24.49 137.44 137.44 0 0 0 -8.49 28.55h8.23c-1-4.27-1.87-8.56-2.94-12.8s-3.6-8.5-8.22-9.27a8.12 8.12 0 0 0 -7.25 2.22 41.6 41.6 0 0 0 -3.63 4.42 108.5 108.5 0 0 0 -7.13 10.21 63 63 0 0 0 -8.61 22.77 88.32 88.32 0 0 0 .11 25.77 231.49 231.49 0 0 0 5.93 27.56 4.26 4.26 0 1 0 8.22-2.27z" fill="#f96632"/><path d="m422.82 918q26.88-45.5 53.78-91c4.79-8.1 9.73-16.38 17-22.36 8.86-7.28 20.35-10.46 31.62-12.63 2.38-.46 4.85-.91 6.86-2.28a14.39 14.39 0 0 0 3.14-3.14c7.52-9.56 12.51-23.13 24.33-26 5.86-1.41 12 .35 17.68 2.28a282 282 0 0 1 35 14.5c5.52 2.73 11.34 6 13.77 11.7 4 9.4-3.09 19.57-9.77 27.32 7.55 1.36 12.61 9.1 13.37 16.73s-1.82 15.16-4.5 22.34c-12.21 32.69-27.29 64.4-46.44 93.57-7.46 11.35-20.47 9-32.47 15.35-17.11 9.08-37.82 6.37-57 3.43"/><path d="m426.5 920.16 36-60.95 18-30.4a142.75 142.75 0 0 1 8.22-12.8l.51-.68c-.11.15-.42.53.11-.13.35-.44.7-.87 1.06-1.3.85-1 1.74-2 2.67-2.95s1.69-1.67 2.58-2.45l1.29-1.08c1-.86-.34.24.3-.24.27-.2.55-.41.84-.61a46.8 46.8 0 0 1 6.43-3.83l1.49-.74 1-.42c.64-.29-.52.21.13-.06 1.23-.52 2.47-1 3.73-1.42a108.2 108.2 0 0 1 14.28-3.73 30.71 30.71 0 0 0 8-2.31c2.62-1.31 4.45-3.56 6.19-5.84 2.48-3.25 4.6-6.75 6.83-10.17 1.09-1.68 2.21-3.34 3.41-5l.41-.54c-.57.74-.09.12 0-.06.28-.35.56-.69.85-1 .67-.78 1.37-1.55 2.11-2.27s1.36-1.21 2-1.81c.44-.39-.62.37-.1.09a6.86 6.86 0 0 0 .64-.46c.4-.26.8-.51 1.21-.75s.84-.46 1.27-.67l.58-.27c-.85.41-.34.13-.13.06a24 24 0 0 1 3.32-.91c.75-.13-.52 0 .23 0l.91-.07h2.06s1.22.07 1.83.14c-.59-.07.17 0 .24 0l1.38.25a67.26 67.26 0 0 1 8.09 2.33q8 2.7 15.76 5.88l2 .82 1.17.49c1.31.55 2.61 1.12 3.91 1.7q3.9 1.73 7.75 3.58c2.25 1.08 4.52 2.17 6.7 3.4.89.5 1.77 1 2.62 1.59.47.32.93.66 1.4 1s-.46-.41 0 0c.27.25.57.47.85.72a21.22 21.22 0 0 1 2.17 2.28c-.52-.65.26.41.4.64a18.24 18.24 0 0 1 .89 1.63c-.33-.66 0-.08 0 .08s.22.62.31.94a15 15 0 0 1 .38 1.71c-.14-.89 0 .55 0 .78a17.59 17.59 0 0 1 -.06 1.92c-.06.84 0 .19 0 0 0 .26-.09.52-.14.77-.12.58-.26 1.15-.42 1.72s-.36 1.15-.57 1.71q-.13.38-.3.75c.28-.67-.17.35-.23.49a43.82 43.82 0 0 1 -3.79 6.35c-.37.52-.76 1-1.14 1.55 0 .07-.49.64-.11.16l-.53.66c-.78 1-1.59 1.94-2.4 2.89a4.39 4.39 0 0 0 -1.1 4.15 4.2 4.2 0 0 0 3 3 24.11 24.11 0 0 1 2.35.66c-.69-.21-.1-.05.24.12s.81.43 1.2.67c.15.1 1.09.75.69.46s.38.32.5.43a19.1 19.1 0 0 1 1.82 1.89c.53.61-.26-.41.19.26.24.34.47.68.69 1a24.55 24.55 0 0 1 1.27 2.37c.35.74-.15-.46.12.31.14.39.29.79.42 1.19a22.72 22.72 0 0 1 .61 2.43c.07.35.17 1.31.1.45 0 .51.1 1 .13 1.52a29.55 29.55 0 0 1 0 3.26c0 .54-.07 1.08-.13 1.62 0 0-.08.73 0 .35s-.06.38 0 .36c-.19 1.16-.42 2.3-.69 3.44a102.71 102.71 0 0 1 -4 12.3 503.83 503.83 0 0 1 -20 46.41 418 418 0 0 1 -25.14 44.27l-.81 1.22s-.4.55-.12.17-.17.2-.24.29a19.48 19.48 0 0 1 -1.71 1.81c-.29.27-.6.53-.9.79-.07 0-.52.39-.1.08s-.14.09-.24.17c-.64.44-1.3.85-2 1.22s-1.27.65-1.92.95 0 0 .11 0c-.16.06-.31.13-.47.18-.41.16-.83.32-1.25.46-1.5.53-3 1-4.56 1.36-3.16.83-6.36 1.55-9.47 2.56a107.13 107.13 0 0 0 -10.68 4.71s-.65.28-.26.12-.26.1-.27.1l-1.38.53c-1 .36-2 .69-3 1a55 55 0 0 1 -5.7 1.37c-.89.17-1.79.31-2.69.45-.5.08 0 0 .09 0l-.84.1-1.47.16c-2 .18-4 .29-5.94.33a113 113 0 0 1 -12.07-.44c-2-.16-3.89-.37-5.84-.6-1-.12-2-.24-3-.38 0 0-.73-.09-.3 0h-.29l-1.72-.25c-2-.28-4-.58-5.95-.88-2.2-.34-4.7.55-5.25 3-.47 2 .62 4.88 3 5.24 16.62 2.56 34.24 5.15 50.67.11a93 93 0 0 0 11.67-5s.63-.28.19-.09.26-.1.37-.14c.4-.17.81-.32 1.22-.47.87-.32 1.75-.61 2.63-.88 1.67-.51 3.35-1 5-1.37 6.83-1.73 13.82-3.55 19-8.64 3-3 5.18-6.88 7.43-10.45q3.55-5.64 6.91-11.38 6.71-11.49 12.7-23.39a528.71 528.71 0 0 0 21.59-49.14c3.26-8.52 7-17.5 6.45-26.81-.44-7.85-4.22-15.92-11.21-20a17.57 17.57 0 0 0 -5.38-2.05l1.88 7.14c6.82-7.94 14.57-18.46 11.52-29.59-2.9-10.59-14.18-15.23-23.23-19.41q-8.24-3.81-16.71-7.12c-5.41-2.11-10.9-4.2-16.48-5.81s-11.83-2.57-17.51-.57a26.86 26.86 0 0 0 -10.9 7.27 74.06 74.06 0 0 0 -7.81 10.56c-1.19 1.85-2.37 3.71-3.6 5.53-.54.81-1.09 1.6-1.66 2.39-.3.41-.6.82-.91 1.22.11-.15.58-.72 0 0-.26.32-.51.63-.79.94a12 12 0 0 1 -1.3 1.27c-.52.44.81-.37-.29.18-.26.13-.5.28-.75.41s-.74.29-.15.07l-.81.28c-.76.23-1.53.41-2.3.57-2.56.53-5.12 1-7.67 1.6a87.83 87.83 0 0 0 -15.23 5 50.36 50.36 0 0 0 -13.51 8.65 65.45 65.45 0 0 0 -10.23 12.27c-3.05 4.54-5.76 9.3-8.54 14l-9.38 15.79-37.3 63.13-4.57 7.72a4.27 4.27 0 0 0 7.37 4.31z"/><path d="m706.2 715.11c-8.39-37.36-17.77-78.83-29.29-115.33.57 1.9-28.63 5.51-31.84 5.53-37.69.21-77.94-14.17-96.37-49.14-25.27-48-4.78-106.57 38-136.81 46.44-32.78 116.69-20.47 146.38 29.51a94.61 94.61 0 0 1 12.1 32.8c7.86 47.57-20.94 96.12-63.79 116.48" fill="#ffd3b3"/><path d="m710.32 714c-6.83-30.35-13.68-60.72-22-90.71q-3.43-12.36-7.27-24.62a4.27 4.27 0 0 0 -8.23 2.27 4 4 0 0 1 1.69-4.42 2.56 2.56 0 0 1 -.4.22c.29-.15 1.2-.43.46-.21l-.87.28c-1.29.37-2.61.65-3.93.91-3.72.75-7.48 1.32-11.23 1.85l-1.53.21h.24l-.75.1-2.87.36c-1.61.2-3.21.39-4.82.56a66.65 66.65 0 0 1 -9.16.23c-2.73-.09-5.47-.25-8.19-.49-1.33-.12-2.66-.26-4-.41l-.84-.1-.69-.09-.69-.1-1.24-.24a131.67 131.67 0 0 1 -16.09-3.47q-3.84-1.1-7.61-2.43c-1.25-.45-2.49-.92-3.73-1.41l-1.74-.7c.77.32-.49-.22-.52-.23l-1.15-.51a100.23 100.23 0 0 1 -14.2-7.76c-1-.68-2.05-1.39-3.06-2.11l-1.67-1.23-.12-.09-1-.76q-3.17-2.53-6.07-5.34a74.12 74.12 0 0 1 -10.12-12 84.79 84.79 0 0 1 -12.73-29.82c-.62-2.71-1.13-5.46-1.5-8.22a10.35 10.35 0 0 0 -.13-1.13c-.07-.62-.14-1.24-.19-1.86q-.2-2.07-.3-4.14a100.56 100.56 0 0 1 .46-16.09c.08-.68.16-1.36.25-2-.1.75 0 0 0-.09l.15-1c.21-1.43.46-2.86.73-4.28.5-2.57 1.09-5.13 1.77-7.66s1.5-5.18 2.38-7.72c.44-1.25.89-2.48 1.37-3.71.22-.58.46-1.16.69-1.74.13-.32.26-.64.4-1-.3.72.21-.49.22-.51a116.38 116.38 0 0 1 7.51-14.43q2.15-3.5 4.51-6.83c.78-1.08 1.57-2.16 2.38-3.21-.11.14-.42.53.1-.14.22-.28.44-.55.65-.83.49-.6 1-1.2 1.47-1.8a117.36 117.36 0 0 1 11.36-11.92q3-2.71 6.14-5.22c-.1.07 1-.79.57-.46s.67-.51.58-.44c.51-.39 1-.77 1.54-1.14 1.14-.84 2.3-1.66 3.47-2.44a97.69 97.69 0 0 1 13.08-7.37c1-.48 2.09-.95 3.14-1.4-.72.31-.1.05 0 0l1.06-.43 1.78-.68c2.32-.87 4.66-1.66 7-2.36a111.26 111.26 0 0 1 14.44-3.15c.22 0 1.07-.15.18 0l.75-.09 1.88-.22c1.26-.14 2.52-.25 3.78-.34q3.67-.25 7.37-.27a108.48 108.48 0 0 1 14.52.93c-1-.13.23 0 .36.06l.75.11 1.87.31c1.24.21 2.47.44 3.71.7 2.34.48 4.66 1.05 7 1.69s4.82 1.43 7.19 2.28c1.07.38 2.13.78 3.18 1.19l1.75.71c.15.06.75.32 0 0l1 .45a102.25 102.25 0 0 1 13 6.88c2.08 1.31 4.12 2.7 6.1 4.16.46.33.91.68 1.36 1-.64-.49 0 0 .19.15l.74.59c1 .79 2 1.61 2.92 2.44a94.21 94.21 0 0 1 10.47 10.67l1.1 1.35c.15.18 1.14 1.45.66.82q1.18 1.55 2.31 3.15c1.56 2.23 3 4.52 4.39 6.88a90.13 90.13 0 0 1 12 52.9c-.1 1.36-.23 2.72-.39 4.07 0 .29-.06.57-.1.86 0 0-.19 1.43-.07.57-.1.71-.2 1.42-.32 2.12-.44 2.76-1 5.5-1.66 8.21a109.67 109.67 0 0 1 -5.2 15.92c-.06.15-.42 1-.15.37l-.34.79c-.29.66-.59 1.31-.89 2-.6 1.3-1.22 2.59-1.87 3.88-1.23 2.43-2.55 4.83-4 7.17s-3 4.89-4.7 7.24c-.74 1.07-1.5 2.11-2.28 3.15l-.66.86c-.49.65.61-.76-.26.33-.45.57-.89 1.13-1.35 1.69a119.58 119.58 0 0 1 -11.56 12.26q-3.18 2.93-6.58 5.61l-.68.53-.16.12-1.74 1.3c-1.16.85-2.34 1.67-3.53 2.48a111.62 111.62 0 0 1 -14.26 8.14c-2.08 1-2.62 4-1.53 5.84a4.38 4.38 0 0 0 5.84 1.53 120.42 120.42 0 0 0 51.7-47.88c11.86-20.33 17.83-44.44 15-67.94a99.43 99.43 0 0 0 -34.19-64 110.32 110.32 0 0 0 -118.4-14c-20.2 10-37.1 27-48.34 46.38-11.43 19.73-17.41 43-15.37 65.78 2.1 23.36 12.13 46.12 29.8 61.84 17.51 15.59 40.21 23.72 63.22 26.53a103.27 103.27 0 0 0 24.53.47c7.78-.91 15.72-1.79 23.34-3.65 3.4-.83 7.16-2.4 6.34-6.7l-8.23 2.27c9.35 29.67 16.66 60 23.61 90.27q2.88 12.52 5.68 25.06a4.27 4.27 0 1 0 8.23-2.27z" fill="#ffd3b3"/><path d="m599.85 411.59c17.82 9.65 39.56 14.31 68.26 14 2.27 23.46-1.91 38-16.21 56.78 22.43-8.88 52.66-4.62 69.39-49.28-30.29-32.72-81.56-41.09-121.44-21.5z"/><path d="m597.7 415.27c16.12 8.7 34.09 12.71 52.25 14 6 .44 12.11.58 18.16.52l-4.26-4.27a112.92 112.92 0 0 1 .56 12.74q0 2.91-.31 5.8c-.08.82-.17 1.63-.27 2.44.12-1-.05.3-.09.58-.08.51-.17 1-.26 1.53a61 61 0 0 1 -2.79 10.28c-.16.42-.32.85-.49 1.27-.07.19-.63 1.51-.22.57-.37.85-.75 1.69-1.14 2.53q-1.25 2.59-2.67 5.08a110.42 110.42 0 0 1 -8 11.81c-1 1.33-.59 3.54.34 4.74a4.21 4.21 0 0 0 4.48 1.53c9.35-3.68 19.39-5.11 28.92-8.2 11.57-3.75 22.08-10 29.83-19.46a86.69 86.69 0 0 0 13.62-24.61 4.22 4.22 0 0 0 -1.1-4.15 104.57 104.57 0 0 0 -45-28.06 112.88 112.88 0 0 0 -53-3.41 106.41 106.41 0 0 0 -28.53 9.33 4.3 4.3 0 0 0 -1.53 5.84 4.38 4.38 0 0 0 5.84 1.53c.93-.45 1.86-.9 2.8-1.33l1.5-.66.66-.24c-.69.3 0 0 .32-.13q2.87-1.16 5.79-2.15a102.18 102.18 0 0 1 12.4-3.34c2.06-.42 4.14-.77 6.22-1.08.19 0 .84-.11-.06 0l.72-.09 1.43-.17q1.71-.19 3.42-.33a108.24 108.24 0 0 1 12.61-.25q3.15.14 6.29.43c1 .1 2 .21 3 .34h.33l.5.07 1.6.24a107.66 107.66 0 0 1 24.34 6.9c-.85-.35.42.19.64.28l1.31.59c1 .47 2.06 1 3.08 1.47q2.82 1.4 5.55 3 3 1.75 6 3.72c1 .67 2 1.36 3 2.07l1.3 1s.93.71.43.32.34.27.42.34a95.08 95.08 0 0 1 10.69 9.87l-1.1-4.16c-.38 1-.77 2-1.18 3l-.19.46c.18-.43-.16.36-.19.45l-.75 1.68q-1.25 2.74-2.68 5.39a81 81 0 0 1 -5.81 9.06c-.36.49.46-.56.08-.1l-.3.38c-.26.33-.53.66-.8 1q-.79.94-1.62 1.86-1.59 1.75-3.33 3.36c-.49.45-1 .89-1.49 1.33-.31.26-1.36 1.44-1.73 1.41.18 0 .69-.52.21-.16l-.44.33-.88.64c-.58.41-1.17.82-1.77 1.21a58.68 58.68 0 0 1 -7 3.89l-1.73.77c-.95.42.67-.27 0 0l-1 .42c-1.19.47-2.4.91-3.61 1.32-4.78 1.62-9.68 2.82-14.57 4a121.26 121.26 0 0 0 -15.53 4.57l4.82 6.26a93.09 93.09 0 0 0 12.72-21.7 68.28 68.28 0 0 0 4.59-22.64 107.72 107.72 0 0 0 -.51-14.59c-.22-2.28-1.78-4.3-4.27-4.27-5.27.06-10.54 0-15.8-.36-2.53-.15-5.06-.35-7.57-.61l-3.25-.37-.87-.11-2-.28a123.66 123.66 0 0 1 -25-6.32c-1.08-.41-2.14-.84-3.21-1.27-.74-.3-.06 0 .07 0l-.94-.4-1.55-.7q-3.06-1.39-6-3a4.27 4.27 0 1 0 -4.31 7.37z"/><path d="m715.8 712.46c-6.82-30.35-13.67-60.73-22-90.71q-3.43-12.36-7.28-24.62c-1.56-5-7-8.65-12.24-7a10.12 10.12 0 0 0 -6 4.58 11.13 11.13 0 0 0 -1 7.67l-.36-2.65.36-2.64s0 0 0 .07l1-2.37-.06.08 1.56-2a.86.86 0 0 1 -.14.13l2-1.56a4.32 4.32 0 0 1 -.56.3l2.38-1a36 36 0 0 1 -7.46 1.78c-3.71.67-7.43 1.22-11.16 1.72l2.65-.35c-4 .53-8 1.15-12 1.34a112 112 0 0 1 -20.21-1.22l2.64.36a126.58 126.58 0 0 1 -32.06-8.53l2.37 1a99.83 99.83 0 0 1 -21.88-12.6l2 1.55a85.11 85.11 0 0 1 -15.3-15.22l1.56 2a86.7 86.7 0 0 1 -11-19l1 2.37a96.87 96.87 0 0 1 -6.63-24.39l.36 2.64a101.44 101.44 0 0 1 0-26.4l-.36 2.65a111.11 111.11 0 0 1 7.77-28.29l-1 2.38a118.94 118.94 0 0 1 15.17-26l-1.56 2a119.61 119.61 0 0 1 21.13-21.23l-2 1.56a101.56 101.56 0 0 1 22.6-13.27l-2.38 1a104.31 104.31 0 0 1 26-7l-2.64.35a109.44 109.44 0 0 1 29 0l-2.64-.35a107.89 107.89 0 0 1 27.24 7.44l-2.38-1a102 102 0 0 1 22.32 12.97l-2-1.55a95.38 95.38 0 0 1 17.06 17l-1.55-2a97.2 97.2 0 0 1 12.34 21.13l-1-2.38a94.57 94.57 0 0 1 6.62 24.15l-.35-2.65a101.34 101.34 0 0 1 -.08 26.33l.35-2.65a109.87 109.87 0 0 1 -7.65 27.67l1-2.38a118.16 118.16 0 0 1 -15.25 26l1.55-2a119 119 0 0 1 -21 21l2-1.55a113.62 113.62 0 0 1 -20.21 12.44 10 10 0 0 0 -4.57 6 10.17 10.17 0 0 0 1 7.67 10.06 10.06 0 0 0 5.95 4.57 11.12 11.12 0 0 0 7.67-1c22.28-10.64 41.12-28.64 53.52-49.93 12.32-21.11 18.72-46.38 15.82-70.81a106.37 106.37 0 0 0 -14.49-42.85 102.23 102.23 0 0 0 -21.41-25.21 114.06 114.06 0 0 0 -29.8-18.07 116.91 116.91 0 0 0 -31.76-8 112.33 112.33 0 0 0 -92.09 31.5 128.39 128.39 0 0 0 -22 28.1c-11.92 20.47-18.28 44.87-16.16 68.62 2.22 24.83 12.63 49.11 31.46 65.87a110.85 110.85 0 0 0 32.22 19.6 135.47 135.47 0 0 0 35 8.59 103.27 103.27 0 0 0 24.53.47c8.27-1 16.75-1.87 24.85-3.86a21.64 21.64 0 0 0 5.07-1.83c4.46-2.39 6.17-7 5.24-11.86l-19.2 5.29c9.35 29.68 16.67 60 23.62 90.27q2.87 12.52 5.67 25.06c1.14 5.09 7.3 8.56 12.25 7a10.18 10.18 0 0 0 6.95-12.25z"/><path d="m698.15 769.36q-6.18-29.29-10.68-58.9c-.33-2.15-.63-4.45.27-6.43s2.77-3.21 4.62-4.28a61.46 61.46 0 0 1 21.69-7.64c2.49-.38 5.34-.49 7.17 1.23a9 9 0 0 1 2 3.85q19.29 57.57 34.36 116.45c2.74 10.67 4.84 23.51-2.84 31.41-4 4.14-9.9 5.83-15.52 7.19-7.42 1.79-16.38 2.87-21.64-2.65-2.89-3-3.87-7.34-4.74-11.42l-11.27-52.8"/><path d="m702.27 768.22q-4-18.87-7.27-37.89-1.65-9.51-3.12-19.05c-.12-.79-.25-1.59-.36-2.38 0 .19.07.7 0-.18 0-.37-.06-.73-.08-1.1s0-.72 0-1.09c0 .18-.19.73 0-.14 0 0 .45-1.17.19-.68s.69-.91.24-.35.43-.42.41-.4c.18-.18.37-.34.56-.5-.61.51 0 0 .21-.13s.53-.35.8-.51c1.22-.75 2.49-1.44 3.78-2.09s2.4-1.17 3.63-1.69c-.7.29.65-.25.62-.24l.83-.32c.77-.29 1.54-.56 2.31-.82a60.82 60.82 0 0 1 8.4-2.14l.88-.16.69-.11c-.66.09.6-.06.58-.06h.77 1s1 .24.18 0l.71.19c-.84-.24.07 0 .29.2-.85-.6.33.6-.19-.16.15.22.27.46.4.69.39.72.12.27 0 .09.15.38.27.76.4 1.14.53 1.55 1 3.1 1.55 4.65q6 18.12 11.61 36.38 11.16 36.4 20.66 73.29c.65 2.52 1.3 5.05 1.82 7.61.23 1.13.43 2.25.61 3.39 0 0 .17 1.21.08.56s.07.59.07.57c.07.62.13 1.25.18 1.88.09 1.24.14 2.49.12 3.73q0 .74-.06 1.47c0 .36 0 .72-.08 1.09s-.19 1.3 0 .29a25.35 25.35 0 0 1 -.68 3.11c-.16.56-.36 1.11-.56 1.65-.07.2-.36.69 0 0-.16.31-.3.63-.46.94a17.4 17.4 0 0 1 -.89 1.5c-.13.2-.27.39-.4.58-.63.92.38-.36-.1.13s-.73.83-1.13 1.22q-.35.35-.72.66l-.44.38c.35-.27.33-.25-.07 0a25.89 25.89 0 0 1 -3 1.8l-.89.42c-.18.08-1 .4-.25.11q-.92.36-1.86.69a70.36 70.36 0 0 1 -7.53 2c-1.08.24-2.17.45-3.26.63l-.74.11c1-.15-.19 0-.34 0-.61.07-1.23.12-1.84.16a26.48 26.48 0 0 1 -3.45 0l-.88-.08c.16 0 .89.16.09 0-.63-.12-1.24-.24-1.86-.42-.29-.09-1.63-.61-.74-.21a13.3 13.3 0 0 1 -1.5-.78c-.2-.12-.38-.26-.58-.38-.9-.56.36.39-.09-.07s-1-.92-1.41-1.42c.47.52 0 .07 0-.06-.21-.33-.42-.65-.61-1s-.49-.91-.71-1.38c.39.83-.12-.34-.15-.43-.09-.25-.18-.49-.26-.74-.23-.69-.42-1.39-.61-2.09-.73-2.86-1.28-5.77-1.9-8.66l-8.13-38.13-2-9.28a4.3 4.3 0 0 0 -5.25-3 4.35 4.35 0 0 0 -3 5.24l8.65 40.58 2.14 10a62.36 62.36 0 0 0 2.09 8.31c2.1 5.78 6.21 10.24 12.29 11.8 5.46 1.4 11.26.62 16.67-.61s11-2.75 15.53-6.07a22.61 22.61 0 0 0 8.85-14 45.65 45.65 0 0 0 -.39-16.88c-1.07-5.94-2.76-11.77-4.3-17.6q-2.55-9.71-5.22-19.38-5.37-19.47-11.21-38.81t-12.14-38.53c-1.07-3.23-2.1-6.47-3.22-9.68-1.2-3.47-3.11-6.39-6.78-7.54-3.16-1-6.59-.36-9.75.24a62.38 62.38 0 0 0 -9 2.42 70.16 70.16 0 0 0 -8.78 3.78c-2.64 1.36-5.5 2.86-7.43 5.18-2.52 3-2.86 6.62-2.35 10.41.46 3.42 1 6.83 1.58 10.24q3.28 20.36 7.28 40.49 1 4.85 2 9.69a4.29 4.29 0 0 0 5.25 3 4.37 4.37 0 0 0 3-5.25z"/><path d="m407.7 607.65c-18.57.14-29.7-7.65-39.42 5.7-21.57 29.59-53.37 65.43-72.19 96.85-1.61 2.69 1.56 32.7-1.26 34.09-4.07 2-8.91.35-13.14-1.32-27.84-11-38.27-37.79-66.11-48.82-10.14-4-21.52-9.35-24.48-19.85-2.62-9.34 1.75-19.47 7.61-27.21 50.5-66.71 82.49-108.85 97.38-140.12" fill="#ff983b"/><path d="m407.7 603.38c-2.42 0-4.85-.1-7.26-.31-1.06-.1-2.12-.21-3.17-.34l-1.36-.17-.84-.1-.49-.07c.54.07.64.09.32 0a81.32 81.32 0 0 0 -11.85-1.18 22.22 22.22 0 0 0 -10.78 2.66c-4.06 2.29-6.68 5.94-9.38 9.61-1.45 2-2.9 3.9-4.37 5.83-.73 1-1.47 1.93-2.2 2.89l-1.24 1.62c-.17.21-.34.43-.5.65l-.34.44q-4.78 6.15-9.62 12.27c-6.76 8.56-13.57 17.08-20.26 25.7s-13.28 17.29-19.55 26.2c-2.93 4.16-5.78 8.37-8.51 12.65-1.29 2-2.62 4-3.79 6.11a8.49 8.49 0 0 0 -1 3.62c-.6 5.34 0 10.89.14 16.23.09 3.08.17 6.15.12 9.23 0 1.25-.06 2.5-.17 3.75 0 .25-.05.49-.07.73-.08.84.22-1.22 0-.33-.08.37-.18.74-.26 1.1-.14.75.38-.8.25-.55-.3.6.44-.53.45-.54-.28.29.69-.6.92-.61a5.13 5.13 0 0 0 -.79.25c-.21.06-1.24.21-.48.14a14.44 14.44 0 0 1 -2.08 0c-.13 0-.81-.13-.13 0l-.84-.16a30.33 30.33 0 0 1 -4.17-1.26c-.6-.22-1.2-.45-1.79-.69l-.89-.36c.15.06.72.31 0 0-1.09-.48-2.17-1-3.23-1.52q-3-1.53-5.87-3.35c-1.91-1.22-3.73-2.53-5.54-3.89.75.57-.48-.37-.67-.52l-1.23-1c-.85-.7-1.7-1.42-2.53-2.15-3.28-2.87-6.41-5.9-9.51-9-6.36-6.27-12.7-12.55-19.91-17.85a71.09 71.09 0 0 0 -11.65-7c-2.3-1.09-4.66-2-7-3l-.83-.34c.15.06.77.33 0 0l-1.49-.66c-1.05-.47-2.09-1-3.12-1.48a50.59 50.59 0 0 1 -5.92-3.43c-.43-.3-.85-.62-1.29-.92s.76.64-.1-.08l-.54-.44a26.42 26.42 0 0 1 -2.48-2.37c-.31-.33-.6-.67-.9-1-.5-.59 0-.05.05.07-.17-.23-.34-.45-.5-.68a27.4 27.4 0 0 1 -1.6-2.78c-.5-1 .19.56 0-.08-.1-.27-.21-.53-.3-.81-.16-.46-.3-.92-.42-1.39-.17-.66-.3-1.32-.41-2 0 .18.07.79 0-.07q-.06-.6-.09-1.2a25.91 25.91 0 0 1 .12-3.63c.09-.86 0-.25 0-.07 0-.33.11-.67.18-1 .14-.74.31-1.47.51-2.2.31-1.13.68-2.25 1.1-3.34.07-.16.41-1 .13-.34.11-.25.22-.51.34-.76.29-.64.6-1.27.92-1.89 2.65-5.11 6.38-9.55 9.83-14.12 13.05-17.23 26.1-34.46 38.95-51.84 10-13.58 20-27.25 29.41-41.26a359.68 359.68 0 0 0 20.2-33q1.8-3.4 3.47-6.89c1-2 .62-4.71-1.53-5.84-1.91-1-4.81-.62-5.84 1.53a281.6 281.6 0 0 1 -18.12 31.54c-8.79 13.55-18.15 26.66-27.65 39.66-12.27 16.82-24.82 33.44-37.38 50.05q-5.47 7.26-11 14.5c-3.35 4.41-6.71 8.74-8.95 13.84s-3.76 10.67-3.21 16.28a25 25 0 0 0 6.21 14.33 38.62 38.62 0 0 0 11.06 8.33c2 1.08 4.12 2 6.23 3 1.22.52 2.44 1 3.67 1.53l1.51.6.72.29c-.82-.34.21.1.38.18a68.93 68.93 0 0 1 12 6.92l1.3.94c.19.14 1.42 1.08.68.5.93.72 1.84 1.46 2.74 2.21 1.7 1.42 3.35 2.89 5 4.39 6.39 5.91 12.32 12.3 18.87 18a83.07 83.07 0 0 0 24.51 15.35 31 31 0 0 0 8.41 2.17c2.74.27 6.51-.17 8.59-2.18 1.81-1.74 2-4.52 2.21-6.86.47-6 0-12.2-.16-18.25-.09-2.76-.19-5.52-.12-8.27 0-.48 0-1 .07-1.44 0-.22 0-.44.05-.67.06-.84-.26 1.22-.06.46a3.12 3.12 0 0 0 .09-.44c.08-.67-.16.68-.31.69.12 0 .59-1 .64-1.08.33-.55.67-1.1 1-1.65 5.41-8.78 11.35-17.24 17.47-25.55q4.83-6.54 9.8-13c-.09.11.79-1 .47-.6l.47-.61 1.07-1.39 2.7-3.46q2.56-3.28 5.15-6.55c6.71-8.49 13.47-16.94 20.11-25.48q4.88-6.27 9.66-12.62l2.09-2.82 1.14-1.55.45-.62c.69-1-.54.64.18-.24a26.05 26.05 0 0 1 1.94-2.13c.32-.3.66-.59 1-.88.64-.56-.09-.06-.08.06 0-.08.62-.44.67-.48a18.1 18.1 0 0 1 2.07-1.14c.65-.32-.24.13-.31.13a2.83 2.83 0 0 0 .59-.22c.44-.15.88-.29 1.33-.4l1-.22.63-.1c.58-.13-1.15.11-.25 0s1.65-.13 2.48-.13a45.27 45.27 0 0 1 5.33.34l1.35.16.6.08c.07 0 1.09.14.36 0l.37.05.64.08 2.42.33a97.76 97.76 0 0 0 13.45 1 4.27 4.27 0 1 0 0-8.54z" fill="#ff983b"/><g fill="#f96632"><path d="m325.56 689.17c-22.25-33.95-57.47-70.55-100.44-63.08-18.5 3.22-40.83 23.57-50.87 38a558 558 0 0 0 -67.44 131.55c-17.9 50.44-23.43 102.2-33.25 154.48-.67 3.55-1.29 7.33.09 10.67 2.16 5.23 8.3 7.41 13.82 8.67 43.53 9.92 88.78-1.05 132.07-12 10.55-2.66 21.36-5.44 30.27-11.69 11.28-7.91 18.27-20.51 23.93-33.07 9-20 15.6-40.87 22.18-61.74l14.31-45.4c1.43-4.51 2.42-10.42-1.48-13.11"/><path d="m329.25 687c-13.64-20.76-30.33-40.78-51.78-53.83a82.72 82.72 0 0 0 -34.57-12 69 69 0 0 0 -18.9.83 53.71 53.71 0 0 0 -16.24 6.17c-11 6.06-20.9 14.57-29.27 23.89-9 10-16.07 21.72-23.14 33.07a565.57 565.57 0 0 0 -41.17 79.79c-5.88 14-11.31 28.28-15.86 42.79-4.69 15-8.46 30.19-11.71 45.53-6.5 30.65-10.87 61.76-16.56 92.53-1.37 7.43-3.11 15.48 2.88 21.44 4.69 4.67 11.64 6.11 17.89 7.33a181.62 181.62 0 0 0 47.18 2.59 331.84 331.84 0 0 0 47-7c15.13-3.22 30.34-6.73 45.2-11 7-2 13.93-4.55 20.06-8.46a58 58 0 0 0 15.06-14.3c8.7-11.52 14.21-25.45 19.37-38.82 5.67-14.7 10.43-29.74 15.17-44.76 4.88-15.48 10-30.92 14.64-46.46 1.89-6.27 2.14-13.23-3.57-17.49-1.85-1.38-4.77-.3-5.84 1.53-1.28 2.18-.32 4.45 1.53 5.84-.44-.33.09.14.13.2-.4-.53.11.18.18.34.28.65-.15-.53.06.15q.12.42.21.84c.15.71 0-.54 0 .2v1.15s0 .63-.05.94a2.09 2.09 0 0 1 -.07.54 74.11 74.11 0 0 1 -2.82 9.77l-7.06 22.37c-4.63 14.7-9.15 29.45-14.11 44.05-4.66 13.73-9.67 27.47-16.17 40.45-5.71 11.4-13.05 22.08-24.58 28.17-5.9 3.11-12.34 5-18.76 6.71-7.26 1.91-14.54 3.7-21.83 5.46-14.79 3.59-29.68 6.86-44.75 9.05a217.56 217.56 0 0 1 -44.75 2.17 148.88 148.88 0 0 1 -21.74-3c-1.51-.32-3-.66-4.48-1.08a26.49 26.49 0 0 1 -3.75-1.33c-.56-.28-1.12-.57-1.66-.9-.26-.16-.53-.33-.78-.51 0 0-.61-.5-.23-.18a5.85 5.85 0 0 1 -2.11-2.7c-1-2.48-.22-5.82.27-8.46q1.09-5.82 2.13-11.66 2-11.13 3.82-22.28c2.5-14.89 5-29.79 7.77-44.62 5.6-29.54 12.92-58.55 23.6-86.68a552.66 552.66 0 0 1 36.58-77.51q10.73-18.81 22.9-36.74c1.73-2.55 3.44-5.11 5.3-7.57.05-.05.49-.62.14-.17l.55-.69c.37-.48.76-1 1.14-1.41.91-1.09 1.84-2.17 2.79-3.22a124.29 124.29 0 0 1 13-12.49c8.36-7 18.1-13.5 28.78-15.38a63 63 0 0 1 33 3.46c21.28 7.9 39.08 25.67 52.74 43.6 3.47 4.56 6.76 9.26 9.91 14.05a4.37 4.37 0 0 0 5.84 1.53 4.32 4.32 0 0 0 1.53-5.84z"/><path d="m321 566.46a229.83 229.83 0 0 0 25.73 74.94c7.69-9.72 15.09-19.17 21.57-28 9.72-13.35 20.85-5.56 39.42-5.7l-71.72-39.51z"/><path d="m316.87 567.59a234.09 234.09 0 0 0 18.24 60.2q3.66 8 7.92 15.77c1.21 2.19 5 3 6.7.86q6.36-8 12.63-16.14 3-3.85 5.88-7.75l2.41-3.24c.44-.6.89-1.19 1.31-1.79.68-1-.55.63.18-.24.22-.26.43-.52.65-.77a21 21 0 0 1 2.17-2.15 2 2 0 0 1 .45-.36l-.42.33.45-.32a14.54 14.54 0 0 1 1.25-.78c.34-.19.69-.35 1-.52.83-.41-1 .33-.08 0l.48-.17a19.19 19.19 0 0 1 2.69-.66c.71-.13-.31.05-.38 0a3.94 3.94 0 0 0 .77-.07c.44 0 .87-.06 1.31-.07h2.7s1.91.14 2.85.24l1.49.17 1 .13a133.11 133.11 0 0 0 17.14 1.54c4.15 0 5.92-5.88 2.15-7.95l-9.77-5.38-22.27-12.25-23.77-13-14.78-8.13c-.34-.19-.67-.39-1-.56a12 12 0 0 0 -4.05-.82l-12.17-1.41-1-.11c-2.22-.26-4.36 2.14-4.26 4.27.11 2.53 1.88 4 4.26 4.26l15 1.73-2.15-.58 24.25 13.34 38.63 21.26 8.86 4.87 2.15-8a75.86 75.86 0 0 1 -8-.38c-1.22-.12-2.43-.26-3.64-.41l-.84-.11s-1.13-.15-.42-.06-.35 0-.4 0l-1-.13c-4.2-.57-8.52-1.31-12.76-.86a21.06 21.06 0 0 0 -12.21 5.31 41.47 41.47 0 0 0 -5.34 6.47q-2.83 3.84-5.74 7.65c-2.29 3-4.09 5.33-6.44 8.34s-4.84 6.16-7.27 9.23l6.7.87a225.18 225.18 0 0 1 -12.73-27.26 230 230 0 0 1 -9.18-29.58q-2-8.48-3.37-17.09c-.35-2.21-3.23-3.63-5.25-3a4.39 4.39 0 0 0 -2.98 5.26z"/></g><g fill="#ff983b"><path d="m445.75 442.87a201.51 201.51 0 0 1 13.68 53.56c.06.47.18 1.05.64 1.2a1.25 1.25 0 0 0 .74-.05l14.69-4.09c.52-.14 1.13-.37 1.24-.9a1.48 1.48 0 0 0 -.27-1c-9.7-17.83-24.2-35.59-34-57.1"/><path d="m441.64 444a202.6 202.6 0 0 1 9.36 29q1.78 7.43 3 15c.19 1.16.36 2.32.53 3.48 0 .31.09.62.13.93.13.9.07.46 0 .26.1.78.2 1.56.29 2.34a11.32 11.32 0 0 0 .92 4.27 5.17 5.17 0 0 0 5.65 2.48c2.52-.46 5-1.38 7.48-2.06s5.22-1.3 7.74-2.16a6 6 0 0 0 3.63-2.82c1.06-2 .47-4-.54-5.81s-2.14-3.79-3.26-5.66c-4.63-7.75-9.71-15.21-14.59-22.8a226.79 226.79 0 0 1 -15.88-28.13c-.93-2-4-2.69-5.84-1.53a4.4 4.4 0 0 0 -1.53 5.84c7.37 16.1 17.67 30.49 27.08 45.41 1.26 2 2.5 4 3.7 6 .57 1 1.14 1.94 1.7 2.92.26.45.52.91.77 1.37l.38.68.19.35c.35.71.31.43-.13-.82l.59-2.16 1.62-1.15-.32.1a7.7 7.7 0 0 0 -.94.26l-2.14.6-4 1.12-3.79 1.05-2.13.59-.95.27-.47.13q-.56.15.15 0l2.15.58a2.44 2.44 0 0 1 1.43 2c0-.31-.08-.62-.11-.93l-.24-1.87c-.17-1.31-.34-2.62-.53-3.93q-.5-3.48-1.13-7-1.25-6.94-3-13.78a204.26 204.26 0 0 0 -8.8-26.76c-.84-2.06-2.88-3.75-5.25-3-2 .64-3.88 3-3 5.25z"/><path d="m471.27 538.48c-1.37-44.5-18.86-89-41.22-126.73-15-25.35-33.79-49.46-59.31-64.17a113.91 113.91 0 0 0 -78.92-12.78c-30.3 6.19-59.88 26.47-75.77 53.16-16.51 27.73-16.05 63.18-6 93.05 18.91 56 69.06 98.14 125.26 116.56 27.12 8.88 56.15 12.86 84.41 8.85 12.56-1.78 25.38-5.37 34.83-13.83 13-11.62 16.62-30.13 16.77-46.82.05-2.43.03-4.86-.05-7.29z"/><path d="m475.54 538.48c-1-31.61-9.74-62.42-22.4-91.25a348.45 348.45 0 0 0 -21.23-40.69 232.84 232.84 0 0 0 -25.29-34.71 140.18 140.18 0 0 0 -32.62-27.27 116.33 116.33 0 0 0 -41.85-14.85 117.86 117.86 0 0 0 -44.75 1.69 121.18 121.18 0 0 0 -37.4 16.21 122.61 122.61 0 0 0 -30.75 28.17 96.54 96.54 0 0 0 -17.76 37.81c-6.23 27.93-1.28 57.19 10.22 83.07 10.37 23.33 26.36 44.05 45.4 61a219.11 219.11 0 0 0 66.8 40.34c29.25 11.25 61.54 16.87 92.81 13.07 14.74-1.79 29.94-5.48 41.19-15.77 10.28-9.4 15-23 16.81-36.52a126.6 126.6 0 0 0 .82-20.32 4.27 4.27 0 1 0 -8.53 0c.11 3.77.13 7.55 0 11.32-.07 1.5-.17 3-.3 4.49-.06.69-.12 1.37-.2 2.05 0 .41-.09.82-.14 1.23s-.07.55-.1.82c.06-.45.05-.42 0 .09a82.07 82.07 0 0 1 -1.93 9.3c-.39 1.45-.84 2.89-1.34 4.31-.25.7-.52 1.41-.79 2.1l-.12.3c-.21.5-.43 1-.66 1.49a47.43 47.43 0 0 1 -4.71 8.06s-.84 1.09-.32.43c-.25.32-.51.64-.77.95-.44.52-.89 1-1.36 1.54a41.71 41.71 0 0 1 -3.67 3.49 45.54 45.54 0 0 1 -8 5.14c-.79.4-1.6.78-2.41 1.15 0 0-1.31.55-.62.27l-1.25.49c-1.67.65-3.37 1.22-5.09 1.74a105.31 105.31 0 0 1 -20.56 3.78 165.74 165.74 0 0 1 -23.37.54 193.56 193.56 0 0 1 -46-8q-9.65-2.84-19-6.52c-1.39-.55-2.76-1.11-4.13-1.68l-.48-.21-1.12-.48-2.23-1q-4.26-1.92-8.44-4a214.15 214.15 0 0 1 -32.15-19.79l-1.75-1.29-.8-.62c.67.52-.38-.3-.42-.32-1.27-1-2.54-2-3.79-3q-3.6-2.94-7.05-6.07-7-6.27-13.29-13.21-3.18-3.49-6.18-7.14-1.41-1.7-2.77-3.44l-.4-.52-.4-.52-1.68-2.25a172.06 172.06 0 0 1 -10.16-15.48 162.25 162.25 0 0 1 -8.35-16.42l-.48-1.11a3.76 3.76 0 0 1 -.2-.46c-.28-.68-.56-1.36-.83-2.05-.6-1.49-1.18-3-1.73-4.51q-1.72-4.69-3.11-9.49t-2.46-9.9c-.33-1.6-.64-3.21-.92-4.82q-.21-1.21-.39-2.43c-.06-.36-.11-.73-.16-1.1s-.09-.59-.13-.89c0 .4 0 .33 0-.19a127.09 127.09 0 0 1 -.93-20.54 95.22 95.22 0 0 1 2.63-19.74 96.81 96.81 0 0 1 3-10 68.8 68.8 0 0 1 3.75-8.77c5.93-11.86 13.72-21.31 23.68-30.13q1.85-1.64 3.76-3.2l1.81-1.45a3.92 3.92 0 0 1 .5-.39l1.37-1q4-2.94 8.18-5.55t8.58-4.87c1.39-.72 2.79-1.42 4.21-2.08.71-.33 1.42-.66 2.14-1l1-.43.79-.34q-.56.24.15-.06a114.21 114.21 0 0 1 18.42-5.82 99.7 99.7 0 0 1 20.76-2.42 109.34 109.34 0 0 1 41.15 7.16 107.07 107.07 0 0 1 18.38 9.1c3 1.86 5.93 3.86 8.76 6l1.24.94c.69.55 1.38 1.09 2.06 1.65q2.06 1.68 4 3.42a154 154 0 0 1 14.32 14.47 179.6 179.6 0 0 1 12.24 15.63 315.74 315.74 0 0 1 22.17 36.92 303.54 303.54 0 0 1 17.8 41.17 243.07 243.07 0 0 1 10.91 44.07 200.51 200.51 0 0 1 1.87 21.11 4.27 4.27 0 0 0 8.53 0z"/></g><path d="m426 372a284.51 284.51 0 0 1 -35 29.34c-1.5 1.07-3.21 2.17-5 1.88a7.2 7.2 0 0 1 -3.41-2l-15.29-13c-2.83 4.86.71 10.82 1.26 16.41.86 8.91-6.37 16.87-14.6 20.4-1.93.83-4.15 1.68-4.95 3.63-.68 1.67-.07 3.55.41 5.28a33.88 33.88 0 0 1 -5.07 28.28c-3.89 5.42-9.36 9.61-13 15.19-3 4.6 3.64 16.45 2 21.72-8.52 27.3-14.17 56.72-33.91 75.4-1.07 1-.89 2.82-1.76 4-2.53 3.44-7.53 3.59-11.79 3.29-51.74-3.53-100.22-25.28-150.89-35.82l34-93.92c7-19.33 14-38.74 23.86-56.79a203.48 203.48 0 0 1 33.75-45.44c10.45-10.59 25.18-20.67 39.17-15.59 1.4.51 3.11 1.12 4.27.18a4.66 4.66 0 0 0 1.18-2.52c2.45-8.91 12.67-13 21.77-14.62 23.54-4.2 47.94-.42 70.61 7.17a307.78 307.78 0 0 1 39.58 16.88c6.34 3.17 12.62 6.46 18.88 9.78 11.6 6.15 26.31 18.22 27.49 32.35.7 8.36-4 15.23-6.79 22.71-.84 2.24-1 5-2.36 7-5-6.71-9.28-13.9-13.8-20.92-4.27-6.62-8.62-15-14.92-20"/><path d="m423 369a279 279 0 0 1 -26.7 23.19q-3.45 2.63-7 5.14c-.58.41-1.14.83-1.75 1.19s-.81.57-1.27.55c.57 0 .35.06 0-.25s-.7-.53-1.21-1l-14.81-12.59c-2-1.7-5.3-1.72-6.7.87-1.8 3.32-1.89 6.82-1.22 10.48.51 2.77 1.79 6.2 1.93 8.54a12.2 12.2 0 0 1 -1.37 6.53 18.81 18.81 0 0 1 -5 6.09 30.4 30.4 0 0 1 -6.89 4c-3 1.33-5.72 3.46-6.4 6.87s1 7.08 1.41 9.9a29.79 29.79 0 0 1 -7.75 24.49c-2.17 2.43-4.51 4.7-6.66 7.15-2 2.23-4.33 4.73-5.1 7.69-1.21 4.68.7 9.82 1.83 14.33.28 1.1.55 2.21.74 3.33l.12.7c-.15-1 0-.22 0 0a9.88 9.88 0 0 0 0 1.54c.11.46.33-.92 0-.17-.06.15-.09.36-.13.5-.2.74-.45 1.46-.67 2.19q-.7 2.31-1.4 4.64c-3.49 11.81-6.68 23.76-11.12 35.27-4 10.3-9.57 21-17.24 29.05a25.68 25.68 0 0 0 -3.31 3.53 9.39 9.39 0 0 0 -1 2.27c-.09.26-.16.52-.23.79-.11.44-.34.78 0 .21.28-.42-.53.56-.5.53s.64-.37-.13.11c-.24.14-.48.28-.74.41.55-.28 0 0-.16.07a9.66 9.66 0 0 1 -3.71.58c-6.47.14-13.15-.91-19.55-1.83a366.35 366.35 0 0 1 -41.19-8.71c-27.41-7.26-54.27-16.5-81.88-23q-5.07-1.2-10.18-2.27l3 5.25c12.57-34.74 25-69.55 37.73-104.23 6-16.2 12.31-32.31 20.75-47.4a198.72 198.72 0 0 1 28.92-39.43c5.28-5.59 10.8-10.83 17.5-14.64a32.19 32.19 0 0 1 9.79-3.84 20.09 20.09 0 0 1 9.36.31c1.91.55 3.65 1.37 5.69 1.28a6.84 6.84 0 0 0 6.13-5c.26-.77.44-1.58.72-2.35-.22.62 0 0 .05-.12.18-.37.37-.73.57-1.09a10.71 10.71 0 0 1 2.71-3.19 28.3 28.3 0 0 1 7-3.93 53 53 0 0 1 9.79-2.4c34.28-5.54 68.77 6.32 99.25 21 8 3.85 15.87 7.95 23.71 12.1a69 69 0 0 1 16.27 11.45 40.62 40.62 0 0 1 6.17 7.3 33.42 33.42 0 0 1 2.2 3.91s.57 1.31.28.59c.17.41.32.82.46 1.23a24.65 24.65 0 0 1 .74 2.5 18.71 18.71 0 0 1 -.37 9.43 78.68 78.68 0 0 1 -4.06 10 43.33 43.33 0 0 0 -2.25 5.79 17.52 17.52 0 0 1 -1.49 4.57h7.36c-5.42-7.34-10.24-15.16-15.05-22.91-4.15-6.66-8.12-13.88-14.33-18.87-1.8-1.44-4.28-1.75-6 0-1.49 1.5-1.8 4.59 0 6 5.85 4.69 9.27 11.18 13.25 17.54 4.75 7.61 9.48 15.29 14.81 22.51 1.9 2.58 5.52 2.9 7.36 0a18.33 18.33 0 0 0 2.12-5.64 31.5 31.5 0 0 1 1.84-5.2 91.89 91.89 0 0 0 4.71-11.61 28.86 28.86 0 0 0 -3.11-22.49c-3.72-6.5-9.2-11.81-15.11-16.31-6.18-4.72-13.12-8.15-20-11.72-32.06-16.64-66.63-31.69-103.47-31.05-8.28.14-17 .84-24.94 3.22-6.69 2-13.52 5.57-17.15 11.8a17.84 17.84 0 0 0 -2 4.92l-.13.46a1.89 1.89 0 0 1 1.3-1s.45-.1.53 0a5.92 5.92 0 0 0 -1.35-.4c-.62-.21-1.24-.44-1.88-.63a28.45 28.45 0 0 0 -12.45-.57c-8.06 1.28-15.29 5.71-21.59 10.69-6.53 5.16-12.22 11.39-17.61 17.7a212.33 212.33 0 0 0 -15.43 20.4c-9.87 14.84-17.41 30.95-24 47.49-6.85 17.31-12.93 34.94-19.27 52.44l-19.55 54.05-4.7 13a4.29 4.29 0 0 0 3 5.25c28.16 5.93 55.48 15.16 83.16 22.93 13.82 3.86 27.76 7.36 41.89 9.83 7.2 1.26 14.44 2.26 21.71 2.94 6.28.58 13.63 1.57 18.82-2.88a9.26 9.26 0 0 0 2.8-4.2 8.82 8.82 0 0 1 .45-1.57c.28 0-.87.81-.14.37a5.24 5.24 0 0 0 .86-.84 68 68 0 0 0 6-6.81 89.45 89.45 0 0 0 9.61-15.59c5.54-11.26 9.29-23.3 12.81-35.32 1.77-6 3.52-12.08 5.35-18.1 1.45-4.77-.34-9.81-1.52-14.44-.28-1.13-.56-2.26-.77-3.41l-.15-.9c-.1-.65.06.72 0 .09s-.06-1.19-.06-1.79c0-.2 0-.4 0-.6 0 1.82-.08.22 0 .29s.36-1 0-.25.06-.08.14-.18a40.83 40.83 0 0 1 2.55-3.3c4.43-5.08 9.57-9.54 12.77-15.59a38.48 38.48 0 0 0 4.49-19.41 57.73 57.73 0 0 0 -1.71-10s-.24-1.4-.18-.85c0 .14.46-.6 0 0 .09-.11.61-.44.1-.1a27 27 0 0 1 3.71-1.8 29.35 29.35 0 0 0 13.72-12.59 21.8 21.8 0 0 0 2.54-9c.19-3.37-.78-6.68-1.61-9.91a33.39 33.39 0 0 1 -.74-3.53c0-.4 0-.79 0-1.19 0-.06 0-.84 0-.26a4.25 4.25 0 0 1 .53-1.65l-6.7.87 12.66 10.76c2 1.71 4 3.77 6.46 4.8a9.26 9.26 0 0 0 8.5-1c4.42-2.66 8.52-6.13 12.58-9.3s8-6.4 11.84-9.76q6.56-5.7 12.74-11.8c3.92-3.85-2.11-9.89-6-6z"/><path d="m417.72 442a23.09 23.09 0 0 0 -2 1.54 12.12 12.12 0 0 0 -1.7 1.94 8.89 8.89 0 0 0 -1.14 2.26 7.48 7.48 0 0 0 -.45 2.52 8.6 8.6 0 0 0 .19 1.75 3.37 3.37 0 0 0 .19.69 7.65 7.65 0 0 0 1.76 2.86 7.19 7.19 0 0 0 2.82 1.68 6.15 6.15 0 0 0 1.64.25 6.68 6.68 0 0 0 1.67-.18 6.51 6.51 0 0 0 1.62-.64 6.65 6.65 0 0 0 1.35-1 5.91 5.91 0 0 0 1-1.31 7.07 7.07 0 0 0 .54-1.23 2.24 2.24 0 0 0 .1-.37 3.18 3.18 0 0 0 .08-1.7 3.15 3.15 0 0 0 -.51-1.59 4.33 4.33 0 0 0 -2.55-2 4.27 4.27 0 0 0 -3.28.43 4.2 4.2 0 0 0 -2 2.55 1.56 1.56 0 0 1 -.1.37l.43-1a1.69 1.69 0 0 1 -.24.41l.67-.86a1.82 1.82 0 0 1 -.34.34l.86-.67a2.29 2.29 0 0 1 -.5.3l1-.43a2.78 2.78 0 0 1 -.56.17l1.13-.16a2 2 0 0 1 -.59 0l1.14.16a3 3 0 0 1 -.51-.14l1 .43a4.37 4.37 0 0 1 -.55-.32l.87.66a3 3 0 0 1 -.53-.53l.67.86a2.84 2.84 0 0 1 -.38-.65l.43 1a3.33 3.33 0 0 1 -.2-.75l.15 1.14a3.64 3.64 0 0 1 0-1l-.16 1.13a5 5 0 0 1 .31-1.07l-.43 1a5.8 5.8 0 0 1 .71-1.17l-.67.86a9.19 9.19 0 0 1 1.53-1.46l-.87.67c.2-.15.4-.3.61-.44a4.62 4.62 0 0 0 2-2.55 4.4 4.4 0 0 0 -.43-3.29 4.32 4.32 0 0 0 -2.55-2 4.24 4.24 0 0 0 -3.29.43z"/><path d="m358.74 488.12c-.26-8.35-3.54-16.7-7.74-23.79-2.81-4.76-6.34-9.28-11.13-12a21.31 21.31 0 0 0 -14.81-2.4 22.25 22.25 0 0 0 -14.22 10c-3.1 5.2-3 11.86-1.12 17.46 3.55 10.52 13 18.42 23.51 21.88a35.27 35.27 0 0 0 15.84 1.66 12.15 12.15 0 0 0 6.54-2.6c2.43-2.18 3.12-5.65 3.15-8.78 0-.55 0-.98-.02-1.43z" fill="#ff983b"/><path d="m363 488.12a51.61 51.61 0 0 0 -4.69-18.89 54.91 54.91 0 0 0 -9.53-15.14 27 27 0 0 0 -16.74-8.7 25.22 25.22 0 0 0 -17.11 4.25c-5 3.43-9 8.43-10.27 14.49a29.41 29.41 0 0 0 2.34 17.93c4.44 9.95 13.76 17.18 23.83 20.84 6.69 2.43 14.51 3.46 21.49 1.67a13.43 13.43 0 0 0 8.63-6.31 20 20 0 0 0 2-10.14 4.27 4.27 0 0 0 -8.54 0 23.68 23.68 0 0 1 -.12 3.57c.12-.93-.11.43-.18.7s-.16.59-.26.89-.12.35-.18.52q.25-.58.06-.18c-.13.21-.23.44-.35.65s-.6.82-.07.18c-.17.2-1.11 1.09-.53.64a9.6 9.6 0 0 1 -1.52.89c-.61.31.87-.21-.27.08-.32.08-.64.19-1 .28-.58.15-1.17.25-1.76.36.7-.13-.05 0-.17 0l-.91.08a31.83 31.83 0 0 1 -4.58 0 17.18 17.18 0 0 1 -3.19-.4 41 41 0 0 1 -4.24-1.05c-1.13-.34-2.22-.75-3.32-1.16-.15-.06-.75-.33 0 0l-.68-.3c-.56-.26-1.12-.53-1.67-.81a43.78 43.78 0 0 1 -5.69-3.52c-1-.69.38.34-.17-.12l-.72-.59c-.38-.31-.75-.64-1.12-1-.86-.78-1.69-1.61-2.48-2.47-.37-.41-.73-.83-1.08-1.25l-.47-.58c.5.62.09.13 0 0-.71-1-1.4-2-2-3.06-.52-.91-.95-1.84-1.41-2.78-.29-.58.22.61 0 0-.11-.28-.23-.57-.33-.86q-.33-.9-.6-1.83c-.15-.51-.28-1-.4-1.55-.07-.32-.13-.65-.19-1 0-.12-.16-.95-.08-.43s-.07-.68-.06-.63q0-.41-.06-.81a19.25 19.25 0 0 1 0-2c0-.27 0-.54 0-.8 0 0 .12-1.26 0-.63s.06-.31.08-.43c.06-.33.12-.65.2-1 .12-.51.27-1 .43-1.53l.27-.75c-.28.77.14-.29.21-.45.27-.53.56-1.05.88-1.55.17-.26.36-.52.54-.79s.49-.62 0-.05a21.43 21.43 0 0 1 2.41-2.54c.24-.21.5-.41.74-.63.54-.49-.78.52.23-.17.43-.3.86-.6 1.3-.88s1-.6 1.53-.88l.7-.35.53-.24c-.36.14-.4.16-.12.05a23.84 23.84 0 0 1 3.11-1c.33-.07.67-.12 1-.2.69-.16-.57 0 .13 0s1.55-.13 2.34-.13a17.72 17.72 0 0 1 11.76 4.68 30.78 30.78 0 0 1 2.77 2.94c-.05-.07.78 1 .43.51s.35.47.4.55c.44.6.86 1.21 1.27 1.84a63.25 63.25 0 0 1 4.3 7.67c.31.67.62 1.34.91 2-.07-.17-.23-.59.09.22.16.42.33.83.49 1.25.52 1.4 1 2.81 1.39 4.25a42.38 42.38 0 0 1 1 4.33c0-.12.21 1.32.13.74 0-.27 0-.17 0 .31 0 .22.05.44.07.66.08.81.12 1.61.15 2.42a4.27 4.27 0 0 0 8.54 0z" fill="#ff983b"/><g fill="#f96632"><path d="m459.25 501.81a21.23 21.23 0 0 0 21.47-5.33 4.27 4.27 0 0 0 -6-6c-.26.28-.54.55-.83.81l-.38.33c-.11.09-.6.47-.07.07s-.12.08-.19.13l-.43.29c-.28.19-.58.36-.87.53s-.68.37-1 .54l-.47.22c-.49.24.83-.31.31-.13-.73.25-1.45.51-2.21.69-.33.09-.67.16-1 .22l-.51.08c-.53.1 1-.1.24 0s-1.45.09-2.18.07c-.34 0-.69 0-1-.06-.7-.07-.09 0 .24 0-.16 0-.34-.05-.5-.08a15.71 15.71 0 0 1 -2.24-.59 4.31 4.31 0 0 0 -5.25 3 4.36 4.36 0 0 0 3 5.25z"/><path d="m329.61 475.09h.2l-1.14.15h.62l-1.13-.15a8.23 8.23 0 0 1 2.06.59l-1-.43a11.7 11.7 0 0 1 2.55 1.5l-.87-.67a11.87 11.87 0 0 1 2.09 2.1l-.67-.87a12.55 12.55 0 0 1 1.5 2.55l-.43-1a11.42 11.42 0 0 1 .74 2.69l-.15-1.13a4.33 4.33 0 0 1 0 1.08l.15-1.13a3.39 3.39 0 0 1 -.11.43l.43-1a1.39 1.39 0 0 1 -.22.37l.67-.87a1 1 0 0 1 -.22.2l.87-.67-.13.07 1-.43a.77.77 0 0 1 -.27.08l1.14-.15a1.29 1.29 0 0 1 -.28 0l1.14.15a1.93 1.93 0 0 1 -.41-.12l1 .43a2.2 2.2 0 0 1 -.38-.24l.87.67a1.93 1.93 0 0 1 -.31-.33l.67.86a2.26 2.26 0 0 1 -.16-.26l.43 1a2.85 2.85 0 0 1 -.13-.48l.15 1.13a4 4 0 0 1 0-.6l-.15 1.13a6.14 6.14 0 0 1 .4-1.39l-.43 1 .17-.38a4.7 4.7 0 0 0 .43-3.29 4.4 4.4 0 0 0 -2-2.55 4.35 4.35 0 0 0 -3.29-.43 4.12 4.12 0 0 0 -2.55 2 17.88 17.88 0 0 0 -.88 2.19 7.45 7.45 0 0 0 -.11 3.48 5.94 5.94 0 0 0 3.95 4.29 5.35 5.35 0 0 0 6.11-2.19 6 6 0 0 0 .88-4 15.43 15.43 0 0 0 -2.16-6.45 17.06 17.06 0 0 0 -4.67-4.87 15.27 15.27 0 0 0 -3.32-1.69 11.59 11.59 0 0 0 -1.3-.42 8.4 8.4 0 0 0 -3.7-.07 4.25 4.25 0 0 0 -2.55 2 4.34 4.34 0 0 0 -.43 3.29 4.29 4.29 0 0 0 2 2.55 4.79 4.79 0 0 0 3.29.43z"/><path d="m411.08 466.75c1.07-.21 2.15-.39 3.23-.54l-1.13.15a55.06 55.06 0 0 1 10.89-.37 4.31 4.31 0 0 0 4.27-4.27 4.37 4.37 0 0 0 -4.27-4.27 59.65 59.65 0 0 0 -15.26 1.07 4.3 4.3 0 0 0 -3 5.25 4.37 4.37 0 0 0 5.25 3z"/></g><path d="m427.15 548.64c.62-.6 1.26-1.18 1.93-1.74l.47-.39c.09-.07.63-.5.17-.14l.17-.13.5-.36a35.28 35.28 0 0 1 4.44-2.7c.36-.19.73-.37 1.1-.54l.56-.26c.1 0 .75-.32.19-.09s.09 0 .19-.07l.58-.22c.42-.17.86-.32 1.29-.47a36.48 36.48 0 0 1 5-1.28 4.3 4.3 0 0 0 3-5.25 4.38 4.38 0 0 0 -5.25-3 39.94 39.94 0 0 0 -20.4 10.59 4.3 4.3 0 0 0 0 6 4.35 4.35 0 0 0 6 0z"/><path d="m400.67 437.59a9.05 9.05 0 0 1 1-1.33c-.23.22-.38.48-.06.09l.51-.63q1-1.2 2.1-2.31c.76-.78 1.56-1.53 2.39-2.24.37-.32.75-.64 1.13-.94s.45-.42 0 0a8.05 8.05 0 0 1 .66-.49 40.56 40.56 0 0 1 5.31-3.25c.43-.22.88-.44 1.32-.64l.75-.34c.48-.22-.72.28 0 0 1-.4 2-.77 3.08-1.1a4.27 4.27 0 1 0 -2.26-8.23 44.9 44.9 0 0 0 -23.35 17.15 4.3 4.3 0 0 0 1.53 5.84 4.39 4.39 0 0 0 5.84-1.53z"/><path d="m274.79 809.62-74.53-40.49c-.47 58.67-45.89 131.25-63.11 204.64 35.48 2.15 71.2 1.81 106.19.39 12.58-.52 28.63-.46 45.06-.23a166.17 166.17 0 0 0 4.67-26.46 486.68 486.68 0 0 0 2.83-68c-.71-24.84-4.17-51.61-21.11-69.85z"/><path d="m276.94 805.94-25.27-13.73-40-21.75-9.24-5a4.31 4.31 0 0 0 -6.42 3.69c0 2.86-.15 5.73-.37 8.59-.12 1.51-.26 3-.43 4.54-.08.7-.16 1.41-.25 2.11 0 .36-.09.71-.13 1.06.11-.87 0 .14-.07.46-.87 6.15-2.09 12.25-3.54 18.28a364.68 364.68 0 0 1 -11.91 38.42c-4.9 13.52-10.24 26.87-15.55 40.22-5.52 13.89-11 27.78-16.09 41.84s-9.67 28.22-13.32 42.67q-.68 2.65-1.3 5.32a4.33 4.33 0 0 0 4.12 5.4c20.21 1.21 40.45 1.64 60.7 1.51q15.15-.1 30.31-.58c9.16-.28 18.32-.74 27.49-.87 10.92-.15 21.84-.06 32.75.1a4.36 4.36 0 0 0 4.12-3.14c3.33-12 4.63-24.53 5.77-36.91s1.83-24.93 2-37.43c.18-11.4.09-22.85-.81-34.22a141.21 141.21 0 0 0 -5.2-30.07c-3.34-11-8.65-21.34-16.48-29.83a4.31 4.31 0 0 0 -6 0 4.37 4.37 0 0 0 0 6c.79.86 1.57 1.73 2.31 2.63l.61.75.26.33c-.37-.47.4.53.37.49l.68.93a65.62 65.62 0 0 1 3.79 6c1.16 2.06 2.21 4.18 3.17 6.34l.3.71c-.32-.75 0 0 .09.22.22.54.43 1.08.64 1.62.44 1.14.85 2.29 1.24 3.46a107.17 107.17 0 0 1 3.65 14.2q.66 3.51 1.14 7c-.11-.83 0 0 0 .25s.08.65.13 1l.18 1.58c.15 1.32.28 2.64.4 4 1 10.84 1.13 21.77 1.05 32.65q-.12 18.26-1.62 36.47c-1.12 13.62-2.25 26.37-5.9 39.55l4.11-3.13c-9.81-.13-19.62-.22-29.44-.13-9 .08-18.08.48-27.12.79-20.15.67-40.33.93-60.49.53q-17.11-.33-34.2-1.35l4.11 5.4a423.57 423.57 0 0 1 12.81-42.91c4.91-14.17 10.41-28.1 15.91-42 5.39-13.57 10.85-27.12 15.92-40.81a405.88 405.88 0 0 0 12.47-38.67 179.46 179.46 0 0 0 6-37.11c.06-1.42.1-2.85.11-4.27l-6.42 3.68 25.27 13.73 40 21.75 9.24 5a4.26 4.26 0 1 0 4.3-7.36z"/><path d="m650.54 836.28q-.39-52.26 3-104.47c.22-3.37.48-6.85 2-9.85s4.72-5.44 8.08-5c3.06.36 5.38 2.87 7.23 5.33a65 65 0 0 1 12.46 31.14c12.48-17.31 25.59-35.19 44.34-45.38 5.4-2.94 13.2-4.69 16.85.27 3 4.14.85 9.94-1.42 14.55a12.59 12.59 0 0 1 14.78 19.13c5-3 12.22 0 14.59 5.3s.35 12-4 15.93c5.29-2.9 12.35.89 14.69 6.44s1.06 12-1.21 17.57c-2.85 7-7.78 13.86-15.05 16a6.11 6.11 0 0 1 -1.38-8.65c-7.24 16.24-19.84 29.63-34.07 40.3s-30.14 18.83-46 26.94" fill="#ff983b"/><path d="m654.8 836.28q-.24-34.21 1.11-68.43.69-17 1.76-34.05a47.12 47.12 0 0 1 .7-7c.13-.57.28-1.13.46-1.69 0 .12.47-1.19.25-.71s.19-.35.24-.45.24-.42.37-.63.5-.73.19-.31.17-.19.25-.28.44-.43.65-.65c.74-.79-.4.18.14-.13.2-.12.4-.27.61-.39s.78-.42.28-.18.19-.06.32-.1.46-.11.69-.17c.66-.18-1 .09.09 0 .22 0 .77.11 0 0 .31.06.61.18.92.24.58.1-.48-.33 0 0 .21.14.45.24.66.37s.83.6.22.11l.59.51c.38.36.74.74 1.09 1.13.18.19.35.39.52.59s.7.89.39.49.46.63.42.57l.62.87c.37.53.73 1.06 1.09 1.6.78 1.19 1.53 2.41 2.24 3.66s1.3 2.39 1.9 3.61c.28.58.55 1.16.82 1.75l.35.78a3.77 3.77 0 0 1 .23.57 69.53 69.53 0 0 1 2.58 7.74c.36 1.38.68 2.77 1 4.18.14.7.26 1.41.37 2.11 0 .29.09.57.13.85a5.2 5.2 0 0 1 .08.57c.22 1.82 1.16 3.67 3.13 4.12a4.5 4.5 0 0 0 4.82-2c1.93-2.68 3.86-5.35 5.82-8q1.35-1.83 2.73-3.64l.75-1s.85-1.1.34-.45l1.53-2a158.6 158.6 0 0 1 12.75-14.44c2.22-2.19 4.53-4.3 6.93-6.29.63-.52 1.26-1 1.9-1.52-.66.52.4-.3.43-.33l.65-.48c1.37-1 2.76-2 4.19-2.89s2.65-1.65 4-2.41c.53-.3 1.06-.59 1.61-.86l.92-.44h-.07l.65-.25a22.22 22.22 0 0 1 3.67-1c.22 0 1.32-.11.21 0l1-.07h.81c.29 0 1.46-.09.29 0a3.26 3.26 0 0 1 .92.18l.58.17c.45.16.39.13-.17-.1a2.56 2.56 0 0 1 .8.42c.27.17.8.77.12.06l.66.66c-.74-.75.18.35.34.6.55.9-.11-.68.12.34.08.35.18.69.23 1.06-.16-1 0 .15 0 .32s-.13 1.75 0 .75a16.29 16.29 0 0 1 -.52 2.3 27.73 27.73 0 0 1 -.93 2.65c.33-.82-.18.39-.21.45-.22.48-.44 1-.67 1.42a4.35 4.35 0 0 0 .33 4.74 4.23 4.23 0 0 0 4.49 1.53 12.14 12.14 0 0 1 1.68-.53s1.1-.21.47-.11.36 0 .49 0a14.81 14.81 0 0 1 1.76 0c1.13.06-.84-.21.26 0l.69.16a16.55 16.55 0 0 1 1.69.53c-.91-.32.12.08.26.15l.62.35c.3.18.59.39.89.57-.32-.19-.37-.31 0 0s.91.91 1.37 1.37-.48-.78.09.15c.17.26.33.52.49.79s.28.54.42.81c-.27-.54-.08-.17 0 .18.2.59.29 1.19.47 1.78s-.06-1 0 .15c0 .3 0 .61.05.92s0 .61 0 .92c0 .12-.1 1.14 0 .54s-.08.41-.11.52c-.06.3-.14.6-.22.9s-.19.58-.29.87c.19-.57.08-.18-.09.16a11.79 11.79 0 0 1 -1.06 1.73 4.29 4.29 0 0 0 .67 5.17 4.41 4.41 0 0 0 5.17.67c.19-.11 1.13-.51.13-.14l.9-.3a2.59 2.59 0 0 1 .93-.2c-.42-.09-.69 0 0 0h.79.63l-.5-.07c.53-.12 1.35.33 1.86.47.76.21-.38-.26 0 0s.59.29.87.44l.7.43c.36.24.71.57.18.1.49.44.94.88 1.39 1.36s-.12-.37 0 0a6.53 6.53 0 0 0 .5.83c.13.24.26.48.36.72-.38-.87 0 .23.08.35.1.34.17.69.26 1 .19.81 0-.4 0 .11s.07 1.31 0 2c0 .37-.15 1 0 .3-.07.36-.13.72-.21 1.07-.16.66-.39 1.28-.6 1.92-.11.29-.09.23.08-.17l-.24.49c-.14.28-.28.55-.43.82s-.38.63-.58.93c-.07.11-.8 1-.21.32-.48.56-1 1.09-1.5 1.6a4.25 4.25 0 0 0 -.34 5.6 4.32 4.32 0 0 0 5.51 1.1c.19-.1.73-.32-.13 0 .16-.06.31-.12.46-.16s.89-.37 1.09-.28h-.34.48c.43 0 .85 0 1.28.05-.88-.07-.1 0 .3.12s.73.22 1.1.34c.76.26-.5-.3.2.1.39.22.79.43 1.16.67l.56.38s-.54-.47-.19-.14.6.51.88.79.47.5.7.75c.52.57 0 .06 0-.07l.39.56c.21.33.41.67.59 1l.22.45c-.09-.19-.27-.76 0 .09a17.73 17.73 0 0 1 .72 2.87c-.11-.75 0 .55 0 .76v1.49s0 .86-.08 1.29 0 .57-.09.86c.07-.48 0-.11 0 .15a37.55 37.55 0 0 1 -1.62 5.87l-.54 1.38c-.19.46 0-.1.06-.16-.1.23-.2.46-.31.69-.36.8-.76 1.59-1.18 2.37s-.87 1.54-1.35 2.28l-.63.94c-.12.17-1 1.29-.46.65a24.64 24.64 0 0 1 -2 2.23c-.35.35-.7.69-1.07 1-.19.17-1.26 1-.57.49a23 23 0 0 1 -2.31 1.46c-.21.12-.43.23-.65.34s-.78.35-.33.16-.11 0-.17.06l-1.05.35 3.28.43c.84.57.1 0-.1-.14-.63-.54.22.57-.09-.14-.21-.48-.25-.76-.09-.13 0-.13-.3-1.35-.21-.67s0-.46 0-.54c0-.33 0-.21-.08.35 0-.16.06-.31.1-.46a3.47 3.47 0 0 1 .13-.46c-.22.49-.27.58-.12.3a10.61 10.61 0 0 0 .6-.93l-7.37-4.3a87.84 87.84 0 0 1 -10 16.83s-.85 1.09-.33.43l-.51.64c-.51.65-1 1.28-1.55 1.91-1 1.26-2.14 2.49-3.25 3.71-2.22 2.42-4.56 4.75-7 7s-4.93 4.37-7.51 6.42l-.8.64-.28.21c-.68.52-1.36 1-2.05 1.55q-2.23 1.65-4.52 3.23c-6.11 4.22-12.47 8.05-18.94 11.67-7.16 4-14.46 7.75-21.76 11.49a4.3 4.3 0 0 0 -1.53 5.84 4.37 4.37 0 0 0 5.84 1.53c25.31-13 51.65-26.68 69.62-49.46a92.45 92.45 0 0 0 12-19.32c.91-2 .65-4.68-1.53-5.83s-4.38-.37-5.84 1.53a10.12 10.12 0 0 0 -1.4 8.68c1 3.37 4 7.23 7.95 6.13 5.6-1.59 10.09-5.9 13.34-10.56 6.43-9.24 10.82-24.51 2-33.69-4.49-4.69-11.54-6.55-17.43-3.48l5.17 6.7c5.82-5.45 8.34-15 4.11-22.1-3.94-6.67-13-9.71-19.91-5.82l5.84 5.84c4.38-6.1 3.75-14.77-.91-20.49a17.11 17.11 0 0 0 -18.67-5l4.82 6.26c1.71-3.52 3.21-7.16 3.46-11.12a12.06 12.06 0 0 0 -4.46-10.3c-5.68-4.39-13.46-2.64-19.39.3a80.65 80.65 0 0 0 -17.45 12.35 136.38 136.38 0 0 0 -14.46 15.36c-5.2 6.36-10 13-14.84 19.67l8 2.15a70.06 70.06 0 0 0 -11.18-30.67c-3.13-4.64-7-9.83-13.14-10.1s-10.88 4.78-12.67 10.23a34.54 34.54 0 0 0 -1.31 8.52c-.2 3-.38 6.09-.56 9.14q-.54 9.06-1 18.14-.84 18.27-1.22 36.57-.43 20.52-.28 41.06a4.27 4.27 0 1 0 8.53 0z" fill="#ff983b"/><g fill="#f96632"><path d="m305.44 662.57c73.74 89.62 109.31 197.79 174.15 286.43a1081 1081 0 0 1 92.21-103.47c12.16-12 26.36-24.46 43.45-24.63 4.42 0 9 .75 13.14-.84 7.16-2.74 10.19-11.43 16.69-15.5 10.53-6.58 23.92 1.51 33.2 9.77a337 337 0 0 1 31 31.52c1.25 1.45 2.55 3.08 2.54 5s-1.52 3.73-2.63 5.46c-4.69 7.32-2.49 16.82-1.87 25.49 1.64 22.79-8.84 44.49-19 64.93-3.65 7.31-7.62 15-14.55 19.33-5.72 3.58-12.7 4.39-19.42 5-37.11 3.39-74.43 3.57-111.7 3.75l-67.63.32c-41.21 0-75.95 2.4-119.66-1-49.95-3.84-129 5.48-167-46.47-23.6-32.36-37.23-72.66-33.36-112.89 3.54-36.47 16.39-72.77 40.75-100.15s61-44.81 97.52-41.48"/><path d="m302.42 665.59c28.12 34.24 51.24 72.16 72.58 110.89 20.83 37.81 40.08 76.5 61.72 113.87a685.34 685.34 0 0 0 39.18 60.8c1.43 2 4.84 3.23 6.7.86a1079.89 1079.89 0 0 1 92.22-103.46c7.07-7 14.44-13.87 23.25-18.59a39.2 39.2 0 0 1 13.62-4.58c5-.61 10.11.44 15.12-.48 4.63-.85 8.42-3.61 11.5-7.07 2.66-3 4.89-6.64 8.15-9.07 7.74-5.76 17.93.17 24.47 5 8.85 6.56 16.73 14.93 24.31 22.89a165.74 165.74 0 0 1 11.33 12.52c1.55 2 .52 2.59-.78 4.58a21.84 21.84 0 0 0 -3 7c-2.29 10.14 1 20.7.27 31-.82 11.1-4.39 21.94-8.68 32.14a225.13 225.13 0 0 1 -14.14 28.84c-2.4 4-5.32 7.74-9.42 10.08-4.42 2.53-9.65 3.28-14.64 3.78-24.1 2.42-48.37 3.17-72.57 3.57-47.89.78-95.79.21-143.67 1.09-21.77.4-43.55.73-65.31-.22-16.84-.73-33.6-2-50.46-2.42-31.39-.82-64.31-1.51-93.73-13.8-14.46-6-27.57-15.31-37.21-27.75a170.63 170.63 0 0 1 -28-55c-11.94-39.76-6.62-83.76 11.43-120.92 17.33-35.71 48.78-64.41 88.41-72.3a100.2 100.2 0 0 1 28.24-1.48c5.47.47 5.44-8.06 0-8.53-41.55-3.6-82 18.18-107 50.54-13.07 16.89-22.4 36.45-28.32 56.94-6 20.65-9.15 42.7-7.39 64.19a172.13 172.13 0 0 0 18.17 63.21c8.7 17.27 19.71 33.92 35.25 45.74 26.89 20.42 62.27 25 95 26.75 15.73.83 31.5.86 47.23 1.62 10.16.48 20.29 1.39 30.45 1.8 11.35.45 22.7.58 34.06.53 22.9-.12 45.79-.74 68.69-.85q38.23-.18 76.48-.37c25.45-.15 50.92-.48 76.34-2q9.66-.59 19.31-1.42c5.56-.48 11.27-.88 16.65-2.47 10.42-3.08 16.87-11 21.76-20.28 10.53-20 21.38-42 21.79-65 .1-5.55-.78-11-1.12-16.53s.25-9.73 3.25-14.3c3.38-5.17 2.2-9.65-1.58-14.12s-7.75-8.74-11.78-13c-8-8.35-16.32-16.92-25.69-23.75-7.84-5.71-18.56-10.71-28.3-7-4.41 1.67-7.74 4.72-10.7 8.31-2.45 3-4.94 6.9-8.61 8.51-4.66 2-10.63.37-15.57.9a47.47 47.47 0 0 0 -15.15 4.35c-9.53 4.43-17.66 11.56-25.17 18.78-8.5 8.19-16.74 16.67-24.89 25.2q-24.86 26-48 53.63-11.19 13.41-22 27.16l6.7.87c-25.44-34.84-46.4-72.62-66.65-110.63-20.61-38.69-40.63-77.75-64-114.89a600.66 600.66 0 0 0 -44.17-61.76c-1.48-1.8-4.5-1.5-6 0-1.78 1.74-1.45 4.26 0 6z"/><path d="m680.6 765.72 10.23-17a4.27 4.27 0 1 0 -7.37-4.31l-10.23 17a4.31 4.31 0 0 0 1.53 5.84 4.36 4.36 0 0 0 5.84-1.53z"/><path d="m738.34 723.12 1.32 2.12a3.23 3.23 0 0 0 1.1 1.19 3.14 3.14 0 0 0 1.45.77 3.17 3.17 0 0 0 1.7.07 3.14 3.14 0 0 0 1.59-.5l.86-.67a4.32 4.32 0 0 0 1.1-1.88l.15-1.14a4.28 4.28 0 0 0 -.58-2.15l-1.33-2.12a4.09 4.09 0 0 0 -4.25-2 3.1 3.1 0 0 0 -1.58.5l-.87.69a4.21 4.21 0 0 0 -1.09 1.88l-.16 1.14a4.19 4.19 0 0 0 .59 2.15z"/><path d="m755.92 744.9 1.85 2.39a3.24 3.24 0 0 0 1.37.88 3.33 3.33 0 0 0 1.65.37 3.29 3.29 0 0 0 1.64-.37 3.18 3.18 0 0 0 1.37-.88l.67-.87a4.16 4.16 0 0 0 .58-2.15l-.15-1.14a4.22 4.22 0 0 0 -1.1-1.88l-1.8-2.38a3.09 3.09 0 0 0 -1.37-.88 3.84 3.84 0 0 0 -3.29 0 3.09 3.09 0 0 0 -1.37.88l-.67.86a4.22 4.22 0 0 0 -.58 2.16l.15 1.13a4.22 4.22 0 0 0 1.1 1.88z"/><path d="m766.9 766c.12.23.23.45.33.68l-.43-1a7.14 7.14 0 0 1 .49 1.81l-.15-1.13s0 .09 0 .14a4.36 4.36 0 0 0 4.26 4.26l1.14-.15a4.22 4.22 0 0 0 1.88-1.1l.67-.86a4.25 4.25 0 0 0 .58-2.15 14.07 14.07 0 0 0 -.44-2.5c-.18-.56-.43-1.1-.66-1.63a6.72 6.72 0 0 0 -.32-.66 3.18 3.18 0 0 0 -1.1-1.2 3.12 3.12 0 0 0 -1.45-.76 4.74 4.74 0 0 0 -3.29.43l-.86.66a4.26 4.26 0 0 0 -1.1 1.89l-.15 1.13a4.25 4.25 0 0 0 .58 2.15z"/></g><g fill="#ff983b"><path d="m208.71 298 9.53 7.41a3.09 3.09 0 0 0 1.37.88 3.21 3.21 0 0 0 1.64.37 4.36 4.36 0 0 0 3-1.25 4.28 4.28 0 0 0 1.25-3 4.13 4.13 0 0 0 -1.25-3l-9.53-7.4a4.63 4.63 0 0 0 -3-1.25 4.32 4.32 0 0 0 -3 1.25 4.27 4.27 0 0 0 -1.25 3 4.13 4.13 0 0 0 1.25 3z"/><path d="m261.62 222a284.53 284.53 0 0 0 11.59 45.53c.73 2.1 3 3.72 5.25 3 2.08-.68 3.76-3 3-5.25a283.48 283.48 0 0 1 -11.59-45.53c-.37-2.21-3.21-3.64-5.25-3a4.39 4.39 0 0 0 -3 5.25z"/><path d="m339.77 227.19a292.75 292.75 0 0 1 -2.12 33.87c-.27 2.23 2.16 4.36 4.27 4.27 2.54-.12 4-1.89 4.27-4.27a292.74 292.74 0 0 0 2.11-33.87 4.27 4.27 0 1 0 -8.53 0z"/><path d="m345.09 191.24a4.27 4.27 0 1 0 -4.26-4.27 4.32 4.32 0 0 0 4.26 4.27z"/><path d="m433.5 216.57a330.46 330.46 0 0 0 -24.19 43.55q-3.09 6.72-5.88 13.57c-.85 2.07.92 4.78 3 5.25 2.48.56 4.34-.77 5.25-3 .81-2 1.23-3 2.09-5s1.68-3.82 2.55-5.72q2.55-5.59 5.31-11.08 5.52-11 11.84-21.54 3.58-6 7.41-11.77a4.29 4.29 0 0 0 -1.53-5.84 4.36 4.36 0 0 0 -5.83 1.53z"/><path d="m457.8 305.55c1.43-2 2.89-4 4.39-6l.53-.7c.11-.13.41-.52.14-.17l1.21-1.55c.76-1 1.54-1.93 2.32-2.88q4.71-5.75 9.8-11.15a4.27 4.27 0 0 0 -6-6 228.26 228.26 0 0 0 -19.72 24.15 4.29 4.29 0 0 0 1.53 5.83 4.37 4.37 0 0 0 5.84-1.53z"/><path d="m482.8 368a12.87 12.87 0 0 0 3.3-1.07 10.46 10.46 0 0 0 2.1-1.22 13.94 13.94 0 0 0 4.45-5.17 3.14 3.14 0 0 0 .5-1.59 3.17 3.17 0 0 0 -.07-1.7 4.36 4.36 0 0 0 -2-2.55 4.3 4.3 0 0 0 -3.29-.43 4.14 4.14 0 0 0 -2.55 2 9.36 9.36 0 0 1 -1.11 1.85l.66-.86a9.72 9.72 0 0 1 -1.76 1.75l.87-.66a10.23 10.23 0 0 1 -2.15 1.25l1-.43a9 9 0 0 1 -2.28.64 4.87 4.87 0 0 0 -2.55 2 4.31 4.31 0 0 0 -.43 3.29 4.26 4.26 0 0 0 2 2.55l1 .43a4.17 4.17 0 0 0 2.27 0z"/><path d="m520.8 355.3a4.27 4.27 0 1 0 -4.27-4.27 4.32 4.32 0 0 0 4.27 4.27z"/></g><g fill="#fff"><path d="m720 249.29a35.89 35.89 0 0 1 .15-8.09l-.31 2.27a40 40 0 0 1 2.79-10l-.86 2a44.36 44.36 0 0 1 5.5-9.38l-1.33 1.73a44.6 44.6 0 0 1 8-8l-1.73 1.33a50.08 50.08 0 0 1 10.6-6.15l-2 .86a58.71 58.71 0 0 1 15.06-4.06l-2.27.31a64.47 64.47 0 0 1 16.4-.01l-2.27-.31a34.55 34.55 0 0 1 8.32 2.1l-2-.86a22.41 22.41 0 0 1 4.57 2.59l-1.73-1.33a20 20 0 0 1 3.43 3.39l-1.32-1.68a24.16 24.16 0 0 1 3 5.09l-.86-2a32 32 0 0 1 2.12 8l-.31-2.27a45 45 0 0 1 -.07 11.3l.3-2.27a51 51 0 0 1 -3.46 12.78l.86-2a51.73 51.73 0 0 1 -6.44 11.11l1.33-1.73c-4.47 5.78-10.35 9.9-15.69 14.78a43.18 43.18 0 0 0 -7.62 9 29.31 29.31 0 0 0 -4.13 13.94c-.28 4.84.6 9.69 0 14.52l.31-2.27a23.07 23.07 0 0 1 -.54 2.6c-1.17 4.3 1.45 9.47 6 10.5a8.7 8.7 0 0 0 10.5-6 38.28 38.28 0 0 0 1-11.54 59.75 59.75 0 0 1 0-9.83l-.3 2.26a20 20 0 0 1 1.33-4.86l-.86 2a23.36 23.36 0 0 1 2.84-4.79l-1.34 1.72c3.59-4.64 8.37-8.12 12.78-11.91a58.71 58.71 0 0 0 12.92-15.5 56.64 56.64 0 0 0 6.88-19.44c1.08-7.26 1.23-14.69-.92-21.8-2.24-7.41-6.83-14.15-13.71-17.94s-14.78-4.76-22.43-4.81a69.76 69.76 0 0 0 -21.19 3.06 61.12 61.12 0 0 0 -20 10.68c-11.94 9.52-19.75 25.64-18.3 41a9.2 9.2 0 0 0 2.5 6 8.53 8.53 0 0 0 12.07 0c1.45-1.58 2.71-3.81 2.5-6z"/><path d="m771.55 336.84a16.75 16.75 0 0 0 -2.59-1.06 18.43 18.43 0 0 0 -2.72-.4 12.05 12.05 0 0 0 -3.54.37 13.63 13.63 0 0 0 -3.1 1.23 5.3 5.3 0 0 0 -.57.33 22.75 22.75 0 0 0 -2.21 1.7 14.61 14.61 0 0 0 -2.12 2.6 14.26 14.26 0 0 0 -1.46 3.12 5.28 5.28 0 0 0 -.32 1.18 20.79 20.79 0 0 0 -.35 2.84 19.77 19.77 0 0 0 .33 2.85 11.55 11.55 0 0 0 3.08 5.72 3.72 3.72 0 0 0 .46.43 19.76 19.76 0 0 0 2.07 1.57 10.88 10.88 0 0 0 3.08 1.31 11.49 11.49 0 0 0 8.47-.95 8.94 8.94 0 0 0 2.51-1.84 9.24 9.24 0 0 0 1.86-2.44 12.16 12.16 0 0 0 1.46-5.25 11.16 11.16 0 0 0 -.32-3.24 8.34 8.34 0 0 0 -1.24-3 10.86 10.86 0 0 0 -3.76-3.71 8.79 8.79 0 0 0 -11.67 3.06l-.86 2a8.53 8.53 0 0 0 0 4.54l.86 2a8.63 8.63 0 0 0 3.06 3.06 1.64 1.64 0 0 1 .22.14l-1.72-1.33a3.15 3.15 0 0 1 .37.36l-1.34-1.73a2.31 2.31 0 0 1 .31.52l-.86-2a3.19 3.19 0 0 1 .19.67l-.31-2.27a3.32 3.32 0 0 1 0 .89l.31-2.27a4.1 4.1 0 0 1 -.22.78l.86-2a3.46 3.46 0 0 1 -.36.62l1.33-1.73a2.62 2.62 0 0 1 -.44.44l1.73-1.34a2.56 2.56 0 0 1 -.58.33l2-.86a3.34 3.34 0 0 1 -.69.18l2.27-.31a3.66 3.66 0 0 1 -.81 0l2.27.3a4 4 0 0 1 -.89-.24l2 .86a4.48 4.48 0 0 1 -.9-.52l1.73 1.33a4.57 4.57 0 0 1 -.66-.66l1.34 1.72a3.4 3.4 0 0 1 -.42-.71l.86 2a4.22 4.22 0 0 1 -.27-1l.31 2.27a4.42 4.42 0 0 1 0-1.15l-.31 2.27a5.32 5.32 0 0 1 .35-1.24l-.86 2a5.76 5.76 0 0 1 .72-1.22l-1.34 1.73a5.49 5.49 0 0 1 .84-.83l-1.73 1.33a5.14 5.14 0 0 1 1.13-.66l-2 .86a4.85 4.85 0 0 1 1.13-.31l-2.26.3a4.71 4.71 0 0 1 .92 0l-2.27-.3a3.52 3.52 0 0 1 .9.24l-2-.86.1.05a8.26 8.26 0 0 0 9.48-.66 6.52 6.52 0 0 0 2.2-2.4l.86-2a8.5 8.5 0 0 0 0-4.53l-.86-2a8.57 8.57 0 0 0 -3.06-3.07z"/><path d="m627.69 472.34.6-.83-1.29 1.73a20.48 20.48 0 0 1 3.36-3.35l-1.73 1.34a22.17 22.17 0 0 1 4.67-2.76l-2 .86a23.71 23.71 0 0 1 5.9-1.63l-2.27.31a22.66 22.66 0 0 1 5.76 0l-2.27-.31a20.36 20.36 0 0 1 4.9 1.35l-2-.86a20.29 20.29 0 0 1 4.1 2.4l-1.73-1.33a22.16 22.16 0 0 1 3.6 3.58l-1.34-1.73a23.1 23.1 0 0 1 2.93 5l-.86-2a23.07 23.07 0 0 1 1.55 5.57l-.3-2.27a21.77 21.77 0 0 1 0 5.41l.31-2.27a21.51 21.51 0 0 1 -1.4 5.11l.86-2c-2.7 6.34-7.79 11.26-10.62 17.52a34.16 34.16 0 0 0 -3.19 14.59 80 80 0 0 0 1.77 14.03 8.54 8.54 0 0 0 3.92 5.1 8.67 8.67 0 0 0 6.57.86 8.55 8.55 0 0 0 5.1-3.92 9.46 9.46 0 0 0 .86-6.57c-.39-2.12-.78-4.24-1.07-6.37l.3 2.27a37.32 37.32 0 0 1 -.18-9.56l-.31 2.27a23.89 23.89 0 0 1 1.56-5.69l-.86 2c2.46-5.68 6.8-10.22 9.7-15.64a30 30 0 0 0 3-21.5 30.51 30.51 0 0 0 -12.16-17.63c-6-4.32-13.64-5.26-20.79-4.21a29.5 29.5 0 0 0 -19.64 12.51 8.54 8.54 0 0 0 9.64 12.54 9.65 9.65 0 0 0 5.1-3.92z"/><path d="m654.59 567.9c4.46 0 8.74-3.93 8.53-8.53a8.68 8.68 0 0 0 -8.53-8.54c-4.46 0-8.74 3.93-8.53 8.54a8.68 8.68 0 0 0 8.53 8.53z"/></g><g fill="#ff983b"><path d="m59 777.83a220.12 220.12 0 0 1 9.71-38.41q1.59-4.53 3.38-9c1.24-3.1 2.19-5.31 3.69-8.59q4.08-8.93 8.93-17.46a220.84 220.84 0 0 1 12-18.73c1.3-1.82.38-4.83-1.53-5.84a4.39 4.39 0 0 0 -5.84 1.53 224.55 224.55 0 0 0 -33.9 72.26 221.75 221.75 0 0 0 -4.64 21.95c-.35 2.2.56 4.7 3 5.25 2.05.47 4.87-.62 5.25-3z"/><path d="m41.94 715.89q1.55-5.62 3.53-11.11c.66-1.83 1.36-3.65 2.1-5.44.06-.16.57-1.39.32-.78l.51-1.19c.4-.92.82-1.84 1.24-2.76a144.57 144.57 0 0 1 11.44-20.3q1.92-2.77 3.92-5.46l.92-1.21c0-.06.49-.63.12-.16.18-.23.35-.46.53-.68.72-.91 1.44-1.8 2.17-2.69 1.42-1.72 1.81-4.38 0-6-1.57-1.44-4.51-1.83-6 0a150.71 150.71 0 0 0 -24.76 42.61q-2.4 6.38-4.2 13a4.27 4.27 0 0 0 8.23 2.26z"/><path d="m804.92 733a138 138 0 0 1 9.63 29.63q.78 3.82 1.35 7.68l.15 1.11c.11.74-.07-.55 0 .19s.17 1.33.24 2c.15 1.33.29 2.66.4 4a141.37 141.37 0 0 1 .47 15.81q-.12 4.46-.53 8.9c-.14 1.48-.3 3-.48 4.43 0 .17-.15 1.11 0 .42 0 .37-.11.73-.16 1.1-.12.81-.24 1.62-.37 2.43-.36 2.19.56 4.7 3 5.24 2 .47 4.86-.62 5.24-3a145.15 145.15 0 0 0 -4.53-66.19 148.29 148.29 0 0 0 -7-18.07c-.94-2-4-2.69-5.84-1.53a4.38 4.38 0 0 0 -1.53 5.84z"/><path d="m853.62 735.17c.81 2.88 1.51 5.8 2.06 8.74.29 1.55.55 3.1.77 4.66-.06-.45 0 .15 0 .28 0 .39.09.78.14 1.17.09.78.17 1.57.24 2.35a103.16 103.16 0 0 1 0 18.18 4.28 4.28 0 0 0 4.27 4.26 4.37 4.37 0 0 0 4.26-4.26 106.09 106.09 0 0 0 -3.58-37.65 4.27 4.27 0 1 0 -8.23 2.27z"/></g></svg>