<svg width="101" height="70" viewBox="0 0 101 70" fill="none" xmlns="http://www.w3.org/2000/svg">
<path opacity="0.1" d="M47.2578 70C70.0773 70 88.5761 68.4836 88.5761 66.6129C88.5761 64.7423 70.0773 63.2258 47.2578 63.2258C24.4383 63.2258 5.93945 64.7423 5.93945 66.6129C5.93945 68.4836 24.4383 70 47.2578 70Z" fill="black"/>
<path d="M5.98563 19.278C6.38891 18.7534 6.91954 18.3273 7.26976 17.764C7.94189 16.6831 7.85345 15.3064 7.61997 14.0565C7.38649 12.8066 7.03274 11.5355 7.25561 10.2856C7.47847 9.03567 8.5185 7.80687 9.79201 7.89138C11.8685 8.02869 12.7812 11.2714 14.8613 11.1658C16.1065 11.1024 16.9201 9.78562 17.1147 8.56035C17.3093 7.33507 17.1147 6.05347 17.4472 4.85988C17.7798 3.6663 18.9578 2.52905 20.1534 2.88818C21.6392 3.33533 22.2123 5.75067 23.7476 5.54294C24.6709 5.41618 25.3253 4.29654 26.2451 4.43737C27.1224 4.56765 27.3912 5.68025 27.4372 6.56048C27.4832 7.4407 27.6813 8.54626 28.5409 8.75752C29.0822 8.89131 29.6234 8.57795 30.1753 8.47937C31.7919 8.18713 33.1822 9.849 33.3873 11.4721C33.6491 13.5671 32.6338 15.5881 31.6433 17.4577C29.6765 21.1793 27.7096 24.8973 25.7427 28.6189C25.0352 29.9533 24.2959 31.33 23.1073 32.2701C21.48 33.5552 19.2761 33.8158 17.1996 33.8967C13.5701 34.0376 9.87691 33.4355 8.23196 29.9181C6.77096 26.7845 3.34664 22.7003 5.98563 19.278Z" fill="#E3E2D9"/>
<path d="M9.21569 19.4364C9.5659 13.1164 15.4807 6.94076 21.7032 8.2611C26.9281 9.37018 30.1579 14.8804 35.2271 16.5599C45.3303 19.9118 55.483 6.66261 65.5721 10.0497C70.2911 11.6341 73.1884 16.6056 73.818 21.5243C74.7944 29.1506 71.1649 36.96 65.3209 41.9913C59.4804 47.0227 51.6837 49.4556 43.9648 49.7655C28.4881 50.3851 8.25348 36.798 9.21569 19.4364Z" fill="#ADAAA7"/>
<mask id="mask0_521_68975" style="mask-type:luminance" maskUnits="userSpaceOnUse" x="9" y="8" width="65" height="42">
<path d="M9.21569 19.4364C9.5659 13.1164 15.4807 6.94076 21.7032 8.2611C26.9281 9.37018 30.1579 14.8804 35.2271 16.5599C45.3303 19.9118 55.483 6.66261 65.5721 10.0497C70.2911 11.6341 73.1884 16.6056 73.818 21.5243C74.7944 29.1506 71.1649 36.96 65.3209 41.9913C59.4804 47.0227 51.6837 49.4556 43.9648 49.7655C28.4881 50.3851 8.25348 36.798 9.21569 19.4364Z" fill="white"/>
</mask>
<g mask="url(#mask0_521_68975)">
<path d="M33.8436 42.8786C32.662 42.8786 31.4805 42.7765 30.3131 42.5653C25.6542 41.7238 21.1863 39.1289 18.3598 35.6221C17.5992 34.6785 17.0757 33.6363 16.5698 32.6258C16.2125 31.9146 15.8446 31.1822 15.3989 30.4956C15.1619 30.133 14.9249 29.7844 14.6914 29.4394C13.4922 27.6719 12.3566 25.9994 12.1444 23.6052C11.8437 20.2393 13.9697 16.1902 17.6099 15.5248C20.6804 14.9649 23.3194 16.7853 25.8735 18.5422C27.0869 19.3802 28.3427 20.2428 29.6304 20.8413C32.089 21.9856 34.8942 22.2074 37.604 22.4257C38.9447 22.5349 40.3279 22.644 41.6686 22.8623C45.9419 23.5595 50.4594 26.1438 50.9157 30.3442C51.2058 33.0377 49.6988 35.9425 46.7768 38.3226C43.1544 41.2731 38.506 42.8786 33.8436 42.8786ZM18.7631 16.1233C18.427 16.1233 18.0874 16.1515 17.7407 16.2149C14.4791 16.8099 12.576 20.4822 12.8519 23.5419C13.05 25.7565 14.0829 27.2811 15.2822 29.045C15.5192 29.3936 15.7597 29.7457 15.9967 30.1119C16.4637 30.8301 16.8422 31.5801 17.2066 32.3089C17.7195 33.33 18.2042 34.2947 18.9152 35.1784C21.6356 38.5585 25.9443 41.0583 30.4405 41.8681C36.0121 42.8751 41.9481 41.3435 46.3311 37.7769C47.6258 36.7241 50.5938 33.9003 50.2153 30.4182C49.8014 26.5839 45.567 24.2073 41.5554 23.5524C40.243 23.3376 38.8704 23.2285 37.5474 23.1229C34.774 22.9011 31.905 22.6687 29.3332 21.4751C27.996 20.8519 26.7155 19.9717 25.4738 19.1161C23.2416 17.5845 21.1226 16.1233 18.7631 16.1233Z" fill="#F4F9F5"/>
</g>
<mask id="mask1_521_68975" style="mask-type:luminance" maskUnits="userSpaceOnUse" x="9" y="8" width="65" height="42">
<path d="M9.21569 19.4364C9.5659 13.1164 15.4807 6.94076 21.7032 8.2611C26.9281 9.37018 30.1579 14.8804 35.2271 16.5599C45.3303 19.9118 55.483 6.66261 65.5721 10.0497C70.2911 11.6341 73.1884 16.6056 73.818 21.5243C74.7944 29.1506 71.1649 36.96 65.3209 41.9913C59.4804 47.0227 51.6837 49.4556 43.9648 49.7655C28.4881 50.3851 8.25348 36.798 9.21569 19.4364Z" fill="white"/>
</mask>
<g mask="url(#mask1_521_68975)">
<path d="M34.7958 36.6009C32.0648 36.6009 29.9671 35.7383 27.5262 34.3581C26.8152 33.9567 26.097 33.5941 25.4072 33.2455C23.4085 32.235 21.5195 31.2808 19.8498 29.4711C18.6788 28.2001 18.035 27.0522 17.8334 25.8587C17.5645 24.2848 18.219 22.711 19.4217 22.0244C20.6811 21.3061 22.4322 21.5561 24.1019 22.6898C24.5653 23.0067 25.0075 23.3588 25.4355 23.7039C26.2067 24.3235 26.9354 24.9115 27.7915 25.2847C29.6027 26.0699 31.704 25.7671 33.731 25.4714C34.0317 25.4291 34.3359 25.3833 34.6331 25.3446C37.9407 24.901 40.2259 25.4256 41.6197 26.9537C43.201 28.6824 43.1974 31.64 41.6126 33.6856C40.2613 35.4285 37.969 36.4883 35.3194 36.5939C35.146 36.5974 34.9692 36.6009 34.7958 36.6009ZM20.3698 28.9958C21.951 30.7105 23.7835 31.6365 25.7256 32.6188C26.426 32.9709 27.1477 33.337 27.8729 33.749C30.3598 35.1538 32.4681 36.0024 35.2946 35.8897C37.732 35.7946 39.8333 34.8334 41.0572 33.2561C42.4192 31.5027 42.4369 28.8866 41.1032 27.4255C39.8757 26.084 37.7921 25.6298 34.7321 26.0417C34.435 26.0805 34.1378 26.1262 33.8371 26.1685C31.7076 26.4783 29.5072 26.7987 27.512 25.9291C26.5675 25.5171 25.768 24.8728 24.9933 24.2496C24.5794 23.9151 24.1479 23.5665 23.7057 23.2708C23.1644 22.9046 21.2825 21.7744 19.7719 22.637C18.8168 23.1793 18.3074 24.4573 18.5267 25.746C18.7107 26.7917 19.2944 27.8268 20.3698 28.9958Z" fill="#F4F9F5"/>
</g>
<path opacity="0.2" d="M49.8621 30.4253C48.2985 33.492 45.4296 35.7665 42.2422 37.0938C39.0549 38.4142 35.5563 38.8508 32.1072 38.893C25.8069 38.967 19.312 37.6361 13.9066 34.5377C11.9928 31.8547 10.5637 28.9042 9.80664 25.7671C9.9729 25.7354 10.1356 25.7108 10.2948 25.6932C16.206 24.9996 22.1172 27.6473 28.032 27.0206C29.1286 26.9044 30.25 26.6614 31.1486 26.0277C32.4327 25.1228 33.0624 23.5842 33.83 22.2181C34.6825 20.7005 35.7933 19.3239 37.081 18.1444C37.4807 17.7782 37.8911 17.4331 38.3227 17.1127C40.9298 17.1937 43.5405 16.3945 46.1512 15.2854C48.1888 16.6691 49.7878 19.088 50.5201 21.2357C51.5389 24.2179 51.2983 27.6085 49.8621 30.4253Z" fill="black"/>
<path d="M60.7181 2.75786C64.7155 1.06431 69.0065 -0.150401 73.3471 0.0150809C77.6876 0.180563 82.0989 1.86355 84.8971 5.16968C87.8474 8.65537 88.6858 13.4755 88.5655 18.035C88.3073 27.6612 84.1012 37.1289 77.1216 43.7975C70.1421 50.466 60.4669 54.2581 50.7918 54.1207C43.9361 54.0222 36.3587 51.3146 32.1809 45.6283C28.5018 40.6181 30.3343 35.7804 32.6973 30.5483C38.2477 18.2569 48.1988 8.06034 60.7181 2.75786Z" fill="#EBE9E6"/>
<mask id="mask2_521_68975" style="mask-type:luminance" maskUnits="userSpaceOnUse" x="30" y="0" width="59" height="55">
<path d="M60.7181 2.75786C64.7155 1.06431 69.0065 -0.150401 73.3471 0.0150809C77.6876 0.180563 82.0989 1.86355 84.8971 5.16968C87.8474 8.65537 88.6858 13.4755 88.5655 18.035C88.3073 27.6612 84.1012 37.1289 77.1216 43.7975C70.1421 50.466 60.4669 54.2581 50.7918 54.1207C43.9361 54.0222 36.3587 51.3146 32.1809 45.6283C28.5018 40.6181 30.3343 35.7804 32.6973 30.5483C38.2477 18.2569 48.1988 8.06034 60.7181 2.75786Z" fill="white"/>
</mask>
<g mask="url(#mask2_521_68975)">
<path d="M47.7497 52.5857C44.3254 52.5857 40.1935 51.8886 36.9284 49.2092C34.1196 46.9065 32.7753 44.1285 32.9345 40.9492C33.1538 36.6114 36.1466 31.5624 41.8314 25.9431C46.9042 20.9293 52.7164 16.8909 54.9804 15.3874C58.8929 12.789 62.9611 10.6835 67.0717 9.1308C71.7801 7.35274 75.3106 7.31401 77.8682 9.01108C81.4517 11.3877 81.7772 16.4402 81.6498 19.2393C81.289 27.2881 78.1158 35.0235 72.7176 41.0266C67.3158 47.0262 59.94 51.0154 51.9417 52.2583C50.8061 52.4308 49.3557 52.5857 47.7497 52.5857ZM67.3193 9.7892C63.2582 11.3243 59.2361 13.4052 55.3695 15.9754C51.832 18.3239 34.162 30.5731 33.6385 40.9844C33.4899 43.9278 34.7493 46.5122 37.3777 48.667C41.9623 52.4238 48.4006 52.0928 51.832 51.5612C59.6676 50.3464 66.8983 46.4382 72.1905 40.5583C77.4826 34.6784 80.5921 27.0944 80.9459 19.2111C81.0661 16.5599 80.7725 11.7856 77.4791 9.59907C75.1196 8.0358 71.7978 8.09917 67.3193 9.7892Z" fill="#E0DDD7"/>
</g>
<mask id="mask3_521_68975" style="mask-type:luminance" maskUnits="userSpaceOnUse" x="30" y="0" width="59" height="55">
<path d="M60.7181 2.75786C64.7155 1.06431 69.0065 -0.150401 73.3471 0.0150809C77.6876 0.180563 82.0989 1.86355 84.8971 5.16968C87.8474 8.65537 88.6858 13.4755 88.5655 18.035C88.3073 27.6612 84.1012 37.1289 77.1216 43.7975C70.1421 50.466 60.4669 54.2581 50.7918 54.1207C43.9361 54.0222 36.3587 51.3146 32.1809 45.6283C28.5018 40.6181 30.3343 35.7804 32.6973 30.5483C38.2477 18.2569 48.1988 8.06034 60.7181 2.75786Z" fill="white"/>
</mask>
<g mask="url(#mask3_521_68975)">
<path d="M59.2743 52.9096L58.6942 52.5118C63.7457 45.1883 68.9707 37.6148 72.7452 29.4041C73.5447 27.6648 74.4114 25.6297 74.5529 23.5031C74.7015 21.2779 73.9621 19.2428 72.5754 18.0562C70.4069 16.2007 66.9649 16.3169 62.3414 18.4048C54.534 21.9292 47.3635 26.6332 41.0313 32.3863L40.5537 31.8687C46.939 26.0663 54.1732 21.3201 62.0477 17.7675C66.9437 15.5564 70.6404 15.4754 73.0318 17.5281C74.5847 18.859 75.4161 21.1124 75.2533 23.5559C75.1012 25.8022 74.2098 27.9042 73.382 29.6999C69.5862 37.9634 64.3436 45.5615 59.2743 52.9096Z" fill="#E0DDD7"/>
</g>
<mask id="mask4_521_68975" style="mask-type:luminance" maskUnits="userSpaceOnUse" x="30" y="0" width="59" height="55">
<path d="M60.7181 2.75786C64.7155 1.06431 69.0065 -0.150401 73.3471 0.0150809C77.6876 0.180563 82.0989 1.86355 84.8971 5.16968C87.8474 8.65537 88.6858 13.4755 88.5655 18.035C88.3073 27.6612 84.1012 37.1289 77.1216 43.7975C70.1421 50.466 60.4669 54.2581 50.7918 54.1207C43.9361 54.0222 36.3587 51.3146 32.1809 45.6283C28.5018 40.6181 30.3343 35.7804 32.6973 30.5483C38.2477 18.2569 48.1988 8.06034 60.7181 2.75786Z" fill="white"/>
</mask>
<g mask="url(#mask4_521_68975)">
<path d="M56.9721 52.7299L56.4945 52.4025C60.6511 46.3783 64.9457 40.1498 68.0516 33.3967C68.7096 31.9672 69.4207 30.2948 69.5374 28.5449C69.6612 26.714 69.0528 25.0416 67.9101 24.0628C66.1272 22.5382 63.2972 22.6333 59.4944 24.348C53.0738 27.2457 47.1767 31.1151 41.9659 35.8472L41.5732 35.4212C46.8265 30.6504 52.7731 26.7457 59.2503 23.8234C63.276 22.0066 66.3147 21.9397 68.2851 23.6262C69.5622 24.7212 70.2449 26.5732 70.1105 28.5836C69.9867 30.4321 69.2509 32.1609 68.5717 33.6396C65.4516 40.4385 61.1393 46.6881 56.9721 52.7299Z" fill="#E0DDD7"/>
</g>
<path opacity="0.2" d="M88.5652 18.035C88.307 27.6647 84.1009 37.1289 77.1213 43.7975C75.678 45.1741 74.1215 46.4311 72.4695 47.5578C67.4568 48.4873 62.3274 48.8464 57.2192 48.9837C53.4128 49.0823 49.5675 49.0612 45.8389 48.269C42.1104 47.4803 38.4773 45.8713 35.803 43.1672C33.447 40.7836 32.0037 37.7732 31.0521 34.5445C30.2703 31.9144 29.8069 29.1364 29.4248 26.4324L31.703 24.9078C32.9093 25.1085 34.1191 25.281 35.336 25.436C43.4865 26.4641 51.7431 26.5521 59.9678 26.5591C64.5419 26.5626 69.5758 26.369 72.947 23.2953C75.8372 20.6651 76.7817 16.4964 76.7711 12.5988C76.7676 9.36657 76.2652 5.91609 77.8217 3.08177C78.2073 2.37759 78.6955 1.76495 79.2686 1.23682C81.4371 2.08887 83.3969 3.39865 84.8968 5.16614C87.8506 8.65887 88.689 13.479 88.5652 18.035Z" fill="black"/>
<path d="M36.6487 28.4252C36.2596 27.471 35.8669 26.5098 35.7219 25.4888C35.5769 24.4712 35.7042 23.3762 36.2844 22.5277C36.8645 21.6792 37.9612 21.1405 38.9623 21.401C39.3974 21.5137 39.783 21.7637 40.2039 21.9186C40.6249 22.0735 41.1343 22.1193 41.4951 21.8552C41.9586 21.5102 41.9692 20.8377 42.1496 20.2919C42.4008 19.542 43.0693 18.9434 43.8476 18.7815C44.6259 18.616 45.4784 18.8906 46.0126 19.4786C46.4477 19.9574 46.7767 20.6757 47.424 20.7285C47.9476 20.7708 48.3721 20.3342 48.74 19.9574C49.2883 19.3976 49.9251 18.8871 50.6786 18.6618C51.4321 18.4364 52.3235 18.5491 52.8824 19.0983C53.4626 19.6687 53.5687 20.5912 53.36 21.3764C53.1513 22.1615 52.6737 22.8446 52.2032 23.51C53.597 23.6473 54.9236 24.3762 55.7832 25.4747C56.6428 26.5767 57.0284 28.0344 56.8197 29.4111C56.5155 31.4109 55.0262 33.0939 53.2397 34.0586C51.4533 35.0234 49.3944 35.3684 47.3674 35.5304C45.0999 35.7099 42.758 35.6747 40.6355 34.8579C38.513 34.041 36.6381 32.3228 36.1429 30.1117" fill="#E3E2D9"/>
<path d="M32.2945 28.6259C30.4019 29.5449 28.2511 29.7596 26.1463 29.8829C25.9977 29.8899 25.8456 29.9005 25.6935 29.9075C25.5803 29.9146 25.4671 29.9216 25.3539 29.9251C23.8646 29.9991 22.3682 30.0343 20.8789 30.0237C20.7834 30.0272 20.6879 30.0237 20.5888 30.0202C19.3295 30.0131 18.063 29.9744 16.8072 29.9075C16.6657 29.9005 16.5207 29.8899 16.3756 29.8794C16.2837 29.8723 16.1917 29.8617 16.0997 29.8512C15.7813 29.8125 15.47 29.7385 15.1799 29.5977C14.6812 29.3547 14.2637 28.8618 14.285 28.309C14.3133 27.6225 14.9571 27.1401 15.5514 26.795C16.7152 26.1155 17.9887 25.517 19.3295 25.0346C19.5382 24.9571 19.7504 24.8832 19.9627 24.8128C21.551 24.2917 23.2208 23.9396 24.8869 23.8199C25.0249 23.8093 25.1629 23.8023 25.2973 23.7952C27.2182 23.7002 29.1284 23.922 30.9043 24.5593C31.0069 24.5945 31.1094 24.6332 31.212 24.6719C31.7002 24.8621 32.1778 25.0804 32.6447 25.3409C33.1329 25.612 33.6388 25.9712 33.7838 26.5099C34.0314 27.4147 33.1435 28.2175 32.2945 28.6259Z" fill="#C5D4C4"/>
<path d="M19.9694 24.8093C18.3917 26.1825 17.15 27.9394 16.3824 29.8759C16.2904 29.8689 16.1984 29.8583 16.1064 29.8477C16.814 28.0345 17.9247 26.3761 19.3362 25.0311C19.5449 24.9537 19.7536 24.8797 19.9694 24.8093Z" fill="#E7EDE5"/>
<path d="M25.3048 23.7917C23.4334 25.5381 21.9193 27.6788 20.8829 30.0202C20.7873 30.0237 20.6918 30.0202 20.5928 30.0167C21.601 27.6964 23.0761 25.5698 24.8909 23.8129C25.0324 23.8058 25.1668 23.7988 25.3048 23.7917Z" fill="#E7EDE5"/>
<path d="M31.2191 24.672C29.0895 26.0663 27.2075 27.8584 25.697 29.9076C25.5838 29.9146 25.4706 29.9217 25.3574 29.9252C26.8679 27.8267 28.7641 25.9923 30.9113 24.5593C31.0175 24.5945 31.1165 24.6333 31.2191 24.672Z" fill="#E7EDE5"/>
<path d="M54.1702 27.1717C53.6856 28.3336 53.2894 29.7208 53.6538 30.9531C53.9332 31.8967 54.6266 32.5657 55.373 32.8403C56.1194 33.115 56.9189 33.0445 57.683 32.8579C60.6404 32.1362 63.2015 29.7842 65.5328 27.3055C66.7143 26.0485 67.9065 24.6683 68.4795 22.8269C68.9394 21.3481 68.8828 19.5067 68.1293 18.204C67.3086 16.7815 65.837 17.278 64.6413 17.5455C61.8573 18.1617 59.2183 19.8517 57.1241 22.3164C55.939 23.7036 54.9308 25.3443 54.1702 27.1717Z" fill="#F5F2EF"/>
<path d="M61.5889 20.0101C60.892 21.1509 61.0193 22.7282 61.8896 23.7423C62.7598 24.7563 64.3057 25.1295 65.5474 24.6225C66.7891 24.1155 67.6274 22.7705 67.5284 21.4396C67.3091 18.4222 63.1702 17.4258 61.5889 20.0101Z" fill="#BEBAB6"/>
<path d="M46.2708 68.7113C68.72 68.7113 86.9206 50.5998 86.9206 28.2527H5.62109C5.62109 50.5963 23.8217 68.7113 46.2708 68.7113Z" fill="#D6DDD7"/>
<mask id="mask5_521_68975" style="mask-type:luminance" maskUnits="userSpaceOnUse" x="5" y="28" width="82" height="41">
<path d="M46.2708 68.7113C68.72 68.7113 86.9206 50.5998 86.9206 28.2527H5.62109C5.62109 50.5963 23.8217 68.7113 46.2708 68.7113Z" fill="white"/>
</mask>
<g mask="url(#mask5_521_68975)">
<g opacity="0.5">
<path d="M61.3907 47.6353C59.4557 47.6353 57.6763 47.0051 56.4134 45.8361C54.0114 43.6109 53.8805 40.0302 54.1918 37.4177C55.009 30.6012 58.8932 24.2178 64.5851 20.3413L64.8256 20.6934C59.2328 24.4995 55.4158 30.7702 54.6163 37.467C54.3687 39.5232 54.3156 43.3081 56.707 45.5228C58.2494 46.9523 60.7292 47.5297 63.1842 47.0262C65.1299 46.6283 67.0472 45.6707 69.4032 43.9137C72.1377 41.8786 74.6246 39.4527 77.0336 37.1078C79.3047 34.8967 81.6501 32.6081 84.2078 30.6399C93.0268 23.8552 104.863 20.8096 115.883 22.4891L115.819 22.908C104.92 21.2462 93.2002 24.2601 84.4731 30.9744C81.9367 32.9285 79.5983 35.2065 77.3343 37.4106C74.9182 39.7661 72.4172 42.2026 69.6614 44.2553C67.2524 46.0509 65.282 47.0332 63.2727 47.4452C62.6324 47.5719 62.0062 47.6353 61.3907 47.6353Z" fill="white"/>
</g>
</g>
<mask id="mask6_521_68975" style="mask-type:luminance" maskUnits="userSpaceOnUse" x="5" y="28" width="82" height="41">
<path d="M46.2708 68.7113C68.72 68.7113 86.9206 50.5998 86.9206 28.2527H5.62109C5.62109 50.5963 23.8217 68.7113 46.2708 68.7113Z" fill="white"/>
</mask>
<g mask="url(#mask6_521_68975)">
<g opacity="0.5">
<path d="M64.6517 42.1639C63.0209 42.1639 61.3795 41.5196 60.7109 40.0549C60.0776 38.6641 60.5517 37.0762 61.0469 35.696C62.4372 31.823 64.068 27.9887 65.9004 24.3024L66.2825 24.4925C64.4606 28.1648 62.8334 31.985 61.4502 35.8403C60.9832 37.1431 60.534 38.6359 61.1 39.8823C61.8606 41.5512 64.0927 42.0125 65.9039 41.6041C68.2069 41.0865 70.3931 39.4986 72.4024 36.886C73.2231 35.8192 73.966 34.6644 74.6841 33.5447C75.4447 32.3652 76.23 31.1435 77.1108 30.0133C81.8759 23.9221 89.0005 21.042 94.137 19.697C100.688 17.9823 107.541 17.7112 114.17 17.4507L114.188 17.8767C107.583 18.1373 100.756 18.4084 94.2466 20.109C89.1738 21.4363 82.1412 24.2777 77.4504 30.2773C76.5802 31.3899 75.7984 32.6011 75.0449 33.7771C74.3233 34.9038 73.5733 36.0657 72.742 37.1466C70.6725 39.8401 68.405 41.4808 65.9995 42.0195C65.5643 42.1111 65.108 42.1639 64.6517 42.1639Z" fill="white"/>
</g>
</g>
<mask id="mask7_521_68975" style="mask-type:luminance" maskUnits="userSpaceOnUse" x="5" y="28" width="82" height="41">
<path d="M46.2708 68.7113C68.72 68.7113 86.9206 50.5998 86.9206 28.2527H5.62109C5.62109 50.5963 23.8217 68.7113 46.2708 68.7113Z" fill="white"/>
</mask>
<g mask="url(#mask7_521_68975)">
<g opacity="0.5">
<path d="M42.7443 84.8862C39.6313 80.964 36.4121 76.9079 34.2542 72.2709C31.8487 67.0987 31.2084 61.8103 32.4465 57.3739C32.8003 56.1135 33.3097 54.8847 33.8014 53.7016C34.2153 52.7017 34.6469 51.6666 34.9759 50.6244C35.5702 48.7407 36.0301 46.0226 34.8379 43.7797C32.871 40.0863 27.7346 39.7378 25.6156 39.7518C16.8708 39.8363 8.61775 43.9628 1.33751 47.6034L1.14648 47.2232C8.46917 43.5615 16.7682 39.4103 25.612 39.3258C27.8124 39.2976 33.1399 39.6779 35.2164 43.5791C36.4793 45.9521 36.0053 48.79 35.3827 50.7511C35.0466 51.8109 34.615 52.8531 34.1976 53.8636C33.7094 55.0361 33.2071 56.2508 32.8604 57.4901C31.6471 61.8279 32.2803 67.0142 34.6433 72.0948C36.78 76.6861 39.9815 80.721 43.0804 84.6257L42.7443 84.8862Z" fill="white"/>
</g>
</g>
<mask id="mask8_521_68975" style="mask-type:luminance" maskUnits="userSpaceOnUse" x="5" y="28" width="82" height="41">
<path d="M46.2708 68.7113C68.72 68.7113 86.9206 50.5998 86.9206 28.2527H5.62109C5.62109 50.5963 23.8217 68.7113 46.2708 68.7113Z" fill="white"/>
</mask>
<g mask="url(#mask8_521_68975)">
<g opacity="0.5">
<path d="M64.3121 96.9348C60.4102 92.0408 56.3774 86.9848 53.8693 81.1048C51.0853 74.5736 50.7952 67.8029 53.0769 62.5251C54.7855 58.5711 58.0153 55.1488 62.1719 52.8884C65.8615 50.8779 70.34 49.7512 75.1263 49.628C79.0742 49.5294 82.0669 50.2301 84.285 51.7828L84.0409 52.1314C81.9007 50.635 78.9893 49.9519 75.1369 50.054C70.4179 50.1773 66.0066 51.2864 62.3735 53.2616C58.3018 55.4797 55.1393 58.8281 53.466 62.6941C51.2303 67.8627 51.5204 74.5137 54.2584 80.9394C56.7453 86.7665 60.7604 91.8013 64.6446 96.6707L64.3121 96.9348Z" fill="white"/>
</g>
</g>
<mask id="mask9_521_68975" style="mask-type:luminance" maskUnits="userSpaceOnUse" x="5" y="28" width="82" height="41">
<path d="M46.2708 68.7113C68.72 68.7113 86.9206 50.5998 86.9206 28.2527H5.62109C5.62109 50.5963 23.8217 68.7113 46.2708 68.7113Z" fill="white"/>
</mask>
<g mask="url(#mask9_521_68975)">
<g opacity="0.5">
<path d="M29.6908 84.4568C25.605 82.2563 21.8658 76.5841 22.7148 68.8769C23.3692 62.9406 26.4044 57.4797 29.4609 52.3955L29.4821 52.3568C30.1684 51.2125 30.8794 50.033 31.1836 48.7408C31.5232 47.3078 31.265 45.9206 30.4938 45.0298C29.3618 43.7236 27.3419 43.4454 24.3138 44.1778C18.2575 45.6389 12.5019 48.0437 7.2098 51.3217L6.9834 50.959C12.3145 47.6564 18.1125 45.234 24.2147 43.7623C27.4126 42.9912 29.5741 43.3116 30.8193 44.7517C31.6824 45.7446 31.9725 47.2726 31.6011 48.8394C31.2792 50.195 30.554 51.4026 29.85 52.5751L29.8288 52.6138C26.8006 57.6593 23.7867 63.0744 23.1428 68.9262C22.3151 76.4398 25.9375 81.9535 29.896 84.0872L29.6908 84.4568Z" fill="white"/>
</g>
</g>
<mask id="mask10_521_68975" style="mask-type:luminance" maskUnits="userSpaceOnUse" x="5" y="28" width="82" height="41">
<path d="M46.2708 68.7113C68.72 68.7113 86.9206 50.5998 86.9206 28.2527H5.62109C5.62109 50.5963 23.8217 68.7113 46.2708 68.7113Z" fill="white"/>
</mask>
<g mask="url(#mask10_521_68975)">
<g opacity="0.5">
<path d="M9.52641 36.2662C5.40872 36.2662 1.26628 34.7557 -1.77246 32.0059L-1.48592 31.6925C2.50441 35.3015 8.44039 36.7169 13.637 35.2979C16.8597 34.4212 19.7393 32.5587 22.5233 30.7595C23.9312 29.8511 25.3887 28.911 26.878 28.1012C35.2159 23.5734 45.1706 22.8375 54.6865 22.7178L54.6936 23.1438C45.2342 23.2635 35.3398 23.9888 27.0867 28.4744C25.6116 29.2772 24.1612 30.2138 22.7603 31.1186C19.948 32.9354 17.0401 34.8156 13.7538 35.7099C12.3777 36.0831 10.952 36.2662 9.52641 36.2662Z" fill="white"/>
</g>
</g>
<mask id="mask11_521_68975" style="mask-type:luminance" maskUnits="userSpaceOnUse" x="5" y="28" width="82" height="41">
<path d="M46.2708 68.7113C68.72 68.7113 86.9206 50.5998 86.9206 28.2527H5.62109C5.62109 50.5963 23.8217 68.7113 46.2708 68.7113Z" fill="white"/>
</mask>
<g mask="url(#mask11_521_68975)">
<g opacity="0.5">
<path d="M58.4683 70.4154C58.1464 66.1974 58.1605 60.152 62.0023 56.4022C65.2179 53.2651 70.6197 52.487 75.7633 54.4164C80.3691 56.1452 84.1968 59.6133 87.5716 62.6765L87.285 62.9898C83.9385 59.9548 80.1427 56.5114 75.6147 54.8143C71.5289 53.2792 65.8264 53.2722 62.303 56.705C58.585 60.3316 58.578 66.2467 58.8928 70.3802L58.4683 70.4154Z" fill="white"/>
</g>
</g>
<mask id="mask12_521_68975" style="mask-type:luminance" maskUnits="userSpaceOnUse" x="5" y="28" width="82" height="41">
<path d="M46.2708 68.7113C68.72 68.7113 86.9206 50.5998 86.9206 28.2527H5.62109C5.62109 50.5963 23.8217 68.7113 46.2708 68.7113Z" fill="white"/>
</mask>
<g mask="url(#mask12_521_68975)">
<g opacity="0.5">
<path d="M44.8165 47.1636C44.7634 47.1636 44.7139 47.1636 44.6609 47.16C42.4888 47.072 40.8545 45.1285 40.2 43.2448C39.7437 41.9385 39.6022 40.5443 39.4607 39.1993C39.3935 38.5585 39.3263 37.9001 39.2272 37.2593C38.4065 32.0448 35.2086 27.3022 30.6699 24.5735L30.8928 24.2108C35.5376 27.0029 38.8098 31.8582 39.6517 37.1959C39.7543 37.8473 39.8215 38.5127 39.8887 39.1606C40.0231 40.4844 40.1647 41.8505 40.6033 43.111C41.2118 44.8609 42.7081 46.6601 44.6785 46.741C45.6372 46.7833 46.5428 46.4101 47.3105 45.6672C48.4354 44.5792 49.1464 42.7836 49.1288 41.09C49.1075 39.4669 48.6583 37.8543 48.2196 36.2945C47.9118 35.1995 47.5935 34.0658 47.4237 32.9215C46.3907 26.0382 51.4671 18.6724 58.291 17.1584L58.3829 17.5739C51.7642 19.0421 46.84 26.186 47.8446 32.8581C48.0109 33.9778 48.3257 35.0974 48.63 36.1819C49.0721 37.7663 49.532 39.4035 49.5533 41.0865C49.5745 42.8927 48.8104 44.8116 47.6076 45.9735C46.7975 46.7516 45.8353 47.1636 44.8165 47.1636Z" fill="white"/>
</g>
</g>
<path d="M23.3125 14.0353C23.0507 14.2923 22.8845 14.6444 22.8526 15.0106C22.8385 15.1901 22.8703 15.3979 23.0224 15.4965C23.1498 15.5774 23.3161 15.5528 23.4576 15.5035C23.8078 15.3803 24.0979 15.1268 24.3526 14.8556C24.4834 14.7148 24.6108 14.5634 24.6815 14.3874C24.8054 14.0775 24.6745 13.6445 24.303 13.5811C23.9811 13.5247 23.5248 13.8275 23.3125 14.0353Z" fill="#EEE9E2"/>
<path d="M56.6109 19.1688C56.2501 19.0878 55.8645 19.1406 55.5391 19.3131C55.3799 19.3976 55.2207 19.5384 55.2207 19.718C55.2207 19.8694 55.3304 19.9962 55.4506 20.0877C55.7443 20.3166 56.1157 20.4187 56.4801 20.4856C56.6711 20.5208 56.8657 20.5454 57.0531 20.5067C57.3821 20.4398 57.6757 20.0983 57.5307 19.7532C57.4069 19.4539 56.901 19.2356 56.6109 19.1688Z" fill="#EEE9E2"/>
<path d="M74.861 22.2354C74.5001 22.1544 74.1145 22.2072 73.7891 22.3798C73.6299 22.4643 73.4707 22.6051 73.4707 22.7847C73.4707 22.9361 73.5804 23.0628 73.7006 23.1544C73.9943 23.3832 74.3657 23.4853 74.7301 23.5522C74.9211 23.5874 75.1157 23.6121 75.3031 23.5733C75.6321 23.5064 75.9257 23.1649 75.7807 22.8199C75.6569 22.5206 75.151 22.3023 74.861 22.2354Z" fill="#EEE9E2"/>
<path d="M48.7116 14.465C48.4852 14.6269 48.3225 14.8699 48.2588 15.141C48.2269 15.2748 48.2269 15.4332 48.3331 15.5213C48.418 15.5952 48.5453 15.5952 48.6585 15.5741C48.9345 15.5212 49.1785 15.3663 49.3979 15.1903C49.5111 15.0987 49.6243 15.0037 49.695 14.8769C49.8224 14.6586 49.7728 14.3241 49.504 14.2326C49.2705 14.1587 48.8955 14.3347 48.7116 14.465Z" fill="#EEE9E2"/>
<path d="M35.3756 18.6935C35.1492 18.8555 34.9865 19.0984 34.9228 19.3695C34.891 19.5033 34.891 19.6617 34.9971 19.7498C35.082 19.8237 35.2094 19.8237 35.3226 19.8026C35.5985 19.7498 35.8426 19.5948 36.0619 19.4188C36.1751 19.3273 36.2883 19.2322 36.3591 19.1054C36.4864 18.8871 36.4369 18.5527 36.1681 18.4611C35.9346 18.3872 35.5596 18.5632 35.3756 18.6935Z" fill="#EEE9E2"/>
<path d="M59.1758 7.55335C58.914 7.81037 58.7478 8.16246 58.7159 8.52864C58.7018 8.7082 58.7336 8.91946 58.8857 9.01452C59.0131 9.0955 59.1793 9.07085 59.3208 9.02156C59.6711 8.89833 59.9611 8.64483 60.2158 8.37372C60.3467 8.23288 60.4741 8.08148 60.5448 7.90544C60.6686 7.5956 60.5378 7.16253 60.1663 7.09915C59.8479 7.04282 59.3881 7.34561 59.1758 7.55335Z" fill="#EEE9E2"/>
<path d="M84.8194 15.3627C84.5576 15.6197 84.3913 15.9718 84.3595 16.338C84.3453 16.5175 84.3772 16.7288 84.5293 16.8238C84.6566 16.9048 84.8229 16.8802 84.9644 16.8309C85.3146 16.7077 85.6047 16.4542 85.8594 16.183C85.9903 16.0422 86.1176 15.8908 86.1884 15.7148C86.3122 15.4049 86.1813 14.9719 85.8099 14.9085C85.4915 14.8521 85.0351 15.1549 84.8194 15.3627Z" fill="#EEE9E2"/>
<path d="M70.1533 9.81384C69.8916 10.0709 69.7253 10.423 69.6935 10.7891C69.6793 10.9687 69.7112 11.1764 69.8633 11.275C69.9906 11.356 70.1569 11.3314 70.2984 11.2821C70.6486 11.1588 70.9387 10.9053 71.1934 10.6342C71.3243 10.4934 71.4516 10.342 71.5224 10.1659C71.6462 9.8561 71.5153 9.42302 71.1438 9.35965C70.8255 9.30331 70.3656 9.60611 70.1533 9.81384Z" fill="#EEE9E2"/>
<path d="M76.3581 15.9859C76.2025 16.1373 76.107 16.345 76.0893 16.5598C76.0822 16.6654 76.0999 16.7886 76.1883 16.845C76.2626 16.8943 76.3617 16.8767 76.443 16.8485C76.6482 16.7781 76.8216 16.6267 76.9701 16.4682C77.048 16.3873 77.1223 16.2957 77.1647 16.1936C77.2355 16.0105 77.1612 15.757 76.9418 15.7183C76.7508 15.6866 76.482 15.8662 76.3581 15.9859Z" fill="#EEE9E2"/>
<path d="M79.7149 24.2845C79.4531 24.5416 79.2868 24.8937 79.255 25.2598C79.2408 25.4394 79.2727 25.6507 79.4248 25.7457C79.5521 25.8267 79.7184 25.8021 79.8599 25.7528C80.2101 25.6295 80.5002 25.376 80.7549 25.1049C80.8858 24.9641 81.0131 24.8127 81.0839 24.6366C81.2077 24.3268 81.0768 23.8937 80.7054 23.8304C80.387 23.774 79.9271 24.0768 79.7149 24.2845Z" fill="#EEE9E2"/>
<path d="M78.7774 1.98328C78.5156 2.2403 78.3493 2.59239 78.3175 2.95857C78.3033 3.13813 78.3352 3.34939 78.4873 3.44445C78.6146 3.52543 78.7809 3.50079 78.9224 3.45149C79.2726 3.32826 79.5627 3.07476 79.8174 2.80365C79.9483 2.66281 80.0756 2.51141 80.1464 2.33537C80.2702 2.02553 80.1393 1.59246 79.7679 1.52908C79.4495 1.47275 78.9896 1.77554 78.7774 1.98328Z" fill="#EEE9E2"/>
<path d="M28.7283 20.0701C28.5903 20.2039 28.5019 20.3905 28.4878 20.5806C28.4807 20.6757 28.4984 20.7849 28.5762 20.8341C28.6434 20.8764 28.7318 20.8623 28.8061 20.8377C28.9901 20.7743 29.1422 20.6405 29.2766 20.4997C29.3474 20.4257 29.411 20.3483 29.45 20.2532C29.5136 20.0912 29.4464 19.8659 29.2519 19.8307C29.0785 19.8025 28.838 19.961 28.7283 20.0701Z" fill="#EEE9E2"/>
<path d="M18.4803 7.80327C18.3423 7.93706 18.2539 8.12367 18.2397 8.3138C18.2326 8.40886 18.2503 8.51801 18.3281 8.5673C18.3954 8.60955 18.4838 8.59547 18.5581 8.57082C18.742 8.50745 18.8942 8.37365 19.0286 8.23282C19.0993 8.15888 19.163 8.08142 19.2019 7.98635C19.2656 7.82439 19.1984 7.59905 19.0038 7.56384C18.8305 7.5392 18.5899 7.69764 18.4803 7.80327Z" fill="#EEE9E2"/>
<path d="M11.9889 21.6017C11.9606 21.9679 12.0667 22.3411 12.2825 22.6368C12.3886 22.7812 12.5513 22.9185 12.7318 22.8939C12.8803 22.8727 12.99 22.746 13.0643 22.6157C13.2482 22.2953 13.3013 21.915 13.3154 21.5454C13.3225 21.3552 13.319 21.1581 13.2553 20.975C13.1421 20.6616 12.7601 20.4187 12.4381 20.6123C12.1622 20.7778 12.0136 21.3059 11.9889 21.6017Z" fill="#EEE9E2"/>
<path d="M70.3155 4.41976C70.3261 4.56764 70.4075 4.68383 70.503 4.72608C70.5949 4.76833 70.694 4.74368 70.786 4.69791C70.8567 4.6627 70.931 4.60285 70.9452 4.49722C70.9593 4.39512 70.9133 4.28949 70.8603 4.22259C70.7223 4.05359 70.2801 3.95852 70.3155 4.41976Z" fill="#EDE8E8"/>
<path d="M26.2022 24.8162C26.2128 24.9641 26.2942 25.0803 26.3897 25.1225C26.4817 25.1648 26.5807 25.1402 26.6727 25.0944C26.7434 25.0592 26.8177 24.9993 26.8319 24.8937C26.846 24.7916 26.8 24.686 26.747 24.6191C26.609 24.4501 26.1668 24.3515 26.2022 24.8162Z" fill="#EDE8E8"/>
<path d="M23.7432 11.782C23.7538 11.9299 23.8352 12.0461 23.9307 12.0884C24.0227 12.1306 24.1217 12.106 24.2137 12.0602C24.2845 12.025 24.3588 11.9651 24.3729 11.8595C24.3871 11.7574 24.3411 11.6518 24.288 11.5849C24.15 11.4159 23.7078 11.3173 23.7432 11.782Z" fill="#EDE8E8"/>
<path d="M44.5333 20.8695C44.5439 21.0173 44.6252 21.1335 44.7207 21.1758C44.8127 21.218 44.9118 21.1934 45.0037 21.1476C45.0745 21.1124 45.1488 21.0525 45.1629 20.9469C45.1771 20.8448 45.1311 20.7392 45.078 20.6723C44.9401 20.5033 44.4979 20.4047 44.5333 20.8695Z" fill="#EDE8E8"/>
<path d="M60.8243 13.9122C60.8349 14.0601 60.9162 14.1762 61.0118 14.2185C61.1037 14.2607 61.2028 14.2361 61.2948 14.1903C61.3655 14.1551 61.4398 14.0953 61.454 13.9896C61.4681 13.8875 61.4221 13.7819 61.3691 13.715C61.2311 13.546 60.7889 13.4474 60.8243 13.9122Z" fill="#EDE8E8"/>
<path d="M61.4602 25.6051C61.4673 25.6896 61.5131 25.76 61.5696 25.7846C61.6225 25.8093 61.6824 25.7952 61.7354 25.7705C61.7742 25.7494 61.82 25.7142 61.8306 25.6508C61.8412 25.591 61.813 25.5311 61.7812 25.4924C61.6966 25.3903 61.4391 25.334 61.4602 25.6051Z" fill="#EDE8E8"/>
<path d="M81.8544 22.8974C81.8614 22.9819 81.9073 23.0523 81.9637 23.0769C82.0166 23.1016 82.0766 23.0875 82.1295 23.0628C82.1683 23.0417 82.2142 23.0065 82.2248 22.9431C82.2353 22.8833 82.2071 22.8234 82.1754 22.7847C82.0942 22.6861 81.8367 22.6262 81.8544 22.8974Z" fill="#EDE8E8"/>
<path d="M19.4983 22.4679C19.5054 22.5524 19.5512 22.6228 19.6077 22.6474C19.6606 22.6721 19.7205 22.658 19.7734 22.6333C19.8122 22.6122 19.8581 22.577 19.8687 22.5136C19.8793 22.4538 19.851 22.3939 19.8193 22.3552C19.7346 22.2531 19.4771 22.1967 19.4983 22.4679Z" fill="#EDE8E8"/>
<path d="M56.5606 26.1368C56.5712 26.2847 56.6526 26.4009 56.7481 26.4431C56.8401 26.4854 56.9391 26.4607 57.0311 26.4149C57.1018 26.3797 57.1761 26.3199 57.1903 26.2142C57.2044 26.1121 57.1584 26.0065 57.1054 25.9396C56.9674 25.7706 56.5252 25.672 56.5606 26.1368Z" fill="#EDE8E8"/>
<path d="M29.1094 16.3028C29.12 16.4507 29.2014 16.5669 29.2969 16.6091C29.3889 16.6514 29.4879 16.6267 29.5799 16.581C29.6507 16.5457 29.725 16.4859 29.7391 16.3803C29.7533 16.2782 29.7073 16.1725 29.6542 16.1056C29.5162 15.9366 29.0741 15.838 29.1094 16.3028Z" fill="#EDE8E8"/>
<path d="M15.7911 14.222C15.8017 14.3699 15.883 14.4861 15.9786 14.5283C16.0705 14.5706 16.1696 14.5459 16.2616 14.5001C16.3323 14.4649 16.4066 14.4051 16.4207 14.2995C16.4349 14.1973 16.3889 14.0917 16.3358 14.0248C16.1979 13.8558 15.7557 13.7572 15.7911 14.222Z" fill="#EDE8E8"/>
<g opacity="0.5">
<mask id="mask13_521_68975" style="mask-type:luminance" maskUnits="userSpaceOnUse" x="5" y="28" width="82" height="41">
<path d="M46.2708 68.6972C23.8217 68.6972 5.62109 50.5857 5.62109 28.2385H86.9171C86.9206 50.5857 68.72 68.6972 46.2708 68.6972Z" fill="white"/>
</mask>
<g mask="url(#mask13_521_68975)">
<path d="M86.044 36.731C82.6656 36.731 79.4571 35.7275 77.0268 33.872C75.8842 32.9988 74.9078 31.9496 73.9633 30.9321C73.0082 29.904 72.1061 28.9322 71.0413 28.1259C67.3658 25.3444 61.9003 25.1613 58.0444 27.6893C57.719 27.9041 57.2803 27.8126 57.0681 27.4886C56.8523 27.1647 56.9443 26.7281 57.2697 26.5169C61.6103 23.672 67.7585 23.8797 71.8974 27.0063C73.0577 27.883 74.0447 28.9463 74.9998 29.9744C75.9443 30.9919 76.8358 31.9531 77.8829 32.7524C80.4936 34.7417 84.116 35.643 87.8304 35.2205C91.0566 34.8544 94.3749 33.5446 97.7001 31.3335C98.0256 31.1187 98.4642 31.2032 98.68 31.5271C98.8958 31.851 98.8109 32.2876 98.4855 32.5024C94.9727 34.8403 91.4422 36.224 87.9931 36.6183C87.3422 36.6958 86.6913 36.731 86.044 36.731Z" fill="black"/>
<path d="M79.0392 55.7685C78.9755 55.7685 78.9083 55.7579 78.8446 55.7403C73.0926 54.0925 68.4832 49.283 67.1 43.4876C66.6932 41.787 66.5623 40.0371 66.4314 38.3471C66.3288 37.0091 66.2262 35.6219 65.9822 34.3016C65.6885 32.689 64.6591 28.7949 61.486 27.4499C61.1287 27.2985 60.9589 26.8865 61.1145 26.5274C61.2666 26.1683 61.6805 26.0028 62.0413 26.1577C64.7193 27.295 66.6649 30.1715 67.3724 34.0516C67.6271 35.4459 67.7368 36.8683 67.8394 38.245C67.9632 39.8822 68.0905 41.5722 68.4726 43.1672C69.7213 48.3957 74.0477 52.906 79.2337 54.3918C79.6087 54.4974 79.8245 54.8883 79.7184 55.2615C79.6264 55.5678 79.3434 55.7685 79.0392 55.7685Z" fill="black"/>
<path d="M85.0992 51.3181C81.8836 51.3181 79.0571 49.2091 77.6421 46.9874C76.1174 44.5897 75.6646 41.861 75.2295 39.2203C75.1799 38.9281 75.134 38.6323 75.0844 38.3401C74.6882 36.0128 74.1611 33.5516 73.0044 31.3053C72.1447 29.6399 70.5422 27.3866 67.8007 26.112C65.3421 24.9712 62.3847 24.9607 60.2728 26.0909C59.9049 26.2845 59.4521 26.1472 59.254 25.7845C59.0594 25.4219 59.1938 24.9677 59.5617 24.7705C62.0805 23.4291 65.5614 23.422 68.4374 24.7564C71.5646 26.2106 73.3758 28.7456 74.3415 30.6223C75.5938 33.0482 76.1528 35.6466 76.5667 38.0901C76.6162 38.3858 76.6657 38.6816 76.7152 38.9774C77.1256 41.4701 77.5501 44.0474 78.912 46.1882C80.3129 48.3887 83.2809 50.3041 86.2418 49.7091C87.9752 49.3605 89.4574 48.1352 89.9314 46.66C90.3949 45.2164 89.8713 43.5475 88.6296 42.5053C88.3112 42.2377 88.2723 41.7659 88.5412 41.4525C88.81 41.1357 89.2841 41.0969 89.5989 41.3645C91.3005 42.7905 92.008 45.1037 91.3641 47.1177C90.7203 49.1281 88.8277 50.7231 86.5389 51.1808C86.0543 51.2723 85.5732 51.3181 85.0992 51.3181Z" fill="black"/>
<path d="M54.4218 48.4698C52.7273 48.4698 51.0293 47.5262 50.0211 46.241C48.5813 44.4066 48.2064 42.0652 48.0295 40.0161C47.8066 37.4353 47.8349 34.8228 48.1108 32.2455C48.263 30.8441 48.5141 29.3794 49.3278 28.1612C50.3077 26.6965 52.0198 25.943 53.4914 26.3268C53.8699 26.4254 54.0928 26.8092 53.9938 27.1859C53.8947 27.5591 53.5091 27.7845 53.1306 27.6859C52.1295 27.4218 51.0505 28.119 50.5022 28.9393C49.8938 29.8512 49.6674 30.9815 49.5152 32.3969C49.2464 34.8826 49.2216 37.4071 49.4374 39.8964C49.5966 41.7413 49.9256 43.8327 51.1354 45.3784C52.1684 46.6917 54.2308 47.5825 55.7661 46.7269C56.1057 46.5368 56.5372 46.66 56.7283 46.998C56.9193 47.336 56.799 47.7656 56.4594 47.9557C55.8085 48.3113 55.1152 48.4698 54.4218 48.4698Z" fill="black"/>
<path d="M2.60025 62.5076C2.32078 62.5076 2.05547 62.3386 1.94227 62.064C1.79723 61.7013 1.97411 61.2964 2.33847 61.1521C8.78739 58.6064 13.043 51.2654 12.0313 44.4384C11.7978 42.8575 11.3096 41.2801 10.8356 39.752C10.4889 38.6394 10.1352 37.4846 9.86987 36.3192C9.3074 33.851 9.02794 30.3336 10.8745 27.5944C11.8615 26.1297 13.5949 25.0769 15.399 24.8481C16.8883 24.6579 18.2644 25.0452 19.2762 25.936C19.5698 26.1931 19.5945 26.6367 19.3363 26.9289C19.0781 27.2212 18.6323 27.2458 18.3387 26.9888C17.6347 26.3691 16.6549 26.1015 15.5759 26.2423C14.1644 26.4219 12.8131 27.2423 12.0419 28.3795C10.4748 30.7033 10.7401 33.8123 11.2424 36.0093C11.4971 37.1254 11.8438 38.2521 12.1834 39.3401C12.6716 40.9175 13.1775 42.5512 13.4286 44.2377C14.5323 51.6844 9.8911 59.6909 2.86203 62.4654C2.77359 62.4935 2.68515 62.5076 2.60025 62.5076Z" fill="black"/>
</g>
</g>
<mask id="mask14_521_68975" style="mask-type:luminance" maskUnits="userSpaceOnUse" x="0" y="28" width="101" height="37">
<path d="M101 28.2422H0V64.3138H101V28.2422Z" fill="white"/>
</mask>
<g mask="url(#mask14_521_68975)">
<path d="M80.4513 55.7687C80.3876 55.7687 80.3204 55.7581 80.2567 55.7405C74.5047 54.0928 69.8953 49.2832 68.5121 43.4878C68.1053 41.7872 67.9744 40.0373 67.8435 38.3473C67.7409 37.0094 67.6384 35.6221 67.3943 34.3018C67.1007 32.6892 66.0712 28.7951 62.8981 27.4501C62.5408 27.2987 62.371 26.8868 62.5266 26.5276C62.6787 26.172 63.0962 26.003 63.4535 26.1579C66.1314 27.2952 68.077 30.1718 68.7845 34.0518C69.0392 35.4461 69.1489 36.8685 69.2515 38.2452C69.3753 39.8824 69.5026 41.5724 69.8847 43.1674C71.1334 48.3959 75.4598 52.9062 80.6494 54.392C81.0244 54.4977 81.2402 54.8885 81.134 55.2617C81.0385 55.568 80.7591 55.7687 80.4513 55.7687Z" fill="#EBE9E6"/>
<path d="M86.5138 51.3182C83.2982 51.3182 80.4717 49.2092 79.0567 46.9875C77.5321 44.5898 77.0792 41.8611 76.6441 39.2204C76.5946 38.9282 76.5486 38.6324 76.4991 38.3402C76.1029 36.0129 75.5758 33.5517 74.4155 31.3054C73.5559 29.64 71.9569 27.3866 69.2118 26.1121C66.7532 24.9713 63.7958 24.9607 61.6839 26.091C61.3196 26.2881 60.8632 26.1508 60.6651 25.7846C60.4706 25.422 60.605 24.9678 60.9729 24.7706C63.4881 23.4256 66.9725 23.4221 69.8485 24.7565C72.9793 26.2107 74.7869 28.7457 75.7527 30.6224C77.005 33.0483 77.5639 35.6467 77.9778 38.0902C78.0273 38.3859 78.0768 38.6817 78.1264 38.9774C78.5367 41.4702 78.9612 44.0475 80.3232 46.1847C81.724 48.3818 84.6885 50.3007 87.6529 49.7056C89.3863 49.3571 90.8685 48.1318 91.3426 46.6565C91.806 45.213 91.2824 43.5441 90.0408 42.5019C89.7224 42.2343 89.6835 41.7625 89.9488 41.4491C90.2176 41.1322 90.6917 41.0935 91.0065 41.3611C92.708 42.7871 93.4156 45.1003 92.7717 47.1142C92.1279 49.1247 90.2353 50.7196 87.9465 51.1774C87.4654 51.2724 86.9843 51.3182 86.5138 51.3182Z" fill="#EBE9E6"/>
<path d="M87.4555 36.7311C84.0771 36.7311 80.8686 35.7277 78.4383 33.8721C77.2957 32.999 76.3193 31.9497 75.3748 30.9322C74.4197 29.9041 73.5176 28.9288 72.4563 28.126C68.7809 25.3445 63.3154 25.1614 59.4595 27.6894C59.134 27.9042 58.6954 27.8127 58.4831 27.4888C58.2673 27.1648 58.3593 26.7282 58.6847 26.517C63.0218 23.6721 69.1735 23.8798 73.3124 27.0099C74.4727 27.8866 75.4597 28.9499 76.4148 29.978C77.3594 30.9956 78.2508 31.9568 79.2979 32.756C81.9086 34.7453 85.5346 35.6467 89.2455 35.2242C92.4717 34.858 95.7899 33.5517 99.1152 31.3371C99.4406 31.1223 99.8793 31.2068 100.095 31.5307C100.311 31.8547 100.226 32.2913 99.9005 32.506C96.3877 34.8439 92.8573 36.2276 89.4082 36.622C88.7537 36.6959 88.1028 36.7311 87.4555 36.7311Z" fill="#EBE9E6"/>
<path d="M55.8329 48.4698C54.1385 48.4698 52.4404 47.5262 51.4322 46.241C49.9925 44.4066 49.6175 42.0652 49.4406 40.0161C49.2178 37.4353 49.2461 34.8192 49.522 32.2455C49.6741 30.8441 49.9253 29.3794 50.7389 28.1612C51.7188 26.6965 53.431 25.943 54.9026 26.3268C55.2811 26.4254 55.5039 26.8092 55.4049 27.1859C55.3058 27.5591 54.9202 27.7845 54.5417 27.6859C53.5406 27.4218 52.4617 28.119 51.9133 28.9393C51.3049 29.8512 51.0785 30.9815 50.9264 32.3969C50.6575 34.8826 50.6328 37.4071 50.8486 39.8964C51.0077 41.7413 51.3367 43.8327 52.5466 45.3784C53.5795 46.6917 55.6419 47.5825 57.1772 46.7269C57.5168 46.5368 57.9484 46.66 58.1394 46.998C58.3304 47.336 58.2101 47.7656 57.867 47.9557C57.2196 48.3113 56.5263 48.4698 55.8329 48.4698Z" fill="#EBE9E6"/>
<path d="M4.01191 62.5077C3.73244 62.5077 3.46713 62.3387 3.35393 62.0641C3.20889 61.7049 3.3893 61.2965 3.75013 61.1522C10.199 58.6066 14.4547 51.2655 13.443 44.4385C13.2095 42.8576 12.7213 41.2802 12.2473 39.7521C11.9006 38.636 11.5468 37.4847 11.2815 36.3157C10.7191 33.8476 10.4396 30.3302 12.2862 27.591C13.2732 26.1263 15.0101 25.0735 16.8107 24.8447C18.3 24.6545 19.6761 25.0418 20.6878 25.9326C20.9814 26.1896 21.0062 26.6333 20.748 26.9255C20.4897 27.2177 20.044 27.2424 19.7504 26.9854C19.0464 26.3657 18.0665 26.1016 16.9876 26.2389C15.5761 26.4185 14.2248 27.2389 13.4536 28.3761C11.8864 30.6999 12.1518 33.8089 12.6541 36.0059C12.9088 37.122 13.2555 38.2487 13.5951 39.3367C14.0833 40.914 14.5891 42.5477 14.8367 44.2307C15.9405 51.6774 11.2992 59.684 4.27015 62.4584C4.18525 62.4936 4.09681 62.5077 4.01191 62.5077Z" fill="#EBE9E6"/>
</g>
</svg>
