<svg width="48" height="48" viewBox="0 0 48 48" fill="none" xmlns="http://www.w3.org/2000/svg">
<g opacity="0.8" clip-path="url(#clip0_25_5959)">
<path d="M9.67417 31.8266L28.3682 42.0919L47.0625 31.8266V11.2965L28.3682 1.03125L9.67407 11.2965L9.67417 31.8266Z" fill="#FFC15A"/>
<path d="M47.0625 11.3028V31.8266L28.3682 42.0919L28.3572 42.0857V21.5618L47.0515 11.2965L47.0625 11.3028Z" fill="#FFCB7C"/>
<path d="M47.0625 11.2965V11.2969L28.3682 21.5621L9.67407 11.2969V11.2965L28.3682 1.03125L47.0625 11.2965Z" fill="#FFE6C0"/>
<path d="M17.1017 7.22167L35.796 17.4869L39.8019 15.2498L21.1077 4.98489L17.1017 7.22167Z" fill="white"/>
<path d="M35.796 17.4869V23.8982L39.802 21.6936V15.2498L35.796 17.4869Z" fill="white"/>
<path d="M24.0129 35.6173C24.0129 41.9891 18.8478 47.1541 12.4764 47.1541C6.10473 47.1541 0.939667 41.9891 0.939667 35.6173C0.939667 29.246 6.10473 24.0809 12.4764 24.0809C18.8478 24.0809 24.0129 29.246 24.0129 35.6173Z" fill="#3BB54A"/>
<path d="M47.5137 10.4747L28.8192 0.209448C28.6809 0.133583 28.5258 0.093811 28.368 0.093811C28.2103 0.093811 28.0552 0.133583 27.9169 0.209448L20.8706 4.07851C20.7202 4.11786 20.582 4.19387 20.4682 4.29976L9.22294 10.4747C9.07565 10.5555 8.9528 10.6744 8.86725 10.819C8.7817 10.9636 8.73659 11.1285 8.73666 11.2965V23.7118C6.83972 24.3051 5.10132 25.3513 3.65588 26.7971C-0.111559 30.5644 -1.07231 36.3102 1.26563 41.0948C1.49269 41.5598 2.05407 41.7529 2.51916 41.5254C2.98463 41.298 3.17729 40.7365 2.95022 40.2715C0.963848 36.2062 1.78022 31.3242 4.9816 28.1229C6.98363 26.1207 9.64529 25.018 12.4764 25.018C15.3076 25.018 17.9693 26.1207 19.9713 28.1229C21.973 30.1245 23.0757 32.7862 23.0757 35.6173C23.0757 38.4485 21.973 41.1101 19.9709 43.1122C16.7695 46.3136 11.8876 47.1299 7.82232 45.1435C7.35722 44.9161 6.79575 45.1091 6.56869 45.5742C6.34135 46.0397 6.534 46.6011 6.99938 46.8281C8.70211 47.6613 10.5728 48.0942 12.4684 48.0938C15.7068 48.0934 18.902 46.8328 21.297 44.4379C22.3953 43.3396 23.2632 42.0726 23.8773 40.6952L27.917 42.9133C28.0576 42.9906 28.2128 43.0291 28.3682 43.0291C28.5235 43.0291 28.6791 42.9907 28.8193 42.9133L47.5136 32.6484C47.6609 32.5676 47.7837 32.4487 47.8693 32.3041C47.9548 32.1595 48 31.9946 48 31.8266V25.3114C48 24.7936 47.5803 24.3739 47.0625 24.3739C46.5447 24.3739 46.125 24.7936 46.125 25.3114V31.2718L29.3086 40.5059V22.1147L34.8586 19.0671V23.8981C34.8586 24.0212 34.8828 24.1432 34.9299 24.2569C34.977 24.3707 35.046 24.4741 35.1331 24.5611C35.2201 24.6482 35.3235 24.7172 35.4373 24.7643C35.551 24.8114 35.673 24.8356 35.7961 24.8356C35.9513 24.8356 36.107 24.7972 36.248 24.7195L40.2539 22.5145C40.4009 22.4337 40.5235 22.3148 40.6089 22.1704C40.6942 22.026 40.7392 21.8612 40.7392 21.6935V15.8379L46.125 12.8808V17.8118C46.125 18.3296 46.5447 18.7493 47.0625 18.7493C47.5803 18.7493 48 18.3296 48 17.8118V11.2965C48 11.1285 47.9549 10.9636 47.8693 10.819C47.7838 10.6744 47.661 10.5555 47.5137 10.4747ZM28.3681 2.10057L45.1147 11.2965L39.832 14.1973L23.0856 5.00139L28.3681 2.10057ZM28.3681 20.4921L11.6217 11.2965L17.098 8.2892L33.8449 17.4848L28.3681 20.4921ZM35.7923 16.4154L19.0459 7.21989L21.1377 6.07107L37.8846 15.2666L35.7923 16.4154ZM21.297 26.7971C18.9408 24.4409 15.8082 23.1434 12.4764 23.1434C11.8462 23.1434 11.2237 23.1899 10.6118 23.2811V12.8808L27.434 22.118V40.5092L24.5141 38.9059C24.8017 37.8475 24.9503 36.7438 24.9503 35.6173C24.9503 32.2854 23.6528 29.153 21.297 26.7971ZM38.8645 21.1395L36.7336 22.3125V18.0377L38.8645 16.8677V21.1395Z" fill="black" fill-opacity="0.8"/>
<path d="M47.0625 20.6195C46.814 20.6203 46.5759 20.719 46.3997 20.8942C46.2245 21.0704 46.1258 21.3085 46.125 21.557C46.1258 21.8054 46.2245 22.0434 46.3997 22.2195C46.5741 22.3942 46.816 22.4942 47.0625 22.4942C47.309 22.4942 47.5509 22.3942 47.7253 22.2195C47.9005 22.0434 47.9992 21.8054 48 21.557C48 21.3102 47.8997 21.0685 47.7253 20.8942C47.5491 20.719 47.311 20.6203 47.0625 20.6195ZM9.32409 36.5548C9.44719 36.555 9.56911 36.5308 9.68285 36.4838C9.79659 36.4367 9.89992 36.3676 9.9869 36.2805C10.3532 35.9143 10.3532 35.3207 9.9869 34.9545L9.33768 34.3048H14.8784C16.2224 34.3048 17.3159 35.3983 17.3159 36.7423C17.3159 38.0863 16.2224 39.1798 14.8784 39.1798H11.5953C11.0775 39.1798 10.6578 39.5995 10.6578 40.1173C10.6578 40.6348 11.0775 41.0544 11.5953 41.0544H14.8784C17.2562 41.0544 19.1909 39.1201 19.1909 36.7423C19.1909 34.3645 17.2562 32.4302 14.8784 32.4302H9.33768L9.9869 31.7805C10.3532 31.4143 10.3532 30.8207 9.9869 30.4545C9.62109 30.0886 9.02746 30.0886 8.66128 30.4545L6.41128 32.7045C6.04537 33.0707 6.04537 33.6643 6.41128 34.0305L8.66128 36.2801C8.74821 36.3673 8.85152 36.4365 8.96527 36.4836C9.07902 36.5308 9.20096 36.555 9.32409 36.5548ZM4.31943 44.7141C4.1829 44.7142 4.04799 44.6844 3.92423 44.6268C3.80048 44.5691 3.69088 44.485 3.60318 44.3803L3.60131 44.3782C3.26803 43.982 3.31931 43.3909 3.71559 43.0576C4.11178 42.724 4.70325 42.7753 5.03653 43.1715C5.36934 43.5681 5.31918 44.1603 4.923 44.4936C4.75414 44.636 4.54033 44.7141 4.31943 44.714V44.7141Z" fill="black" fill-opacity="0.8"/>
<circle cx="12" cy="36" r="8" fill="#3BB54A"/>
<path fill-rule="evenodd" clip-rule="evenodd" d="M12.5001 29.7188C15.6926 29.7188 18.2813 32.3069 18.2813 35.5001C18.2813 38.6926 15.6926 41.2813 12.5001 41.2813C9.30694 41.2813 6.71881 38.6926 6.71881 35.5001C6.71881 32.3069 9.30694 29.7188 12.5001 29.7188Z" stroke="white" stroke-width="1.5" stroke-linecap="round" stroke-linejoin="round"/>
<path d="M12.497 33.1276V35.8895" stroke="white" stroke-width="1.5" stroke-linecap="round" stroke-linejoin="round"/>
<path d="M12.4969 37.8726H12.5031" stroke="white" stroke-width="2" stroke-linecap="round" stroke-linejoin="round"/>
</g>
<defs>
<clipPath id="clip0_25_5959">
<rect width="48" height="48" fill="white"/>
</clipPath>
</defs>
</svg>
