<svg id="Layer_2" enable-background="new 0 0 512 512" viewBox="0 0 512 512" xmlns="http://www.w3.org/2000/svg"><g style="fill:none;stroke:#474747;stroke-width:15;stroke-linecap:round;stroke-linejoin:round;stroke-miterlimit:10"><g><path d="m425.025 343.825v7.483c0 12.648-10.253 22.902-22.902 22.902h-292.532c-12.648 0-22.902-10.253-22.902-22.902v-7.483"/><path d="m86.689 254.388v59.214-166.473c0-12.648 10.253-22.902 22.902-22.902h292.532c12.648 0 22.902 10.253 22.902 22.902v167.121"/><g><path d="m263.37 201.508h113.663"/><path d="m263.37 241.386h113.663"/><path d="m263.37 278.987h42.672"/><g><path d="m175.021 236.641c-8.37 0-15.155-6.785-15.155-15.155v-13.5c0-8.37 6.785-15.155 15.155-15.155 8.37 0 15.155 6.785 15.155 15.155v13.5c0 8.37-6.785 15.155-15.155 15.155z"/><g><path d="m183.437 234.729v13.651c0 2.432 1.741 4.516 4.134 4.949l13.649 2.467c4.351.786 7.77 4.169 8.603 8.512l5.041 26.296"/><path d="m157.151 254.291-8.33 1.506c-4.351.786-7.77 4.169-8.603 8.512l-5.041 26.296"/></g></g></g></g><g><path d="m90.654 36.637h-58.714v57.059"/><path d="m479.774 93.696v-57.059h-58.714"/><path d="m421.06 471.8h58.714v-55.799"/><path d="m31.94 416.001v55.799h58.714"/></g><path d="m31.94 316.623h447.834"/></g></svg>