<svg width="24" height="24" viewBox="0 0 24 24" fill="none" xmlns="http://www.w3.org/2000/svg">
<path d="M16 2.25H8C5.94538 2.25265 3.97568 3.07001 2.52285 4.52284C1.07001 5.97568 0.252646 7.94538 0.25 10V21C0.25 21.414 0.586 21.75 1 21.75H16C18.0546 21.7474 20.0243 20.93 21.4772 19.4772C22.93 18.0243 23.7474 16.0546 23.75 14V10C23.7474 7.94538 22.93 5.97568 21.4772 4.52284C20.0243 3.07001 18.0546 2.25265 16 2.25ZM22.25 14C22.2479 15.657 21.5887 17.2454 20.4171 18.4171C19.2454 19.5887 17.657 20.2479 16 20.25H1.75V10C1.75212 8.34305 2.41128 6.75456 3.58292 5.58292C4.75456 4.41128 6.34305 3.75212 8 3.75H16C17.657 3.75212 19.2454 4.41128 20.4171 5.58292C21.5887 6.75456 22.2479 8.34305 22.25 10V14Z" fill="#45494E"/>
<path d="M12 7.25C10.484 7.25 9.25 8.484 9.25 10C9.25 10.1989 9.32902 10.3897 9.46967 10.5303C9.61032 10.671 9.80109 10.75 10 10.75C10.1989 10.75 10.3897 10.671 10.5303 10.5303C10.671 10.3897 10.75 10.1989 10.75 10C10.7681 9.68071 10.9076 9.38043 11.1401 9.16078C11.3725 8.94112 11.6802 8.81874 12 8.81874C12.3198 8.81874 12.6275 8.94112 12.8599 9.16078C13.0924 9.38043 13.2319 9.68071 13.25 10C13.25 10.25 12.782 10.706 12.44 11.038C11.882 11.582 11.25 12.196 11.25 13C11.25 13.1989 11.329 13.3897 11.4697 13.5303C11.6103 13.671 11.8011 13.75 12 13.75C12.1989 13.75 12.3897 13.671 12.5303 13.5303C12.671 13.3897 12.75 13.1989 12.75 13C12.75 12.83 13.23 12.364 13.486 12.114C14.078 11.536 14.75 10.882 14.75 10C14.75 8.484 13.516 7.25 12 7.25Z" fill="#45494E"/>
<path d="M12 16.75C12.4142 16.75 12.75 16.4142 12.75 16C12.75 15.5858 12.4142 15.25 12 15.25C11.5858 15.25 11.25 15.5858 11.25 16C11.25 16.4142 11.5858 16.75 12 16.75Z" fill="#45494E"/>
</svg>
