<svg width="24" height="24" viewBox="0 0 24 24" fill="none" xmlns="http://www.w3.org/2000/svg">
<path d="M22.0006 8.4C22.0006 4.8652 18.5682 2 14.3338 2H11.2674C7.03299 2 3.60059 4.8652 3.60059 8.4V8.8H22.0006V8.4Z" fill="#E1EFFF"/>
<path d="M12.084 14.8279C12.4358 14.0563 12.6768 13.2389 12.8 12.3999C12.9636 11.452 13.4705 10.5977 14.224 9.99985L14.8 9.59985L17.2 9.99985L12.8 14.7999L12.084 14.8279Z" fill="#DAAB94"/>
<path d="M5.60059 18.7999C5.71758 17.8301 5.9876 16.885 6.40059 15.9999C7.20059 14.3999 7.60059 13.9999 7.60059 11.9999V10.6679C7.6009 10.4908 7.67138 10.3211 7.79659 10.1959C7.92179 10.0707 8.09152 10.0002 8.26859 9.99985C8.54495 10.0006 8.81289 10.0951 9.02859 10.2679C9.24332 10.4399 9.3906 10.6821 9.44459 10.9519C9.54297 11.4284 9.59521 11.9133 9.60059 12.3999C9.58699 12.984 9.53487 13.5666 9.44459 14.1439C9.41028 14.4029 9.45565 14.6662 9.57466 14.8989C9.69367 15.1315 9.88067 15.3224 10.1108 15.4461C10.341 15.5699 10.6033 15.6206 10.863 15.5917C11.1227 15.5627 11.3674 15.4553 11.5646 15.2839L14.0966 13.0639C14.2879 12.8977 14.4361 12.6877 14.5286 12.4519C14.8006 11.7759 15.4846 10.3039 16.4006 9.99985L17.2006 9.59985L18.4006 9.99985C18.4006 9.99985 17.0166 11.0359 16.5006 13.7519C16.4295 14.1553 16.2043 14.5154 15.8726 14.7559C14.5352 15.747 13.3117 16.8833 12.2246 18.1439C12.0893 18.2996 11.9249 18.4273 11.7406 18.5199C10.4655 19.1909 9.324 20.0897 8.37259 21.1719L5.60059 18.7999Z" fill="#EABEA3"/>
<path d="M0.886793 20.6579C1.44279 20.4235 2.50639 19.8011 4.23799 18.1495C4.38908 18.0048 4.59067 17.9248 4.79986 17.9265C5.00905 17.9283 5.20931 18.0116 5.35799 18.1587L8.56839 21.3679C8.64795 21.4475 8.70983 21.5429 8.74999 21.648C8.79015 21.7531 8.80769 21.8655 8.80146 21.9779C8.79523 22.0902 8.76538 22.2 8.71384 22.3C8.66231 22.4 8.59026 22.488 8.50239 22.5583L7.41959 23.4247C7.27788 23.538 7.10185 23.5998 6.92039 23.5999H1.20039C0.98822 23.5999 0.784737 23.5156 0.634708 23.3656C0.484679 23.2156 0.400393 23.0121 0.400393 22.7999V21.3935C0.399997 21.2366 0.44595 21.0831 0.532483 20.9523C0.619017 20.8214 0.742277 20.719 0.886793 20.6579Z" fill="#CD4C60"/>
<path d="M22.8 9.9999H2.8C2.58783 9.9999 2.38434 9.91562 2.23431 9.76559C2.08429 9.61556 2 9.41208 2 9.1999C2 8.98773 2.08429 8.78425 2.23431 8.63422C2.38434 8.48419 2.58783 8.3999 2.8 8.3999H22.8C23.0122 8.3999 23.2157 8.48419 23.3657 8.63422C23.5157 8.78425 23.6 8.98773 23.6 9.1999C23.6 9.41208 23.5157 9.61556 23.3657 9.76559C23.2157 9.91562 23.0122 9.9999 22.8 9.9999Z" fill="#BFDBF0"/>
<path d="M12.8 1.9999C13.2418 1.9999 13.6 1.64173 13.6 1.1999C13.6 0.758075 13.2418 0.399902 12.8 0.399902C12.3582 0.399902 12 0.758075 12 1.1999C12 1.64173 12.3582 1.9999 12.8 1.9999Z" fill="#BFDBF0"/>
<path d="M5.60041 7.08555C5.5326 7.08559 5.46588 7.06838 5.40655 7.03555C5.34721 7.00272 5.29719 6.95534 5.2612 6.89787C5.2252 6.8404 5.20441 6.77471 5.20077 6.707C5.19713 6.63928 5.21078 6.57175 5.24041 6.51075C6.20441 4.52275 8.54241 3.22315 11.1968 3.19995C11.3026 3.20024 11.4041 3.24193 11.4795 3.31609C11.5549 3.39025 11.5983 3.49099 11.6004 3.59675C11.6013 3.70277 11.56 3.80479 11.4857 3.88039C11.4113 3.956 11.31 3.999 11.204 3.99995C8.88721 4.01995 6.78001 5.16915 5.96001 6.85955C5.92734 6.92719 5.87628 6.98425 5.81268 7.02422C5.74909 7.06419 5.67552 7.08544 5.60041 7.08555Z" fill="white"/>
</svg>
