<svg width="56" height="56" viewBox="0 0 56 56" fill="none" xmlns="http://www.w3.org/2000/svg">
<circle cx="28" cy="28" r="28" fill="#F1F1F1"/>
<path d="M16.5991 15.7463C16.3684 15.7506 16.1487 15.8457 15.9878 16.0111C15.8268 16.1764 15.7375 16.3985 15.7393 16.6292V39.3778C15.7384 39.6096 15.8294 39.8324 15.9924 39.9972C16.1555 40.1621 16.3772 40.2557 16.609 40.2574H39.3642C39.5966 40.2574 39.8195 40.1651 39.9838 40.0007C40.1482 39.8364 40.2405 39.6135 40.2405 39.3811C40.2405 39.1486 40.1482 38.9257 39.9838 38.7614C39.8195 38.5971 39.5966 38.5047 39.3642 38.5047H17.4887V16.6292C17.4896 16.5122 17.467 16.3961 17.4223 16.2879C17.3777 16.1798 17.3118 16.0816 17.2285 15.9993C17.1453 15.917 17.0464 15.8522 16.9378 15.8088C16.8291 15.7653 16.7161 15.744 16.5991 15.7463ZM39.3443 21.4342C39.1181 21.4418 38.9037 21.5366 38.7458 21.6988L29.7674 30.6772L26.0041 26.5435C25.8475 26.3732 25.63 26.2717 25.3989 26.2612C25.1678 26.2507 24.942 26.3319 24.7706 26.4872L19.5224 31.2956C19.4314 31.3715 19.3566 31.4652 19.3028 31.5708C19.249 31.6765 19.2172 31.792 19.2093 31.9103C19.2014 32.0287 19.2176 32.1474 19.2569 32.2592C19.2963 32.3711 19.3579 32.4739 19.4381 32.5612C19.5183 32.6486 19.6154 32.7188 19.7235 32.7675C19.8316 32.8163 19.9485 32.8426 20.0671 32.8448C20.1856 32.847 20.3034 32.8252 20.4133 32.7806C20.5232 32.736 20.6229 32.6695 20.7063 32.5853L25.3096 28.3722L29.0862 32.5324C29.1657 32.6201 29.2622 32.6907 29.3699 32.7401C29.4775 32.7895 29.594 32.8165 29.7124 32.8196C29.8307 32.8227 29.9485 32.8018 30.0586 32.7581C30.1686 32.7144 30.2687 32.6489 30.3527 32.5654L39.976 22.9356C40.1002 22.8122 40.1847 22.6545 40.2184 22.4827C40.2522 22.3109 40.2337 22.1329 40.1654 21.9717C40.0971 21.8105 39.982 21.6735 39.8351 21.5783C39.6882 21.483 39.5161 21.434 39.341 21.4375L39.3443 21.4342Z" fill="#45494E"/>
</svg>
