<svg width="56" height="56" viewBox="0 0 56 56" fill="none" xmlns="http://www.w3.org/2000/svg">
<circle cx="28" cy="28" r="28" fill="#F1F1F1"/>
<path d="M39.4711 14.1043C39.3748 14.0448 39.2638 14.0133 39.1505 14.0132H20.8738C19.3025 14.0132 18.0241 15.279 18.0241 16.8305L17.9167 32.5695H14.6137C14.2748 32.5695 14 32.8443 14 33.1833V36.0188C14.0021 38.101 15.6895 39.7883 17.7717 39.7907C17.8139 39.7907 17.8563 39.7864 17.8978 39.7778H33.1468C33.2377 39.7842 33.3293 39.7885 33.4216 39.7885C35.5362 39.7847 37.2484 38.07 37.2491 35.9555V26.755H41.3862C41.7252 26.755 41.9999 26.4802 41.9999 26.1412V17.0304C41.9925 15.5654 40.9196 14.3237 39.4711 14.1043ZM15.2275 36.019V33.7973H29.594V35.9557C29.5933 36.9173 29.9551 37.8438 30.6075 38.5503H17.6878C17.6587 38.5505 17.63 38.5527 17.6015 38.557C16.2663 38.4661 15.2292 37.3573 15.2275 36.019ZM36.0216 17.0304V35.9555C36.0205 36.6414 35.7479 37.299 35.2633 37.7845C34.7994 38.2604 34.1693 38.5381 33.505 38.5594C33.4718 38.5536 33.4382 38.5507 33.4046 38.5505H33.1888C31.852 38.4189 30.8304 37.2993 30.8215 35.956V33.1833C30.8215 32.8445 30.5468 32.5695 30.2078 32.5695H19.1442L19.2516 16.8348C19.2605 15.9472 19.986 15.234 20.8738 15.2407H36.6313C36.2359 15.7535 36.0215 16.3829 36.0216 17.0304ZM40.7724 25.5274H37.2491V17.0304C37.2651 16.0688 38.0491 15.298 39.0107 15.298C39.9724 15.298 40.7563 16.0688 40.7724 17.0304V25.5274Z" fill="#45494E"/>
<path d="M21.8799 20.6621H27.6927C28.0317 20.6621 28.3064 20.3874 28.3064 20.0483C28.3064 19.7093 28.0317 19.4346 27.6927 19.4346H21.8799C21.5408 19.4346 21.2661 19.7093 21.2661 20.0483C21.2661 20.3874 21.5408 20.6621 21.8799 20.6621ZM32.7231 23.8229H21.8799C21.5408 23.8229 21.2661 24.0977 21.2661 24.4366C21.2661 24.7754 21.5408 25.0504 21.8799 25.0504H32.7231C33.0621 25.0504 33.3369 24.7754 33.3369 24.4366C33.3369 24.0977 33.0621 23.8229 32.7231 23.8229ZM32.7231 28.211H21.8799C21.5408 28.211 21.2661 28.486 21.2661 28.8248C21.2661 29.1637 21.5408 29.4385 21.8799 29.4385H32.7231C33.0621 29.4385 33.3369 29.1637 33.3369 28.8248C33.3369 28.486 33.0621 28.211 32.7231 28.211Z" fill="#45494E"/>
</svg>
