<svg width="24" height="24" viewBox="0 0 24 24" fill="none" xmlns="http://www.w3.org/2000/svg">
<path d="M1.5498 6.3999H22.3998V21.8999H1.5498V6.3999Z" fill="#FFD15C"/>
<path d="M13.2998 10.7002H20.8998V21.9002H13.2998V10.7002Z" fill="#415A6B"/>
<path d="M14.0498 11.4502H20.1498V21.1502H14.0498V11.4502Z" fill="#8AD7F8"/>
<path d="M0 4.7998V7.0498C0 8.3998 1.05 9.4498 2.4 9.4498C3.75 9.4498 4.8 8.3998 4.8 7.0498V4.7998H0Z" fill="#F05540"/>
<path d="M4.7998 4.7998V7.0498C4.7998 8.3998 5.8498 9.4498 7.1998 9.4498C8.5498 9.4498 9.5998 8.3998 9.5998 7.0498V4.7998H4.7998Z" fill="#E8EAE9"/>
<path d="M9.6001 4.7998V7.0498C9.6001 8.3998 10.6501 9.4498 12.0001 9.4498C13.3501 9.4498 14.4001 8.3998 14.4001 7.0498V4.7998H9.6001Z" fill="#F05540"/>
<path d="M14.3999 4.7998V7.0498C14.3999 8.3998 15.4499 9.4498 16.7999 9.4498C18.1499 9.4498 19.1999 8.3998 19.1999 7.0498V4.7998H14.3999Z" fill="#E8EAE9"/>
<path d="M19.2002 4.7998V7.0498C19.2002 8.3998 20.2502 9.4498 21.6002 9.4498C22.9502 9.4498 24.0002 8.3998 24.0002 7.0498V4.7998H19.2002Z" fill="#F05540"/>
<path d="M5.85 0H1.74998L0 4.8H4.8L5.85 0Z" fill="#F3705A"/>
<path d="M9.94982 0H5.8498L4.7998 4.8H9.5998L9.94982 0Z" fill="#F3F3F3"/>
<path d="M14.0501 0H9.95011L9.6001 4.8H14.4001L14.0501 0Z" fill="#F3705A"/>
<path d="M18.1498 0H14.0498L14.3998 4.8H19.1998L18.1498 0Z" fill="#F3F3F3"/>
<path d="M22.2499 0H18.1499L19.1999 4.8H23.9999L22.2499 0Z" fill="#F3705A"/>
<path d="M0 21.8999H24V23.9999H0V21.8999Z" fill="#CED6E0"/>
<path d="M15.0001 16.9499C15.3591 16.9499 15.6501 16.6589 15.6501 16.2999C15.6501 15.9409 15.3591 15.6499 15.0001 15.6499C14.6411 15.6499 14.3501 15.9409 14.3501 16.2999C14.3501 16.6589 14.6411 16.9499 15.0001 16.9499Z" fill="#415A6B"/>
<path d="M3.0498 10.7002H11.4998V18.3002H3.0498V10.7002Z" fill="#415A6B"/>
<path d="M3.7998 11.4502H10.7498V17.5502H3.7998V11.4502Z" fill="#8AD7F8"/>
<path d="M7.45005 12.4002C7.35007 12.3002 7.10004 12.3002 7.00005 12.4002L4.55009 14.8502C4.4501 14.9502 4.4501 15.2002 4.55009 15.3002C4.65007 15.4002 4.9001 15.4002 5.00009 15.3002L7.4501 12.8502C7.60005 12.7002 7.60005 12.5002 7.45005 12.4002ZM8.00009 13.8502C7.9001 13.7502 7.65007 13.7502 7.55009 13.8502L6.00007 15.4002C5.90009 15.5002 5.90009 15.7502 6.00007 15.8502C6.10005 15.9502 6.35009 15.9502 6.45007 15.8502L8.00009 14.3002C8.15009 14.1502 8.15009 13.9502 8.00009 13.8502Z" fill="#55C0EB"/>
</svg>
