<svg width="44" height="69" viewBox="0 0 44 69" fill="none" xmlns="http://www.w3.org/2000/svg">
<path d="M26.3619 17.1503L21.5429 7.99416L16.7238 17.1503L9.01346 8.95801L13.7288 24.5187C13.7588 24.6176 13.8198 24.7043 13.9029 24.7659C13.9859 24.8275 14.0866 24.8608 14.19 24.8608H28.8958C28.9993 24.8608 29.0999 24.8276 29.183 24.7659C29.266 24.7043 29.327 24.6176 29.357 24.5187L34.0723 8.95801L26.3619 17.1503Z" fill="#FFE17D"/>
<path d="M16.7239 17.1503L9.01346 8.95801L13.7288 24.5187C13.7588 24.6176 13.8198 24.7043 13.9029 24.7659C13.9859 24.8276 14.0866 24.8608 14.19 24.8608H17.9414L16.7239 17.1503Z" fill="#FFD164"/>
<path d="M13.2484 22.9332L13.7288 24.5186C13.7588 24.6176 13.8198 24.7043 13.9029 24.7659C13.9859 24.8275 14.0866 24.8608 14.19 24.8608H28.8959C28.9993 24.8608 29.0999 24.8275 29.183 24.7659C29.266 24.7043 29.327 24.6176 29.357 24.5186L29.8375 22.9332H13.2484Z" fill="#FFD164"/>
<path d="M13.2484 22.9332L13.7288 24.5186C13.7588 24.6176 13.8198 24.7043 13.9029 24.7659C13.9859 24.8275 14.0866 24.8608 14.19 24.8608H17.9414L17.637 22.9332H13.2484Z" fill="#FFC350"/>
<path d="M21.543 6.54868C22.2084 6.54868 22.7478 6.0093 22.7478 5.34394C22.7478 4.67857 22.2084 4.13919 21.543 4.13919C20.8777 4.13919 20.3383 4.67857 20.3383 5.34394C20.3383 6.0093 20.8777 6.54868 21.543 6.54868Z" fill="#FFE17D"/>
<path d="M22.1453 5.94613C21.4799 5.94613 20.9406 5.40675 20.9406 4.74139C20.9406 4.56473 20.9795 4.39747 21.0478 4.24629C20.6297 4.43525 20.3382 4.85507 20.3382 5.34376C20.3382 6.00912 20.8776 6.54851 21.5429 6.54851C22.0316 6.54851 22.4514 6.25698 22.6404 5.83886C22.4849 5.90948 22.3161 5.94605 22.1453 5.94613Z" fill="#FFD164"/>
<path d="M7.96402 7.99415C8.49644 7.99415 8.92805 7.56254 8.92805 7.03012C8.92805 6.49771 8.49644 6.0661 7.96402 6.0661C7.43161 6.0661 7 6.49771 7 7.03012C7 7.56254 7.43161 7.99415 7.96402 7.99415Z" fill="#FFE17D"/>
<path d="M8.4457 7.5123C7.91339 7.5123 7.4819 7.08082 7.4819 6.54851C7.4819 6.40719 7.51305 6.27335 7.56771 6.15242C7.23319 6.30359 7 6.63942 7 7.03041C7 7.56272 7.43149 7.9942 7.9638 7.9942C8.35473 7.9942 8.69061 7.76101 8.84178 7.42649C8.71738 7.48299 8.58233 7.51225 8.4457 7.5123Z" fill="#FFD164"/>
<path d="M35.036 7.99415C35.5684 7.99415 36 7.56254 36 7.03012C36 6.49771 35.5684 6.0661 35.036 6.0661C34.5036 6.0661 34.072 6.49771 34.072 7.03012C34.072 7.56254 34.5036 7.99415 35.036 7.99415Z" fill="#FFE17D"/>
<path d="M35.5181 7.5123C34.9858 7.5123 34.5543 7.08082 34.5543 6.54851C34.5543 6.40719 34.5855 6.27335 34.6401 6.15242C34.3056 6.30359 34.0724 6.63947 34.0724 7.03041C34.0724 7.56272 34.5039 7.9942 35.0362 7.9942C35.4271 7.9942 35.763 7.76101 35.9142 7.42649C35.7898 7.48299 35.6547 7.51225 35.5181 7.5123Z" fill="#FFD164"/>
<rect y="25" width="44" height="44" rx="6" fill="#3BB54A"/>
<path d="M24.6145 39.4545V54H21.5392V42.3736H21.454L18.123 44.4616V41.7344L21.7239 39.4545H24.6145Z" fill="white"/>
</svg>
