<svg className="svg-icon" style="width: 1em; height: 1em;vertical-align: middle;fill: #2e2e2e;overflow: hidden;" viewBox="0 0 1024 1024" version="1.1" xmlns="http://www.w3.org/2000/svg"><path d="M146.752 429.184l-128-128A63.829333 63.829333 0 0 1 0 255.936c0-16.384 6.272-32.768 18.752-45.248l128-128a64.213333 64.213333 0 0 1 69.76-13.888A64.042667 64.042667 0 0 1 256 127.936V192h64v128h-64v63.936c0 25.856-15.616 49.28-39.488 59.136a64.106667 64.106667 0 0 1-69.76-13.888z m730.496 165.504l128 128c12.48 12.48 18.752 28.864 18.752 45.248s-6.272 32.768-18.752 45.248l-128 128a64.106667 64.106667 0 0 1-69.76 13.888A64.042667 64.042667 0 0 1 768 895.936V832h-64v-128h64v-64.064c0-25.856 15.616-49.28 39.488-59.136a64.213333 64.213333 0 0 1 69.76 13.888zM448 704h64v128h-64zM384 192h64v128h-64z m-64 384H64c-35.328 0-64 28.672-64 64v256a64 64 0 0 0 64 64h256a64 64 0 0 0 64-64V640c0-35.328-28.672-64-64-64z m-64 256H128v-128h128v128zM512 192h64v128h-64z m448-128H704a64 64 0 0 0-64 64v256a64 64 0 0 0 64 64h256a64 64 0 0 0 64-64V128a64 64 0 0 0-64-64z m-64 256h-128V192h128v128zM576 704h64v128h-64z" fill="" /></svg>
