<svg width="115" height="139" viewBox="0 0 115 139" fill="none" xmlns="http://www.w3.org/2000/svg">
<path d="M114.078 113.803C100.34 129.259 80.3079 138.999 58.0003 138.999C35.0799 138.999 14.5627 128.719 0.804688 112.516C1.51843 111.117 2.32356 109.786 3.23219 108.562C8.69808 101.197 26.5156 98.2554 29.2626 97.3813C33.1061 96.1583 38.347 96.5072 39.9196 92.8388C41.4921 89.1704 41.2295 80.0323 41.2295 80.0323C41.2295 80.0323 35.6735 74.1978 33.5137 65.0086C32.892 62.3626 28.6217 64.1939 26.6427 56.5076C24.6855 48.9114 29.2121 51.0961 29.3194 51.1485C29.2223 51.0616 24.5436 46.8744 24.313 39.0373C24.0797 31.1184 23.4976 22.3835 28.2146 14.8717C32.931 7.35984 42.8883 2.81797 45.8589 2.11892C48.8283 1.42052 53.1964 0.19751 57.7383 0.19751C62.2809 0.19751 66.4733 1.42052 70.1423 3.51701C73.8107 5.61351 79.051 7.01096 81.4977 7.70936C83.9431 8.40841 88.1355 11.3777 91.2806 17.8423C94.4257 24.3056 87.0882 48.4137 87.0882 48.4137C87.0882 48.4137 90.5822 49.6361 88.8352 54.877C87.0882 60.1179 86.7387 62.2144 82.7201 63.9614C82.7201 63.9614 80.1003 73.0457 74.8587 78.8106C74.8587 78.8106 72.2388 88.2976 76.0817 92.6643C79.9252 97.0318 88.6601 98.4292 92.3279 99.4778C95.9963 100.526 109.449 103.67 113.467 112.406C113.673 112.852 113.876 113.319 114.078 113.803Z" fill="#9C9C9B"/>
</svg>
