<svg width="48" height="48" viewBox="0 0 48 48" fill="none" xmlns="http://www.w3.org/2000/svg">
<g opacity="0.8">
<path d="M35.9975 23.4891C34.2405 23.491 32.556 24.1899 31.3136 25.4323C30.0712 26.6747 29.3723 28.3592 29.3704 30.1162V37.3255H33.4803V31.9125C33.4803 31.2446 33.7456 30.604 34.2179 30.1317C34.6902 29.6594 35.3308 29.394 35.9988 29.394C36.6667 29.394 37.3073 29.6594 37.7796 30.1317C38.2519 30.604 38.5173 31.2446 38.5173 31.9125V37.3251H42.6246V30.1157C42.6225 28.3588 41.9236 26.6744 40.6812 25.4321C39.4388 24.1898 37.7544 23.491 35.9975 23.4891Z" fill="#FD1934"/>
<path d="M31.6464 22.1526L25.1886 10.9696C24.8643 10.4083 24.3981 9.94217 23.8366 9.61811C23.2752 9.29404 22.6384 9.12344 21.9901 9.12344C21.3419 9.12344 20.705 9.29404 20.1436 9.61811C19.5821 9.94217 19.1159 10.4083 18.7916 10.9696L12.3339 22.1521L5.87635 33.3375C5.55247 33.8992 5.38204 34.5361 5.38216 35.1845C5.38227 35.8329 5.55294 36.4698 5.87703 37.0313C6.20111 37.5928 6.66721 38.0593 7.22853 38.3837C7.78986 38.7082 8.42666 38.8793 9.07501 38.8798H25.2728C25.3763 38.4381 25.626 38.0442 25.9813 37.762C26.3366 37.4799 26.7768 37.3259 27.2305 37.3252H27.8704V30.1158C27.8714 28.6531 28.2668 27.2177 29.015 25.9609C29.7631 24.704 30.8364 23.6721 32.1217 22.9739L31.6464 22.1526Z" fill="#F38F1F"/>
<path d="M21.99 16.8682C21.5958 16.8692 21.2059 16.9497 20.8435 17.1047C20.4811 17.2598 20.1536 17.4862 19.8806 17.7705C19.6226 18.0349 19.4214 18.3493 19.2892 18.6943C19.157 19.0393 19.0966 19.4076 19.1119 19.7768L19.4387 27.2223C19.4994 28.6352 20.6199 29.7418 21.9897 29.7418C23.3519 29.7418 24.4724 28.6369 24.5408 27.223L24.8677 19.7763C24.883 19.4072 24.8227 19.0389 24.6906 18.6939C24.5585 18.3489 24.3573 18.0345 24.0994 17.77C23.8263 17.4858 23.4989 17.2594 23.1364 17.1045C22.774 16.9495 22.3841 16.8692 21.99 16.8682ZM23.0426 27.154C23.0131 27.7642 22.5508 28.242 21.99 28.242C21.426 28.242 20.9637 27.7659 20.9376 27.1574L20.6108 19.7118C20.605 19.545 20.6334 19.3789 20.6941 19.2234C20.7548 19.068 20.8466 18.9266 20.9639 18.8079C21.0963 18.669 21.2555 18.5584 21.4319 18.4828C21.6082 18.4072 21.7981 18.3682 21.99 18.3682C22.1819 18.3681 22.3718 18.407 22.5482 18.4825C22.7246 18.5579 22.8839 18.6685 23.0164 18.8073C23.1336 18.926 23.2254 19.0674 23.2861 19.2228C23.3468 19.3783 23.3752 19.5445 23.3694 19.7112L23.0426 27.154ZM21.99 30.259C21.4844 30.2588 20.9901 30.4085 20.5696 30.6892C20.1491 30.9699 19.8214 31.3691 19.6278 31.8361C19.4342 32.3032 19.3834 32.8172 19.482 33.313C19.5806 33.8089 19.824 34.2644 20.1815 34.6219C20.539 34.9794 20.9945 35.2229 21.4904 35.3214C21.9863 35.42 22.5003 35.3693 22.9673 35.1757C23.4344 34.9821 23.8335 34.6543 24.1142 34.2338C24.395 33.8133 24.5447 33.319 24.5444 32.8134C24.5436 32.1362 24.2743 31.4869 23.7954 31.0081C23.3165 30.5292 22.6672 30.2598 21.99 30.259ZM21.99 33.8705C21.7812 33.8707 21.577 33.8091 21.4033 33.6933C21.2295 33.5775 21.094 33.4128 21.0138 33.22C20.9337 33.0272 20.9125 32.8149 20.953 32.6101C20.9935 32.4052 21.0938 32.217 21.2413 32.0692C21.3887 31.9214 21.5767 31.8206 21.7814 31.7796C21.9862 31.7386 22.1985 31.7592 22.3915 31.8389C22.5845 31.9186 22.7495 32.0537 22.8658 32.2271C22.982 32.4006 23.0442 32.6046 23.0444 32.8134C23.0444 33.0933 22.9334 33.3618 22.7358 33.56C22.5381 33.7581 22.2699 33.8698 21.99 33.8705ZM44.7643 37.3252H44.1246V30.1158C44.122 28.0218 43.3122 26.0094 41.8636 24.4972C40.4151 22.9851 38.4393 22.0896 36.3473 21.997L28.7813 8.89688C28.0934 7.7043 27.1037 6.71387 25.9115 6.02524C24.7194 5.33661 23.367 4.97406 21.9902 4.97406C20.6135 4.97406 19.2611 5.33661 18.0689 6.02524C16.8768 6.71387 15.8871 7.7043 15.1992 8.89688L2.28394 31.2639C1.59556 32.4559 1.23313 33.8082 1.23306 35.1848C1.233 36.5613 1.59531 37.9137 2.28358 39.1058C2.97185 40.2979 3.96182 41.2879 5.15397 41.9761C6.34612 42.6644 7.69845 43.0267 9.075 43.0266H46.0294C46.2283 43.0266 46.4191 42.9476 46.5597 42.8069C46.7004 42.6662 46.7794 42.4755 46.7794 42.2766V39.3375C46.7785 38.8036 46.5658 38.2918 46.1881 37.9146C45.8103 37.5373 45.2982 37.3253 44.7643 37.3252ZM42.6246 30.1158V37.3252H38.5173V31.9125C38.5173 31.2446 38.2519 30.604 37.7796 30.1317C37.3073 29.6594 36.6667 29.394 35.9988 29.394C35.3308 29.394 34.6902 29.6594 34.2179 30.1317C33.7456 30.604 33.4803 31.2446 33.4803 31.9125V37.3251H29.3704V30.1157C29.3704 28.3581 30.0686 26.6725 31.3114 25.4296C32.5542 24.1868 34.2399 23.4886 35.9975 23.4886C37.7551 23.4886 39.4407 24.1868 40.6835 25.4296C41.9264 26.6725 42.6246 28.3582 42.6246 30.1158ZM37.0173 37.3252H34.9803V31.9125C34.9803 31.6424 35.0876 31.3833 35.2786 31.1923C35.4696 31.0013 35.7287 30.894 35.9988 30.894C36.2689 30.894 36.528 31.0013 36.719 31.1923C36.91 31.3833 37.0173 31.6424 37.0173 31.9125V37.3252ZM25.2728 38.8798H9.075C8.42665 38.8793 7.78985 38.7082 7.22853 38.3837C6.6672 38.0593 6.2011 37.5928 5.87702 37.0313C5.55294 36.4698 5.38227 35.8328 5.38215 35.1845C5.38203 34.5361 5.55247 33.8992 5.87635 33.3375L12.3339 22.1524L18.7916 10.9697C19.1159 10.4084 19.5821 9.94226 20.1436 9.6182C20.705 9.29414 21.3418 9.12354 21.9901 9.12354C22.6383 9.12354 23.2752 9.29414 23.8366 9.6182C24.3981 9.94226 24.8643 10.4084 25.1886 10.9697L31.6463 22.1527L32.1217 22.9744C30.8364 23.6726 29.7631 24.7045 29.015 25.9613C28.2668 27.2182 27.8714 28.6536 27.8704 30.1163V37.3256H27.2305C26.7769 37.3264 26.3367 37.4802 25.9814 37.7623C25.6261 38.0444 25.3764 38.4381 25.2728 38.8798ZM3.58294 38.3565C3.01983 37.3945 2.72302 36.2999 2.72302 35.1852C2.72302 34.0705 3.01983 32.9759 3.58294 32.0139L16.4984 9.64576C17.6609 7.62966 19.6627 6.47345 21.99 6.47345C24.3173 6.47345 26.319 7.62966 27.482 9.64613L34.6732 22.0975C34.279 22.1623 33.8903 22.2563 33.5101 22.3788L32.9451 21.4019L26.4877 10.2197C26.0319 9.43022 25.3763 8.77463 24.5868 8.31882C23.7973 7.86301 22.9018 7.62305 21.9901 7.62305C21.0785 7.62305 20.183 7.86301 19.3935 8.31882C18.604 8.77463 17.9484 9.43022 17.4926 10.2197L11.0349 21.4022L4.57725 32.5875C4.12172 33.3772 3.88197 34.2728 3.88209 35.1845C3.88222 36.0962 4.1222 36.9918 4.57794 37.7813C5.03368 38.5709 5.68915 39.2267 6.47851 39.6828C7.26787 40.1389 8.16334 40.3793 9.075 40.3798H25.2188V41.5266H9.075C6.74785 41.5266 4.74619 40.3712 3.58294 38.3565ZM45.2794 41.5266H26.7182V39.3375C26.72 39.2022 26.7745 39.0729 26.8702 38.9772C26.9659 38.8815 27.0952 38.8269 27.2305 38.8252H44.7643C44.9 38.8266 45.0298 38.8809 45.126 38.9766C45.2222 39.0723 45.2772 39.2018 45.2794 39.3375V41.5266ZM35.3143 25.2599C35.3431 25.3541 35.353 25.4531 35.3435 25.5511C35.334 25.6491 35.3053 25.7443 35.259 25.8313C35.2128 25.9182 35.1498 25.9952 35.0738 26.0578C34.9978 26.1204 34.9101 26.1674 34.8159 26.1962C34.0478 26.4359 33.3658 26.8934 32.8526 27.5132C32.3395 28.133 32.0173 28.8884 31.9253 29.6878C31.9057 29.8718 31.8188 30.0421 31.6813 30.1659C31.5439 30.2897 31.3654 30.3584 31.1804 30.3586C31.1536 30.3586 31.1269 30.3572 31.1003 30.3544C30.9025 30.3334 30.7211 30.2346 30.5961 30.0799C30.4711 29.9252 30.4127 29.7272 30.4337 29.5294C30.5499 28.435 30.986 27.3991 31.6876 26.5512C32.3891 25.7032 33.3249 25.0807 34.3781 24.7615C34.5684 24.7035 34.7739 24.7234 34.9494 24.8169C35.125 24.9103 35.2562 25.0697 35.3143 25.2599ZM28.0426 22.6958L26.1611 20.8169C26.0907 20.7475 26.0348 20.6648 25.9965 20.5736C25.9582 20.4825 25.9383 20.3847 25.9379 20.2858C25.9375 20.1869 25.9567 20.089 25.9944 19.9975C26.032 19.9061 26.0873 19.823 26.1572 19.7531C26.2271 19.6831 26.3101 19.6277 26.4015 19.5899C26.4928 19.5521 26.5908 19.5328 26.6897 19.533C26.7885 19.5333 26.8864 19.5531 26.9776 19.5912C27.0688 19.6294 27.1515 19.6853 27.2211 19.7556L29.1024 21.6343C29.1728 21.7038 29.2288 21.7864 29.2671 21.8776C29.3054 21.9687 29.3253 22.0665 29.3257 22.1654C29.3261 22.2643 29.3069 22.3622 29.2693 22.4537C29.2316 22.5451 29.1763 22.6282 29.1064 22.6982C29.0366 22.7681 28.9536 22.8236 28.8622 22.8614C28.7708 22.8991 28.6729 22.9185 28.574 22.9182C28.4752 22.918 28.3773 22.8982 28.2861 22.8601C28.1949 22.8219 28.1121 22.766 28.0426 22.6958ZM35.9975 15.6803C36.1964 15.6803 36.3871 15.7593 36.5278 15.8999C36.6685 16.0406 36.7475 16.2313 36.7475 16.4303V19.4359C36.7475 19.6348 36.6685 19.8256 36.5278 19.9662C36.3871 20.1069 36.1964 20.1859 35.9975 20.1859C35.7986 20.1859 35.6078 20.1069 35.4671 19.9662C35.3265 19.8256 35.2475 19.6348 35.2475 19.4359V16.4303C35.2475 16.2313 35.3265 16.0406 35.4671 15.8999C35.6078 15.7593 35.7986 15.6803 35.9975 15.6803ZM45.8344 19.7559C45.975 19.8966 46.054 20.0873 46.054 20.2862C46.054 20.4851 45.975 20.6759 45.8344 20.8165L43.9555 22.6954C43.8146 22.8346 43.6243 22.9124 43.4262 22.9118C43.228 22.9112 43.0382 22.8322 42.8981 22.6921C42.758 22.552 42.6791 22.3622 42.6785 22.1641C42.6779 21.9659 42.7557 21.7756 42.8949 21.6347L44.7737 19.7559C44.8433 19.6863 44.926 19.6311 45.017 19.5934C45.108 19.5557 45.2055 19.5363 45.304 19.5363C45.4025 19.5363 45.5001 19.5557 45.5911 19.5934C45.6821 19.6311 45.7647 19.6863 45.8344 19.7559Z" fill="black" fill-opacity="0.8"/>
<path d="M44.7643 38.8252H27.2305C27.0952 38.8269 26.9659 38.8815 26.8702 38.9772C26.7745 39.0729 26.72 39.2022 26.7182 39.3375V41.5266H45.2794V39.3375C45.2772 39.2018 45.2222 39.0723 45.126 38.9766C45.0298 38.8809 44.9 38.8266 44.7643 38.8252Z" fill="#837683"/>
<path d="M4.57726 37.7803C4.10943 36.995 3.86246 36.0979 3.86246 35.1839C3.86246 34.2698 4.10943 33.3727 4.57726 32.5874L11.0349 21.402L17.4926 10.2195C17.9484 9.43003 18.604 8.77444 19.3935 8.31864C20.183 7.86283 21.0785 7.62287 21.9901 7.62287C22.9018 7.62287 23.7973 7.86283 24.5868 8.31864C25.3763 8.77444 26.0319 9.43003 26.4877 10.2195L32.9451 21.4018L33.5101 22.3787C33.8903 22.2563 34.279 22.1622 34.6732 22.0974L27.482 9.64614C26.319 7.62967 24.3174 6.47345 21.99 6.47345C19.6627 6.47345 17.661 7.62967 16.4984 9.64576L3.58295 32.014C3.01983 32.9759 2.72302 34.0705 2.72302 35.1852C2.72302 36.2999 3.01983 37.3945 3.58295 38.3565C4.7462 40.3712 6.74785 41.5266 9.07482 41.5266H25.2186V40.3798H9.07501C8.16067 40.3919 7.26006 40.1567 6.46836 39.6991C5.67666 39.2415 5.02327 38.5786 4.57726 37.7803Z" fill="#F8A936"/>
<path d="M21.99 31.759C21.7811 31.7588 21.5768 31.8205 21.403 31.9364C21.2292 32.0523 21.0937 32.2172 21.0136 32.4101C20.9335 32.6031 20.9125 32.8155 20.9532 33.0204C20.9939 33.2253 21.0945 33.4135 21.2422 33.5613C21.3899 33.709 21.5781 33.8096 21.7831 33.8503C21.988 33.8909 22.2003 33.8699 22.3933 33.7899C22.5863 33.7098 22.7511 33.5743 22.867 33.4005C22.9829 33.2267 23.0447 33.0224 23.0444 32.8134C23.0441 32.5339 22.9329 32.2659 22.7352 32.0682C22.5376 31.8706 22.2696 31.7594 21.99 31.759ZM21.99 18.3682C21.7982 18.3688 21.6085 18.4081 21.4322 18.4837C21.2559 18.5592 21.0967 18.6695 20.9639 18.8079C20.8466 18.9266 20.7548 19.068 20.6941 19.2234C20.6334 19.3789 20.605 19.545 20.6108 19.7118L20.9376 27.1574C20.9637 27.7658 21.426 28.242 21.99 28.242C22.5508 28.242 23.0131 27.7639 23.0426 27.154L23.3694 19.7112C23.3752 19.5445 23.3468 19.3783 23.2861 19.2228C23.2254 19.0674 23.1336 18.926 23.0164 18.8073C22.8836 18.6689 22.7242 18.5587 22.5479 18.4833C22.3715 18.4078 22.1818 18.3687 21.99 18.3682ZM34.9803 31.9125V37.3251H37.0173V31.9125C37.0173 31.6424 36.91 31.3833 36.719 31.1923C36.528 31.0013 36.2689 30.894 35.9988 30.894C35.7287 30.894 35.4696 31.0013 35.2786 31.1923C35.0876 31.3833 34.9803 31.6424 34.9803 31.9125Z" fill="#F9B857"/>
</g>
</svg>
