<svg width="20" height="20" viewBox="0 0 20 20" fill="none" xmlns="http://www.w3.org/2000/svg">
<path d="M10.85 0.25953L0.850018 2.25953C0.679769 2.29428 0.526867 2.38706 0.417433 2.52203C0.308 2.657 0.248825 2.82578 0.250018 2.99953V16.9995C0.248825 17.1733 0.308 17.3421 0.417433 17.477C0.526867 17.612 0.679769 17.7048 0.850018 17.7395L10.85 19.7395H11C11.1745 19.7382 11.3435 19.6783 11.48 19.5695C11.5645 19.4983 11.6324 19.4095 11.679 19.3093C11.7257 19.2092 11.7499 19.1 11.75 18.9895V0.99953C11.7499 0.889038 11.7257 0.779905 11.679 0.679736C11.6324 0.579566 11.5645 0.490768 11.48 0.41953C11.3921 0.350258 11.2905 0.300224 11.182 0.272662C11.0735 0.245101 10.9604 0.240627 10.85 0.25953ZM8.62002 13.5795C8.71889 13.7407 8.75322 13.9333 8.71613 14.1188C8.67905 14.3042 8.57328 14.4688 8.42002 14.5795C8.29642 14.6644 8.14995 14.7097 8.00002 14.7095C7.87759 14.7093 7.75708 14.6791 7.649 14.6216C7.54093 14.5641 7.44858 14.481 7.38002 14.3795L5.67002 11.8495L4.67002 13.4195C4.60146 13.521 4.50911 13.6041 4.40103 13.6616C4.29296 13.7191 4.17245 13.7493 4.05002 13.7495C3.90008 13.7497 3.75361 13.7044 3.63002 13.6195C3.47675 13.5088 3.37099 13.3442 3.3339 13.1588C3.29682 12.9733 3.33115 12.7807 3.43002 12.6195L4.77002 10.4995L3.38002 8.41953C3.28135 8.25508 3.24943 8.05909 3.29081 7.87183C3.33219 7.68458 3.44373 7.52028 3.60251 7.41273C3.76128 7.30517 3.95522 7.26252 4.14447 7.29354C4.33372 7.32457 4.5039 7.42691 4.62002 7.57953L5.62002 9.14953L7.38002 6.57953C7.49614 6.42691 7.66632 6.32457 7.85556 6.29354C8.04481 6.26252 8.23876 6.30517 8.39753 6.41273C8.5563 6.52028 8.66784 6.68458 8.70923 6.87183C8.75061 7.05909 8.71868 7.25508 8.62002 7.41953L6.62002 10.4995L8.62002 13.5795ZM18.5 1.74953H13.25V4.74953H14C14.1989 4.74953 14.3897 4.82855 14.5303 4.9692C14.671 5.10985 14.75 5.30062 14.75 5.49953C14.75 5.69844 14.671 5.88921 14.5303 6.02986C14.3897 6.17051 14.1989 6.24953 14 6.24953H13.25V7.74953H14C14.1989 7.74953 14.3897 7.82855 14.5303 7.9692C14.671 8.10985 14.75 8.30062 14.75 8.49953C14.75 8.69844 14.671 8.88921 14.5303 9.02986C14.3897 9.17051 14.1989 9.24953 14 9.24953H13.25V10.7495H14C14.1989 10.7495 14.3897 10.8285 14.5303 10.9692C14.671 11.1099 14.75 11.3006 14.75 11.4995C14.75 11.6984 14.671 11.8892 14.5303 12.0299C14.3897 12.1705 14.1989 12.2495 14 12.2495H13.25V13.7495H14C14.1989 13.7495 14.3897 13.8285 14.5303 13.9692C14.671 14.1099 14.75 14.3006 14.75 14.4995C14.75 14.6984 14.671 14.8892 14.5303 15.0299C14.3897 15.1705 14.1989 15.2495 14 15.2495H13.25V18.2495H18.5C18.8315 18.2495 19.1495 18.1178 19.3839 17.8834C19.6183 17.649 19.75 17.3311 19.75 16.9995V2.99953C19.75 2.66801 19.6183 2.35007 19.3839 2.11565C19.1495 1.88123 18.8315 1.74953 18.5 1.74953ZM17 15.2495H16C15.8011 15.2495 15.6103 15.1705 15.4697 15.0299C15.329 14.8892 15.25 14.6984 15.25 14.4995C15.25 14.3006 15.329 14.1099 15.4697 13.9692C15.6103 13.8285 15.8011 13.7495 16 13.7495H17C17.1989 13.7495 17.3897 13.8285 17.5303 13.9692C17.671 14.1099 17.75 14.3006 17.75 14.4995C17.75 14.6984 17.671 14.8892 17.5303 15.0299C17.3897 15.1705 17.1989 15.2495 17 15.2495ZM17 12.2495H16C15.8011 12.2495 15.6103 12.1705 15.4697 12.0299C15.329 11.8892 15.25 11.6984 15.25 11.4995C15.25 11.3006 15.329 11.1099 15.4697 10.9692C15.6103 10.8285 15.8011 10.7495 16 10.7495H17C17.1989 10.7495 17.3897 10.8285 17.5303 10.9692C17.671 11.1099 17.75 11.3006 17.75 11.4995C17.75 11.6984 17.671 11.8892 17.5303 12.0299C17.3897 12.1705 17.1989 12.2495 17 12.2495ZM17 9.24953H16C15.8011 9.24953 15.6103 9.17051 15.4697 9.02986C15.329 8.88921 15.25 8.69844 15.25 8.49953C15.25 8.30062 15.329 8.10985 15.4697 7.9692C15.6103 7.82855 15.8011 7.74953 16 7.74953H17C17.1989 7.74953 17.3897 7.82855 17.5303 7.9692C17.671 8.10985 17.75 8.30062 17.75 8.49953C17.75 8.69844 17.671 8.88921 17.5303 9.02986C17.3897 9.17051 17.1989 9.24953 17 9.24953ZM17 6.24953H16C15.8011 6.24953 15.6103 6.17051 15.4697 6.02986C15.329 5.88921 15.25 5.69844 15.25 5.49953C15.25 5.30062 15.329 5.10985 15.4697 4.9692C15.6103 4.82855 15.8011 4.74953 16 4.74953H17C17.1989 4.74953 17.3897 4.82855 17.5303 4.9692C17.671 5.10985 17.75 5.30062 17.75 5.49953C17.75 5.69844 17.671 5.88921 17.5303 6.02986C17.3897 6.17051 17.1989 6.24953 17 6.24953Z" fill="#163422"/>
</svg>
