<svg width="24" height="24" viewBox="0 0 24 24" fill="none" xmlns="http://www.w3.org/2000/svg">
<path d="M13.0248 2.09737C12.7349 1.82497 12.2652 1.82497 11.9755 2.09737L9.56639 4.36201C9.49578 4.42702 9.43988 4.50637 9.40242 4.59474C9.36496 4.68311 9.34681 4.77846 9.34919 4.87441C9.34559 5.05753 9.41783 5.24161 9.56639 5.38105L11.9755 7.64569C12.2652 7.91809 12.7351 7.91809 13.0248 7.64569C13.0933 7.58308 13.148 7.50689 13.1854 7.42198C13.2228 7.33706 13.2422 7.24528 13.2422 7.15249C13.2422 7.05969 13.2228 6.96791 13.1854 6.88299C13.148 6.79808 13.0933 6.72189 13.0248 6.65929L11.6988 5.41297C13.2195 5.35284 14.7235 5.74888 16.0174 6.55017C17.3114 7.35147 18.3361 8.52142 18.9599 9.90964C19.5837 11.2979 19.7781 12.8409 19.5182 14.3405C19.2582 15.8401 18.5557 17.2276 17.501 18.3248C16.4462 19.422 15.0875 20.1787 13.5993 20.4977C12.1112 20.8167 10.5617 20.6833 9.14991 20.1148C7.73815 19.5462 6.52867 18.5685 5.67692 17.3072C4.82518 16.0459 4.37009 14.5587 4.37015 13.0368C4.37015 12.8459 4.29429 12.6627 4.15926 12.5277C4.02424 12.3927 3.8411 12.3168 3.65015 12.3168C3.45919 12.3168 3.27605 12.3927 3.14103 12.5277C3.006 12.6627 2.93015 12.8459 2.93015 13.0368C2.93013 14.8271 3.45994 16.5774 4.45284 18.0671C5.44574 19.5569 6.85732 20.7195 8.50975 21.4084C10.1622 22.0974 11.9815 22.282 13.7387 21.9388C15.4958 21.5957 17.112 20.7402 18.3839 19.4802C19.6557 18.2201 20.5261 16.6119 20.8856 14.858C21.2451 13.1042 21.0774 11.2832 20.4039 9.6244C19.7303 7.96564 18.5809 6.54331 17.1004 5.53661C15.62 4.5299 13.8747 3.98383 12.0845 3.96721L13.0245 3.08353C13.093 3.02092 13.1477 2.94473 13.1852 2.85982C13.2226 2.7749 13.2419 2.68312 13.2419 2.59033C13.2419 2.49753 13.2226 2.40575 13.1852 2.32083C13.1477 2.23592 13.093 2.15973 13.0245 2.09713L13.0248 2.09737Z" fill="#323232"/>
</svg>
