<svg width="24" height="24" viewBox="0 0 24 24" fill="none" xmlns="http://www.w3.org/2000/svg">
<path d="M12 0C5.36761 0 0 5.367 0 12C0 18.6323 5.367 24 12 24C18.6324 24 24 18.633 24 12C24 5.36761 18.633 0 12 0ZM12 22.3256C6.30647 22.3256 1.67442 17.6936 1.67442 12C1.67442 6.30642 6.30647 1.67442 12 1.67442C17.6936 1.67442 22.3256 6.30642 22.3256 12C22.3256 17.6936 17.6936 22.3256 12 22.3256Z" fill="#323232"/>
<path d="M11.6449 15.1839C10.9815 15.1839 10.4444 15.7368 10.4444 16.4001C10.4444 17.0478 10.9657 17.6165 11.6449 17.6165C12.3241 17.6165 12.8611 17.0478 12.8611 16.4001C12.8611 15.7368 12.3083 15.1839 11.6449 15.1839ZM11.8502 5.9751C9.71779 5.9751 8.73848 7.2388 8.73848 8.09174C8.73848 8.70777 9.25973 8.99211 9.6862 8.99211C10.5392 8.99211 10.1917 7.7758 11.8028 7.7758C12.5926 7.7758 13.2245 8.12333 13.2245 8.84994C13.2245 9.70288 12.3399 10.1925 11.8186 10.6348C11.3605 11.0296 10.7603 11.6773 10.7603 13.0357C10.7603 13.8571 10.9815 14.094 11.6291 14.094C12.403 14.094 12.561 13.7466 12.561 13.4464C12.561 12.625 12.5768 12.1512 13.4456 11.4719C13.872 11.1403 15.2146 10.0661 15.2146 8.58135C15.2146 7.09658 13.872 5.9751 11.8502 5.9751Z" fill="#323232"/>
</svg>
