<svg width="24" height="24" viewBox="0 0 24 24" fill="none" xmlns="http://www.w3.org/2000/svg">
<path opacity="0.4" d="M22.0009 9.21035V14.7904C22.0009 18.8904 20.7509 20.1404 16.6509 20.1404H9.91094V17.1204C9.91094 16.7404 9.59094 16.4204 9.21094 16.4204V7.58035C9.59094 7.58035 9.91094 7.26035 9.91094 6.88035V3.86035H16.6509C20.7509 3.86035 22.0009 5.11035 22.0009 9.21035Z" fill="#505050"/>
<path d="M18.4712 11.9001C18.6412 11.7401 18.7012 11.4901 18.6312 11.2701C18.5612 11.0401 18.3712 10.8801 18.1312 10.8501L16.8512 10.6601C16.8012 10.6501 16.7612 10.6201 16.7412 10.5801L16.1712 9.42008C16.0712 9.21008 15.8512 9.08008 15.6212 9.08008C15.3812 9.08008 15.1712 9.21008 15.0612 9.42008L14.4912 10.5801C14.4712 10.6301 14.4212 10.6601 14.3712 10.6601L13.0912 10.8501C12.8612 10.8801 12.6612 11.0501 12.5912 11.2701C12.5212 11.5001 12.5812 11.7401 12.7512 11.9001L13.6812 12.8001C13.7212 12.8301 13.7312 12.8901 13.7212 12.9401L13.5012 14.2101C13.4612 14.4401 13.5512 14.6801 13.7512 14.8101C13.8612 14.8901 13.9812 14.9301 14.1112 14.9301C14.2112 14.9301 14.3112 14.9101 14.4012 14.8601L15.5512 14.2601C15.5912 14.2401 15.6512 14.2401 15.6912 14.2601L16.8412 14.8601C17.0512 14.9701 17.3012 14.9501 17.4912 14.8101C17.6812 14.6701 17.7812 14.4401 17.7412 14.2001L17.5212 12.9301C17.5112 12.8801 17.5312 12.8301 17.5612 12.7901L18.4712 11.9001Z" fill="#505050"/>
<path d="M9.20865 7.58035V16.4204C8.82865 16.4204 8.50865 16.7404 8.50865 17.1204V20.1404H7.34865C3.39865 20.1404 2.09865 18.9604 2.00865 15.2804C1.99865 15.0904 2.07865 14.9104 2.20865 14.7804C2.33865 14.6404 2.52865 14.5704 2.70865 14.5704C4.10865 14.5704 5.25865 13.4204 5.25865 12.0104C5.25865 10.6004 4.10865 9.44035 2.70865 9.44035C2.50865 9.44035 2.33865 9.37035 2.20865 9.23035C2.07865 9.10035 1.99865 8.91035 2.00865 8.73035C2.09865 5.04035 3.39865 3.86035 7.34865 3.86035H8.50865V6.88035C8.50865 7.27035 8.82865 7.58035 9.20865 7.58035Z" fill="#505050"/>
</svg>
